G04 EAGLE Gerber RS-274X export*
G75*
%MOMM*%
%FSLAX34Y34*%
%LPD*%
%IN*%
%IPPOS*%
%AMOC8*
5,1,8,0,0,1.08239X$1,22.5*%
G01*
%ADD10C,0.254000*%


D10*
X-173200Y-300482D02*
X-86346Y-449466D01*
X86346Y-449466D01*
X173200Y-300482D01*
X86600Y-150482D01*
X173200Y482D01*
X86600Y150482D01*
X173200Y300482D01*
X86600Y450482D01*
X-86600Y450482D01*
X-173200Y300482D01*
X-86600Y150482D01*
X-173200Y482D01*
X-86600Y-150482D01*
X-173200Y-300482D01*
X-371Y407298D02*
X-1111Y407363D01*
X-1842Y407492D01*
X-2558Y407684D01*
X-3256Y407938D01*
X-3929Y408251D01*
X-4571Y408622D01*
X-5179Y409048D01*
X-5748Y409525D01*
X-6273Y410050D01*
X-6750Y410619D01*
X-7176Y411227D01*
X-7547Y411869D01*
X-7860Y412542D01*
X-8114Y413240D01*
X-8306Y413957D01*
X-8435Y414687D01*
X-8500Y415427D01*
X-8500Y416169D01*
X-8435Y416909D01*
X-8306Y417640D01*
X-8114Y418356D01*
X-7860Y419054D01*
X-7547Y419727D01*
X-7176Y420369D01*
X-6750Y420977D01*
X-6273Y421546D01*
X-5748Y422071D01*
X-5179Y422548D01*
X-4571Y422974D01*
X-3929Y423345D01*
X-3256Y423658D01*
X-2558Y423912D01*
X-1842Y424104D01*
X-1111Y424233D01*
X-371Y424298D01*
X371Y424298D01*
X1111Y424233D01*
X1842Y424104D01*
X2558Y423912D01*
X3256Y423658D01*
X3929Y423345D01*
X4571Y422974D01*
X5179Y422548D01*
X5748Y422071D01*
X6273Y421546D01*
X6750Y420977D01*
X7176Y420369D01*
X7547Y419727D01*
X7860Y419054D01*
X8114Y418356D01*
X8306Y417640D01*
X8435Y416909D01*
X8500Y416169D01*
X8500Y415427D01*
X8435Y414687D01*
X8306Y413957D01*
X8114Y413240D01*
X7860Y412542D01*
X7547Y411869D01*
X7176Y411227D01*
X6750Y410619D01*
X6273Y410050D01*
X5748Y409525D01*
X5179Y409048D01*
X4571Y408622D01*
X3929Y408251D01*
X3256Y407938D01*
X2558Y407684D01*
X1842Y407492D01*
X1111Y407363D01*
X371Y407298D01*
X-371Y407298D01*
X-371Y337298D02*
X-1111Y337363D01*
X-1842Y337492D01*
X-2558Y337684D01*
X-3256Y337938D01*
X-3929Y338251D01*
X-4571Y338622D01*
X-5179Y339048D01*
X-5748Y339525D01*
X-6273Y340050D01*
X-6750Y340619D01*
X-7176Y341227D01*
X-7547Y341869D01*
X-7860Y342542D01*
X-8114Y343240D01*
X-8306Y343957D01*
X-8435Y344687D01*
X-8500Y345427D01*
X-8500Y346169D01*
X-8435Y346909D01*
X-8306Y347640D01*
X-8114Y348356D01*
X-7860Y349054D01*
X-7547Y349727D01*
X-7176Y350369D01*
X-6750Y350977D01*
X-6273Y351546D01*
X-5748Y352071D01*
X-5179Y352548D01*
X-4571Y352974D01*
X-3929Y353345D01*
X-3256Y353658D01*
X-2558Y353912D01*
X-1842Y354104D01*
X-1111Y354233D01*
X-371Y354298D01*
X371Y354298D01*
X1111Y354233D01*
X1842Y354104D01*
X2558Y353912D01*
X3256Y353658D01*
X3929Y353345D01*
X4571Y352974D01*
X5179Y352548D01*
X5748Y352071D01*
X6273Y351546D01*
X6750Y350977D01*
X7176Y350369D01*
X7547Y349727D01*
X7860Y349054D01*
X8114Y348356D01*
X8306Y347640D01*
X8435Y346909D01*
X8500Y346169D01*
X8500Y345427D01*
X8435Y344687D01*
X8306Y343957D01*
X8114Y343240D01*
X7860Y342542D01*
X7547Y341869D01*
X7176Y341227D01*
X6750Y340619D01*
X6273Y340050D01*
X5748Y339525D01*
X5179Y339048D01*
X4571Y338622D01*
X3929Y338251D01*
X3256Y337938D01*
X2558Y337684D01*
X1842Y337492D01*
X1111Y337363D01*
X371Y337298D01*
X-371Y337298D01*
M02*
