G04 EAGLE Gerber RS-274X export*
G75*
%MOMM*%
%FSLAX34Y34*%
%LPD*%
%INSolderpaste Bottom*%
%IPPOS*%
%AMOC8*
5,1,8,0,0,1.08239X$1,22.5*%
G01*
%ADD10R,1.000000X1.100000*%
%ADD11R,1.500000X1.300000*%
%ADD12R,1.100000X1.000000*%
%ADD13R,1.300000X1.500000*%
%ADD14R,0.300000X0.550000*%
%ADD15R,0.550000X0.300000*%
%ADD16R,0.400000X1.399997*%

G36*
X38880Y272274D02*
X38880Y272274D01*
X38882Y272273D01*
X38925Y272293D01*
X38969Y272311D01*
X38969Y272313D01*
X38971Y272314D01*
X39004Y272399D01*
X39004Y284623D01*
X39003Y284625D01*
X39004Y284627D01*
X38984Y284670D01*
X38966Y284714D01*
X38964Y284714D01*
X38963Y284716D01*
X38878Y284749D01*
X26654Y284749D01*
X26652Y284748D01*
X26650Y284749D01*
X26607Y284729D01*
X26563Y284711D01*
X26563Y284709D01*
X26561Y284708D01*
X26528Y284623D01*
X26528Y272399D01*
X26529Y272397D01*
X26528Y272395D01*
X26548Y272352D01*
X26566Y272308D01*
X26568Y272308D01*
X26569Y272306D01*
X26654Y272273D01*
X38878Y272273D01*
X38880Y272274D01*
G37*
G36*
X24656Y272274D02*
X24656Y272274D01*
X24658Y272273D01*
X24701Y272293D01*
X24745Y272311D01*
X24745Y272313D01*
X24747Y272314D01*
X24780Y272399D01*
X24780Y284623D01*
X24779Y284625D01*
X24780Y284627D01*
X24760Y284670D01*
X24742Y284714D01*
X24740Y284714D01*
X24739Y284716D01*
X24654Y284749D01*
X12430Y284749D01*
X12428Y284748D01*
X12426Y284749D01*
X12383Y284729D01*
X12339Y284711D01*
X12339Y284709D01*
X12337Y284708D01*
X12304Y284623D01*
X12304Y272399D01*
X12305Y272397D01*
X12304Y272395D01*
X12324Y272352D01*
X12342Y272308D01*
X12344Y272308D01*
X12345Y272306D01*
X12430Y272273D01*
X24654Y272273D01*
X24656Y272274D01*
G37*
G36*
X10432Y272274D02*
X10432Y272274D01*
X10434Y272273D01*
X10477Y272293D01*
X10521Y272311D01*
X10521Y272313D01*
X10523Y272314D01*
X10556Y272399D01*
X10556Y284623D01*
X10555Y284625D01*
X10556Y284627D01*
X10536Y284670D01*
X10518Y284714D01*
X10516Y284714D01*
X10515Y284716D01*
X10430Y284749D01*
X-1794Y284749D01*
X-1796Y284748D01*
X-1798Y284749D01*
X-1841Y284729D01*
X-1885Y284711D01*
X-1885Y284709D01*
X-1887Y284708D01*
X-1920Y284623D01*
X-1920Y272399D01*
X-1919Y272397D01*
X-1920Y272395D01*
X-1900Y272352D01*
X-1882Y272308D01*
X-1880Y272308D01*
X-1879Y272306D01*
X-1794Y272273D01*
X10430Y272273D01*
X10432Y272274D01*
G37*
G36*
X-3792Y272274D02*
X-3792Y272274D01*
X-3790Y272273D01*
X-3747Y272293D01*
X-3703Y272311D01*
X-3703Y272313D01*
X-3701Y272314D01*
X-3668Y272399D01*
X-3668Y284623D01*
X-3669Y284625D01*
X-3668Y284627D01*
X-3688Y284670D01*
X-3706Y284714D01*
X-3708Y284714D01*
X-3709Y284716D01*
X-3794Y284749D01*
X-16018Y284749D01*
X-16020Y284748D01*
X-16022Y284749D01*
X-16065Y284729D01*
X-16109Y284711D01*
X-16109Y284709D01*
X-16111Y284708D01*
X-16144Y284623D01*
X-16144Y272399D01*
X-16143Y272397D01*
X-16144Y272395D01*
X-16124Y272352D01*
X-16106Y272308D01*
X-16104Y272308D01*
X-16103Y272306D01*
X-16018Y272273D01*
X-3794Y272273D01*
X-3792Y272274D01*
G37*
G36*
X38880Y258050D02*
X38880Y258050D01*
X38882Y258049D01*
X38925Y258069D01*
X38969Y258087D01*
X38969Y258089D01*
X38971Y258090D01*
X39004Y258175D01*
X39004Y270399D01*
X39003Y270401D01*
X39004Y270403D01*
X38984Y270446D01*
X38966Y270490D01*
X38964Y270490D01*
X38963Y270492D01*
X38878Y270525D01*
X26654Y270525D01*
X26652Y270524D01*
X26650Y270525D01*
X26607Y270505D01*
X26563Y270487D01*
X26563Y270485D01*
X26561Y270484D01*
X26528Y270399D01*
X26528Y258175D01*
X26529Y258173D01*
X26528Y258171D01*
X26548Y258128D01*
X26566Y258084D01*
X26568Y258084D01*
X26569Y258082D01*
X26654Y258049D01*
X38878Y258049D01*
X38880Y258050D01*
G37*
G36*
X-3792Y258050D02*
X-3792Y258050D01*
X-3790Y258049D01*
X-3747Y258069D01*
X-3703Y258087D01*
X-3703Y258089D01*
X-3701Y258090D01*
X-3668Y258175D01*
X-3668Y270399D01*
X-3669Y270401D01*
X-3668Y270403D01*
X-3688Y270446D01*
X-3706Y270490D01*
X-3708Y270490D01*
X-3709Y270492D01*
X-3794Y270525D01*
X-16018Y270525D01*
X-16020Y270524D01*
X-16022Y270525D01*
X-16065Y270505D01*
X-16109Y270487D01*
X-16109Y270485D01*
X-16111Y270484D01*
X-16144Y270399D01*
X-16144Y258175D01*
X-16143Y258173D01*
X-16144Y258171D01*
X-16124Y258128D01*
X-16106Y258084D01*
X-16104Y258084D01*
X-16103Y258082D01*
X-16018Y258049D01*
X-3794Y258049D01*
X-3792Y258050D01*
G37*
G36*
X10432Y258050D02*
X10432Y258050D01*
X10434Y258049D01*
X10477Y258069D01*
X10521Y258087D01*
X10521Y258089D01*
X10523Y258090D01*
X10556Y258175D01*
X10556Y270399D01*
X10555Y270401D01*
X10556Y270403D01*
X10536Y270446D01*
X10518Y270490D01*
X10516Y270490D01*
X10515Y270492D01*
X10430Y270525D01*
X-1794Y270525D01*
X-1796Y270524D01*
X-1798Y270525D01*
X-1841Y270505D01*
X-1885Y270487D01*
X-1885Y270485D01*
X-1887Y270484D01*
X-1920Y270399D01*
X-1920Y258175D01*
X-1919Y258173D01*
X-1920Y258171D01*
X-1900Y258128D01*
X-1882Y258084D01*
X-1880Y258084D01*
X-1879Y258082D01*
X-1794Y258049D01*
X10430Y258049D01*
X10432Y258050D01*
G37*
G36*
X24656Y258050D02*
X24656Y258050D01*
X24658Y258049D01*
X24701Y258069D01*
X24745Y258087D01*
X24745Y258089D01*
X24747Y258090D01*
X24780Y258175D01*
X24780Y270399D01*
X24779Y270401D01*
X24780Y270403D01*
X24760Y270446D01*
X24742Y270490D01*
X24740Y270490D01*
X24739Y270492D01*
X24654Y270525D01*
X12430Y270525D01*
X12428Y270524D01*
X12426Y270525D01*
X12383Y270505D01*
X12339Y270487D01*
X12339Y270485D01*
X12337Y270484D01*
X12304Y270399D01*
X12304Y258175D01*
X12305Y258173D01*
X12304Y258171D01*
X12324Y258128D01*
X12342Y258084D01*
X12344Y258084D01*
X12345Y258082D01*
X12430Y258049D01*
X24654Y258049D01*
X24656Y258050D01*
G37*
G36*
X10432Y243826D02*
X10432Y243826D01*
X10434Y243825D01*
X10477Y243845D01*
X10521Y243863D01*
X10521Y243865D01*
X10523Y243866D01*
X10556Y243951D01*
X10556Y256175D01*
X10555Y256177D01*
X10556Y256179D01*
X10536Y256222D01*
X10518Y256266D01*
X10516Y256266D01*
X10515Y256268D01*
X10430Y256301D01*
X-1794Y256301D01*
X-1796Y256300D01*
X-1798Y256301D01*
X-1841Y256281D01*
X-1885Y256263D01*
X-1885Y256261D01*
X-1887Y256260D01*
X-1920Y256175D01*
X-1920Y243951D01*
X-1919Y243949D01*
X-1920Y243947D01*
X-1900Y243904D01*
X-1882Y243860D01*
X-1880Y243860D01*
X-1879Y243858D01*
X-1794Y243825D01*
X10430Y243825D01*
X10432Y243826D01*
G37*
G36*
X38880Y243826D02*
X38880Y243826D01*
X38882Y243825D01*
X38925Y243845D01*
X38969Y243863D01*
X38969Y243865D01*
X38971Y243866D01*
X39004Y243951D01*
X39004Y256175D01*
X39003Y256177D01*
X39004Y256179D01*
X38984Y256222D01*
X38966Y256266D01*
X38964Y256266D01*
X38963Y256268D01*
X38878Y256301D01*
X26654Y256301D01*
X26652Y256300D01*
X26650Y256301D01*
X26607Y256281D01*
X26563Y256263D01*
X26563Y256261D01*
X26561Y256260D01*
X26528Y256175D01*
X26528Y243951D01*
X26529Y243949D01*
X26528Y243947D01*
X26548Y243904D01*
X26566Y243860D01*
X26568Y243860D01*
X26569Y243858D01*
X26654Y243825D01*
X38878Y243825D01*
X38880Y243826D01*
G37*
G36*
X24656Y243826D02*
X24656Y243826D01*
X24658Y243825D01*
X24701Y243845D01*
X24745Y243863D01*
X24745Y243865D01*
X24747Y243866D01*
X24780Y243951D01*
X24780Y256175D01*
X24779Y256177D01*
X24780Y256179D01*
X24760Y256222D01*
X24742Y256266D01*
X24740Y256266D01*
X24739Y256268D01*
X24654Y256301D01*
X12430Y256301D01*
X12428Y256300D01*
X12426Y256301D01*
X12383Y256281D01*
X12339Y256263D01*
X12339Y256261D01*
X12337Y256260D01*
X12304Y256175D01*
X12304Y243951D01*
X12305Y243949D01*
X12304Y243947D01*
X12324Y243904D01*
X12342Y243860D01*
X12344Y243860D01*
X12345Y243858D01*
X12430Y243825D01*
X24654Y243825D01*
X24656Y243826D01*
G37*
G36*
X-3792Y243826D02*
X-3792Y243826D01*
X-3790Y243825D01*
X-3747Y243845D01*
X-3703Y243863D01*
X-3703Y243865D01*
X-3701Y243866D01*
X-3668Y243951D01*
X-3668Y256175D01*
X-3669Y256177D01*
X-3668Y256179D01*
X-3688Y256222D01*
X-3706Y256266D01*
X-3708Y256266D01*
X-3709Y256268D01*
X-3794Y256301D01*
X-16018Y256301D01*
X-16020Y256300D01*
X-16022Y256301D01*
X-16065Y256281D01*
X-16109Y256263D01*
X-16109Y256261D01*
X-16111Y256260D01*
X-16144Y256175D01*
X-16144Y243951D01*
X-16143Y243949D01*
X-16144Y243947D01*
X-16124Y243904D01*
X-16106Y243860D01*
X-16104Y243860D01*
X-16103Y243858D01*
X-16018Y243825D01*
X-3794Y243825D01*
X-3792Y243826D01*
G37*
G36*
X24656Y229602D02*
X24656Y229602D01*
X24658Y229601D01*
X24701Y229621D01*
X24745Y229639D01*
X24745Y229641D01*
X24747Y229642D01*
X24780Y229727D01*
X24780Y241951D01*
X24779Y241953D01*
X24780Y241955D01*
X24760Y241998D01*
X24742Y242042D01*
X24740Y242042D01*
X24739Y242044D01*
X24654Y242077D01*
X12430Y242077D01*
X12428Y242076D01*
X12426Y242077D01*
X12383Y242057D01*
X12339Y242039D01*
X12339Y242037D01*
X12337Y242036D01*
X12304Y241951D01*
X12304Y229727D01*
X12305Y229725D01*
X12304Y229723D01*
X12324Y229680D01*
X12342Y229636D01*
X12344Y229636D01*
X12345Y229634D01*
X12430Y229601D01*
X24654Y229601D01*
X24656Y229602D01*
G37*
G36*
X10432Y229602D02*
X10432Y229602D01*
X10434Y229601D01*
X10477Y229621D01*
X10521Y229639D01*
X10521Y229641D01*
X10523Y229642D01*
X10556Y229727D01*
X10556Y241951D01*
X10555Y241953D01*
X10556Y241955D01*
X10536Y241998D01*
X10518Y242042D01*
X10516Y242042D01*
X10515Y242044D01*
X10430Y242077D01*
X-1794Y242077D01*
X-1796Y242076D01*
X-1798Y242077D01*
X-1841Y242057D01*
X-1885Y242039D01*
X-1885Y242037D01*
X-1887Y242036D01*
X-1920Y241951D01*
X-1920Y229727D01*
X-1919Y229725D01*
X-1920Y229723D01*
X-1900Y229680D01*
X-1882Y229636D01*
X-1880Y229636D01*
X-1879Y229634D01*
X-1794Y229601D01*
X10430Y229601D01*
X10432Y229602D01*
G37*
G36*
X-3792Y229602D02*
X-3792Y229602D01*
X-3790Y229601D01*
X-3747Y229621D01*
X-3703Y229639D01*
X-3703Y229641D01*
X-3701Y229642D01*
X-3668Y229727D01*
X-3668Y241951D01*
X-3669Y241953D01*
X-3668Y241955D01*
X-3688Y241998D01*
X-3706Y242042D01*
X-3708Y242042D01*
X-3709Y242044D01*
X-3794Y242077D01*
X-16018Y242077D01*
X-16020Y242076D01*
X-16022Y242077D01*
X-16065Y242057D01*
X-16109Y242039D01*
X-16109Y242037D01*
X-16111Y242036D01*
X-16144Y241951D01*
X-16144Y229727D01*
X-16143Y229725D01*
X-16144Y229723D01*
X-16124Y229680D01*
X-16106Y229636D01*
X-16104Y229636D01*
X-16103Y229634D01*
X-16018Y229601D01*
X-3794Y229601D01*
X-3792Y229602D01*
G37*
G36*
X38880Y229602D02*
X38880Y229602D01*
X38882Y229601D01*
X38925Y229621D01*
X38969Y229639D01*
X38969Y229641D01*
X38971Y229642D01*
X39004Y229727D01*
X39004Y241951D01*
X39003Y241953D01*
X39004Y241955D01*
X38984Y241998D01*
X38966Y242042D01*
X38964Y242042D01*
X38963Y242044D01*
X38878Y242077D01*
X26654Y242077D01*
X26652Y242076D01*
X26650Y242077D01*
X26607Y242057D01*
X26563Y242039D01*
X26563Y242037D01*
X26561Y242036D01*
X26528Y241951D01*
X26528Y229727D01*
X26529Y229725D01*
X26528Y229723D01*
X26548Y229680D01*
X26566Y229636D01*
X26568Y229636D01*
X26569Y229634D01*
X26654Y229601D01*
X38878Y229601D01*
X38880Y229602D01*
G37*
D10*
X-24488Y325438D03*
X-24488Y308438D03*
D11*
X-63223Y308978D03*
X-63223Y327978D03*
D10*
X54841Y321737D03*
X54841Y304737D03*
X-9168Y325293D03*
X-9168Y308293D03*
D11*
X-42903Y308978D03*
X-42903Y327978D03*
D12*
X30630Y203200D03*
X13630Y203200D03*
D13*
X18281Y185452D03*
X37281Y185452D03*
D12*
X-82169Y324413D03*
X-82169Y307413D03*
X-1746Y186128D03*
X-1746Y203128D03*
X-21050Y189906D03*
X-21050Y206906D03*
X38505Y168085D03*
X38505Y151085D03*
D14*
X-16077Y290975D03*
X-11076Y290975D03*
X-6074Y290975D03*
X-1073Y290975D03*
X3928Y290975D03*
X8929Y290975D03*
X13931Y290975D03*
X18932Y290975D03*
X23933Y290975D03*
X28934Y290975D03*
X33936Y290975D03*
X38937Y290975D03*
D15*
X45230Y284682D03*
X45230Y279681D03*
X45230Y274679D03*
X45230Y269678D03*
X45230Y264677D03*
X45230Y259676D03*
X45230Y254674D03*
X45230Y249673D03*
X45230Y244672D03*
X45230Y239671D03*
X45230Y234669D03*
X45230Y229668D03*
D14*
X38937Y223375D03*
X33936Y223375D03*
X28934Y223375D03*
X23933Y223375D03*
X18932Y223375D03*
X13931Y223375D03*
X8929Y223375D03*
X3928Y223375D03*
X-1073Y223375D03*
X-6074Y223375D03*
X-11076Y223375D03*
X-16077Y223375D03*
D15*
X-22370Y229668D03*
X-22370Y234669D03*
X-22370Y239671D03*
X-22370Y244672D03*
X-22370Y249673D03*
X-22370Y254674D03*
X-22370Y259676D03*
X-22370Y264677D03*
X-22370Y269678D03*
X-22370Y274679D03*
X-22370Y279681D03*
X-22370Y284682D03*
D16*
X13813Y317341D03*
X25813Y317341D03*
X37813Y317341D03*
D10*
X-68952Y249174D03*
X-51952Y249174D03*
X-68952Y265684D03*
X-51952Y265684D03*
X-68952Y282448D03*
X-51952Y282448D03*
X-68952Y232664D03*
X-51952Y232664D03*
X-68952Y216154D03*
X-51952Y216154D03*
M02*
