M48
;GenerationSoftware,Autodesk,EAGLE,9.6.1*%
;CreationDate,2024-04-12T15:28:19Z*%
FMAT,2
ICI,OFF
METRIC,TZ,000.000
T5C0.254
T4C0.350
T3C1.016
T2C1.100
T1C1.700
%
G90
M71
T1
X0Y41580
X0Y34580
T2
X-9074Y-36796
X-1750Y-41173
X1750Y-41173
X9151Y-36669
X10901Y-33638
X-10824Y-33765
T3
X-10871Y32483
X-10871Y29943
X-10871Y27403
X8115Y28851
T4
X111Y32632
X2565Y33084
X857Y17431
T5
X-5766Y44196
X6147Y44069
X-11252Y33858
X-9246Y35687
X4089Y19736
X-5867Y42621
X4978Y43409
X4826Y44247
X13132Y28905
X3454Y5021
X3734Y14072
X-8585Y33452
X-6604Y35077
X11278Y3886
X12217Y3302
X11430Y2667
X12243Y2032
X7722Y1067
X-8865Y42316
X8915Y42342
X15138Y31674
X-14935Y32080
X-8992Y17577
X9068Y17704
X-15164Y1499
X-9144Y-17450
X7722Y-17501
X15062Y1499
X5359Y-9220
X-14580Y30759
X7087Y43028
X-7341Y42494
X15162Y28429
X14605Y51
X-14776Y-68
X-8077Y20853
X-8052Y19939
X-10414Y20396
X5852Y23967
X6896Y19558
X9830Y8814
X5931Y19431
X6426Y21869
X-10692Y34961
X-203Y17450
X9436Y-2248
X-406Y6960
X-1092Y7645
X305Y7671
X305Y6248
X-1118Y6248
X2489Y9830
X5105Y10262
X5156Y5004
X5182Y2972
X-2870Y3988
X-3200Y9474
X-6071Y9449
X-4242Y14326
X-2591Y14351
X-1041Y14351
X508Y14326
X-3454Y914
X-1321Y914
X3785Y991
X-8636Y914
X-51Y-20853
X-1448Y-20828
X1295Y-20828
X1295Y-19482
X-76Y-19482
X-1448Y-19482
X-1448Y-22225
X-51Y-22250
X1270Y-22250
X-4089Y-23927
X-6477Y-23698
X4140Y-23978
X8026Y-22631
X-381Y-16535
X-965Y-12573
X737Y-12573
X-3835Y41021
X9220Y2032
X-7315Y-6985
X4623Y-8280
X4699Y-9957
X7925Y-5131
X8915Y-4166
X-9220Y-23343
X-10236Y-24486
X-11328Y-25578
X-12395Y-26670
X-13462Y-27686
X8915Y-23393
X9881Y-24359
X10846Y-25298
X11811Y-26238
X12903Y-27254
X14427Y-27254
X-14834Y-27711
X-9220Y-21996
X-8585Y-20676
X8915Y-21920
X8941Y-20523
X7772Y-19456
X-787Y-8890
X-1702Y-8890
X-1702Y-7976
X-787Y-7950
X2642Y15215
X-9246Y-19685
X-9804Y-18821
X-10414Y-19837
X-9601Y-20777
X6655Y-17983
X6655Y-16866
X8966Y-17780
X9804Y-18974
X10414Y-20015
X-15570Y-29032
X-15418Y-31598
X-14681Y-32817
X-13843Y-34163
X-13056Y-35357
X-12243Y-36703
X-15977Y-30455
X-10820Y-39370
X-9855Y-41097
X-8966Y-42545
X-8077Y-43967
X-6248Y-43967
X-4496Y-44069
X-2210Y-43307
X-254Y-44120
X1803Y-43332
X3404Y-44044
X5410Y-44069
X7366Y-44094
X8661Y-43078
X9550Y-41656
X11100Y-38989
X11913Y-37389
X12776Y-35992
X13589Y-34544
X15088Y-32207
X15926Y-30759
X15697Y-28931
X14224Y-28829
X13233Y-30632
X14757Y-30632
X7544Y-41859
X5512Y-41859
X6528Y-40640
X5512Y-39294
X4318Y-40640
X3150Y-39345
X4242Y-38125
X1905Y-38176
X838Y-39345
X-7976Y-41046
X-6071Y-41097
X-7010Y-39802
X-5461Y-39776
X-7010Y-42367
X-5359Y-42418
X-14097Y-29489
X-13614Y-31064
X13691Y-25984
X13030Y33807
X13106Y27178
X9652Y19406
X9246Y11532
X13716Y32029
X-15011Y27965
X-13716Y28067
X-9525Y11938
X-9957Y10922
X9957Y10693
X14656Y-2565
X13868Y-2057
X-14046Y-2057
X-14503Y-3200
X-12598Y2261
X-12751Y-4902
X9931Y-11303
X-9754Y-11430
X6325Y38532
X5055Y21666
X4902Y20320
X5639Y22377
X5791Y20269
X5067Y18059
X7286Y26573
X7010Y9017
X6375Y27280
X6655Y8052
X8661Y25603
X6934Y6985
X7671Y25756
X7023Y9957
X5131Y9169
X3480Y3048
X11379Y-2946
X12294Y-2565
X11582Y-1854
X1499Y11989
X4318Y-17323
X-6401Y-21742
X-6960Y-22504
X-7569Y-21742
X5182Y-23495
X6121Y-23622
X-1905Y-33858
X-483Y-33858
X965Y-33884
X2210Y-33858
X-1219Y-32893
X203Y-32842
X1499Y-32817
X-1956Y-32004
X-533Y-31979
X813Y-31902
X2108Y-31902
X1422Y-30912
X12370Y25933
X-1346Y-30963
X2769Y-30836
X4115Y-30836
X-2896Y-30861
X-4115Y-30861
X4699Y-31902
X4724Y-32995
X4724Y-34036
X2616Y-12446
X381Y-6909
X-2857Y-6591
X4064Y-12471
X-3302Y-9601
X-3708Y-12294
X-2743Y21971
X12014Y-5080
X-2057Y-10897
X-1118Y-6020
X-2362Y17323
X-9703Y-5817
X2413Y-5105
X2845Y-24333
X3581Y-24968
X4064Y-25756
X3073Y-25781
X2159Y-25298
X4699Y-25095
X5385Y-25629
X711Y-26441
X1575Y-26924
X711Y-27483
X1676Y-28042
X864Y-28550
X1829Y-28981
X1016Y-29464
X-787Y-26391
X-1753Y-26949
X-838Y-27432
X-1778Y-28092
X76Y-30912
X-1905Y-29083
X-1016Y-29489
X-4191Y-25121
X-3175Y-24613
X-3581Y-25806
X-2845Y-25349
X-2057Y-25806
X-4851Y-25679
X-5588Y-25121
X-4496Y-8458
X-965Y-10744
X-7976Y24155
X-5893Y-18720
X-8026Y23216
X-6960Y-18644
X999Y-16518
X-8052Y28194
X-7976Y26619
X-4521Y-17856
X-8001Y25629
X-5436Y-17958
X104Y21463
X10566Y34417
X-9728Y8280
X5461Y29134
X6807Y24066
X-10154Y9398
X4140Y29947
X-3099Y18872
X3962Y20650
X4597Y32995
X8763Y12497
X-8611Y12471
X15062Y-1397
X-8255Y-12319
X9169Y-12395
X-15189Y-1448
X-13513Y29464
X13157Y30023
X-889Y-28473
M30