G04 EAGLE Gerber RS-274X export*
G75*
%MOMM*%
%FSLAX34Y34*%
%LPD*%
%INSilkscreen Bottom*%
%IPPOS*%
%AMOC8*
5,1,8,0,0,1.08239X$1,22.5*%
G01*
%ADD10C,0.152400*%
%ADD11C,0.101600*%
%ADD12C,0.254000*%
%ADD13C,0.076200*%
%ADD14C,0.406400*%
%ADD15C,0.150000*%

G36*
X30841Y297182D02*
X30841Y297182D01*
X30843Y297181D01*
X30886Y297201D01*
X30930Y297219D01*
X30930Y297221D01*
X30932Y297222D01*
X30965Y297307D01*
X30965Y299847D01*
X30964Y299849D01*
X30965Y299851D01*
X30945Y299894D01*
X30927Y299938D01*
X30925Y299938D01*
X30924Y299940D01*
X30839Y299973D01*
X27029Y299973D01*
X27027Y299972D01*
X27025Y299973D01*
X26982Y299953D01*
X26938Y299935D01*
X26938Y299933D01*
X26936Y299932D01*
X26903Y299847D01*
X26903Y297307D01*
X26904Y297305D01*
X26903Y297303D01*
X26923Y297260D01*
X26941Y297216D01*
X26943Y297216D01*
X26944Y297214D01*
X27029Y297181D01*
X30839Y297181D01*
X30841Y297182D01*
G37*
G36*
X54104Y247643D02*
X54104Y247643D01*
X54106Y247642D01*
X54149Y247662D01*
X54193Y247680D01*
X54193Y247682D01*
X54195Y247683D01*
X54228Y247768D01*
X54228Y251578D01*
X54227Y251580D01*
X54228Y251582D01*
X54208Y251625D01*
X54190Y251669D01*
X54188Y251669D01*
X54187Y251671D01*
X54102Y251704D01*
X51562Y251704D01*
X51560Y251703D01*
X51558Y251704D01*
X51515Y251684D01*
X51471Y251666D01*
X51471Y251664D01*
X51469Y251663D01*
X51436Y251578D01*
X51436Y247768D01*
X51437Y247766D01*
X51436Y247764D01*
X51456Y247721D01*
X51474Y247677D01*
X51476Y247677D01*
X51477Y247675D01*
X51562Y247642D01*
X54102Y247642D01*
X54104Y247643D01*
G37*
G36*
X15838Y214378D02*
X15838Y214378D01*
X15840Y214377D01*
X15883Y214397D01*
X15927Y214415D01*
X15927Y214417D01*
X15929Y214418D01*
X15962Y214503D01*
X15962Y217043D01*
X15961Y217045D01*
X15962Y217047D01*
X15942Y217090D01*
X15924Y217134D01*
X15922Y217134D01*
X15921Y217136D01*
X15836Y217169D01*
X12026Y217169D01*
X12024Y217168D01*
X12022Y217169D01*
X11979Y217149D01*
X11935Y217131D01*
X11935Y217129D01*
X11933Y217128D01*
X11900Y217043D01*
X11900Y214503D01*
X11901Y214501D01*
X11900Y214499D01*
X11920Y214456D01*
X11938Y214412D01*
X11940Y214412D01*
X11941Y214410D01*
X12026Y214377D01*
X15836Y214377D01*
X15838Y214378D01*
G37*
D10*
X107808Y57812D02*
X107808Y75592D01*
X102869Y75592D01*
X102729Y75590D01*
X102590Y75584D01*
X102450Y75574D01*
X102311Y75560D01*
X102172Y75543D01*
X102034Y75521D01*
X101897Y75495D01*
X101760Y75466D01*
X101624Y75433D01*
X101490Y75396D01*
X101356Y75355D01*
X101224Y75310D01*
X101092Y75261D01*
X100963Y75209D01*
X100835Y75154D01*
X100708Y75094D01*
X100583Y75031D01*
X100460Y74965D01*
X100339Y74895D01*
X100220Y74822D01*
X100103Y74745D01*
X99989Y74665D01*
X99876Y74582D01*
X99766Y74496D01*
X99659Y74406D01*
X99554Y74314D01*
X99452Y74219D01*
X99352Y74121D01*
X99255Y74020D01*
X99161Y73916D01*
X99071Y73810D01*
X98983Y73701D01*
X98898Y73590D01*
X98817Y73476D01*
X98738Y73361D01*
X98663Y73243D01*
X98592Y73122D01*
X98524Y73000D01*
X98459Y72877D01*
X98398Y72751D01*
X98340Y72623D01*
X98286Y72495D01*
X98236Y72364D01*
X98189Y72232D01*
X98146Y72099D01*
X98107Y71965D01*
X98072Y71830D01*
X98041Y71694D01*
X98013Y71556D01*
X97990Y71419D01*
X97970Y71280D01*
X97954Y71141D01*
X97942Y71002D01*
X97934Y70863D01*
X97930Y70723D01*
X97930Y70583D01*
X97934Y70443D01*
X97942Y70304D01*
X97954Y70165D01*
X97970Y70026D01*
X97990Y69887D01*
X98013Y69750D01*
X98041Y69612D01*
X98072Y69476D01*
X98107Y69341D01*
X98146Y69207D01*
X98189Y69074D01*
X98236Y68942D01*
X98286Y68811D01*
X98340Y68683D01*
X98398Y68555D01*
X98459Y68429D01*
X98524Y68306D01*
X98592Y68183D01*
X98663Y68063D01*
X98738Y67945D01*
X98817Y67830D01*
X98898Y67716D01*
X98983Y67605D01*
X99071Y67496D01*
X99161Y67390D01*
X99255Y67286D01*
X99352Y67185D01*
X99452Y67087D01*
X99554Y66992D01*
X99659Y66900D01*
X99766Y66810D01*
X99876Y66724D01*
X99989Y66641D01*
X100103Y66561D01*
X100220Y66484D01*
X100339Y66411D01*
X100460Y66341D01*
X100583Y66275D01*
X100708Y66212D01*
X100835Y66152D01*
X100963Y66097D01*
X101092Y66045D01*
X101224Y65996D01*
X101356Y65951D01*
X101490Y65910D01*
X101624Y65873D01*
X101760Y65840D01*
X101897Y65811D01*
X102034Y65785D01*
X102172Y65763D01*
X102311Y65746D01*
X102450Y65732D01*
X102590Y65722D01*
X102729Y65716D01*
X102869Y65714D01*
X107808Y65714D01*
X91813Y57812D02*
X86874Y57812D01*
X86734Y57814D01*
X86595Y57820D01*
X86455Y57830D01*
X86316Y57844D01*
X86177Y57861D01*
X86039Y57883D01*
X85902Y57909D01*
X85765Y57938D01*
X85629Y57971D01*
X85495Y58008D01*
X85361Y58049D01*
X85229Y58094D01*
X85097Y58143D01*
X84968Y58195D01*
X84840Y58250D01*
X84713Y58310D01*
X84588Y58373D01*
X84465Y58439D01*
X84344Y58509D01*
X84225Y58582D01*
X84108Y58659D01*
X83994Y58739D01*
X83881Y58822D01*
X83771Y58908D01*
X83664Y58998D01*
X83559Y59090D01*
X83457Y59185D01*
X83357Y59283D01*
X83260Y59384D01*
X83166Y59488D01*
X83076Y59594D01*
X82988Y59703D01*
X82903Y59814D01*
X82822Y59928D01*
X82743Y60043D01*
X82668Y60161D01*
X82597Y60281D01*
X82529Y60404D01*
X82464Y60527D01*
X82403Y60653D01*
X82345Y60781D01*
X82291Y60909D01*
X82241Y61040D01*
X82194Y61172D01*
X82151Y61305D01*
X82112Y61439D01*
X82077Y61574D01*
X82046Y61710D01*
X82018Y61848D01*
X81995Y61985D01*
X81975Y62124D01*
X81959Y62263D01*
X81947Y62402D01*
X81939Y62541D01*
X81935Y62681D01*
X81935Y62821D01*
X81939Y62961D01*
X81947Y63100D01*
X81959Y63239D01*
X81975Y63378D01*
X81995Y63517D01*
X82018Y63654D01*
X82046Y63792D01*
X82077Y63928D01*
X82112Y64063D01*
X82151Y64197D01*
X82194Y64330D01*
X82241Y64462D01*
X82291Y64593D01*
X82345Y64721D01*
X82403Y64849D01*
X82464Y64975D01*
X82529Y65098D01*
X82597Y65220D01*
X82668Y65341D01*
X82743Y65459D01*
X82822Y65574D01*
X82903Y65688D01*
X82988Y65799D01*
X83076Y65908D01*
X83166Y66014D01*
X83260Y66118D01*
X83357Y66219D01*
X83457Y66317D01*
X83559Y66412D01*
X83664Y66504D01*
X83771Y66594D01*
X83881Y66680D01*
X83994Y66763D01*
X84108Y66843D01*
X84225Y66920D01*
X84344Y66993D01*
X84465Y67063D01*
X84588Y67129D01*
X84713Y67192D01*
X84840Y67252D01*
X84968Y67307D01*
X85097Y67359D01*
X85229Y67408D01*
X85361Y67453D01*
X85495Y67494D01*
X85629Y67531D01*
X85765Y67564D01*
X85902Y67593D01*
X86039Y67619D01*
X86177Y67641D01*
X86316Y67658D01*
X86455Y67672D01*
X86595Y67682D01*
X86734Y67688D01*
X86874Y67690D01*
X85886Y75592D02*
X91813Y75592D01*
X85886Y75592D02*
X85762Y75590D01*
X85638Y75584D01*
X85514Y75574D01*
X85391Y75561D01*
X85268Y75543D01*
X85146Y75522D01*
X85024Y75497D01*
X84903Y75468D01*
X84784Y75435D01*
X84665Y75399D01*
X84548Y75358D01*
X84432Y75315D01*
X84317Y75267D01*
X84204Y75216D01*
X84092Y75161D01*
X83983Y75103D01*
X83875Y75042D01*
X83769Y74977D01*
X83665Y74909D01*
X83564Y74837D01*
X83464Y74763D01*
X83368Y74685D01*
X83273Y74605D01*
X83181Y74521D01*
X83092Y74435D01*
X83006Y74346D01*
X82922Y74254D01*
X82842Y74159D01*
X82764Y74063D01*
X82690Y73963D01*
X82618Y73862D01*
X82550Y73758D01*
X82485Y73652D01*
X82424Y73544D01*
X82366Y73435D01*
X82311Y73323D01*
X82260Y73210D01*
X82212Y73095D01*
X82169Y72979D01*
X82128Y72862D01*
X82092Y72743D01*
X82059Y72624D01*
X82030Y72503D01*
X82005Y72381D01*
X81984Y72259D01*
X81966Y72136D01*
X81953Y72013D01*
X81943Y71889D01*
X81937Y71765D01*
X81935Y71641D01*
X81937Y71517D01*
X81943Y71393D01*
X81953Y71269D01*
X81966Y71146D01*
X81984Y71023D01*
X82005Y70901D01*
X82030Y70779D01*
X82059Y70658D01*
X82092Y70539D01*
X82128Y70420D01*
X82169Y70303D01*
X82212Y70187D01*
X82260Y70072D01*
X82311Y69959D01*
X82366Y69847D01*
X82424Y69738D01*
X82485Y69630D01*
X82550Y69524D01*
X82618Y69420D01*
X82690Y69319D01*
X82764Y69219D01*
X82842Y69123D01*
X82922Y69028D01*
X83006Y68936D01*
X83092Y68847D01*
X83181Y68761D01*
X83273Y68677D01*
X83368Y68597D01*
X83464Y68519D01*
X83564Y68445D01*
X83665Y68373D01*
X83769Y68305D01*
X83875Y68240D01*
X83983Y68179D01*
X84092Y68121D01*
X84204Y68066D01*
X84317Y68015D01*
X84432Y67967D01*
X84548Y67924D01*
X84665Y67883D01*
X84784Y67847D01*
X84903Y67814D01*
X85024Y67785D01*
X85146Y67760D01*
X85268Y67739D01*
X85391Y67721D01*
X85514Y67708D01*
X85638Y67698D01*
X85762Y67692D01*
X85886Y67690D01*
X89838Y67690D01*
X128649Y245145D02*
X128649Y262925D01*
X123711Y262925D01*
X123571Y262923D01*
X123432Y262917D01*
X123292Y262907D01*
X123153Y262893D01*
X123014Y262876D01*
X122876Y262854D01*
X122739Y262828D01*
X122602Y262799D01*
X122466Y262766D01*
X122332Y262729D01*
X122198Y262688D01*
X122066Y262643D01*
X121934Y262594D01*
X121805Y262542D01*
X121677Y262487D01*
X121550Y262427D01*
X121425Y262364D01*
X121302Y262298D01*
X121181Y262228D01*
X121062Y262155D01*
X120945Y262078D01*
X120831Y261998D01*
X120718Y261915D01*
X120608Y261829D01*
X120501Y261739D01*
X120396Y261647D01*
X120294Y261552D01*
X120194Y261454D01*
X120097Y261353D01*
X120003Y261249D01*
X119913Y261143D01*
X119825Y261034D01*
X119740Y260923D01*
X119659Y260809D01*
X119580Y260694D01*
X119505Y260576D01*
X119434Y260456D01*
X119366Y260333D01*
X119301Y260210D01*
X119240Y260084D01*
X119182Y259956D01*
X119128Y259828D01*
X119078Y259697D01*
X119031Y259565D01*
X118988Y259432D01*
X118949Y259298D01*
X118914Y259163D01*
X118883Y259027D01*
X118855Y258889D01*
X118832Y258752D01*
X118812Y258613D01*
X118796Y258474D01*
X118784Y258335D01*
X118776Y258196D01*
X118772Y258056D01*
X118772Y257916D01*
X118776Y257776D01*
X118784Y257637D01*
X118796Y257498D01*
X118812Y257359D01*
X118832Y257220D01*
X118855Y257083D01*
X118883Y256945D01*
X118914Y256809D01*
X118949Y256674D01*
X118988Y256540D01*
X119031Y256407D01*
X119078Y256275D01*
X119128Y256144D01*
X119182Y256016D01*
X119240Y255888D01*
X119301Y255762D01*
X119366Y255639D01*
X119434Y255516D01*
X119505Y255396D01*
X119580Y255278D01*
X119659Y255163D01*
X119740Y255049D01*
X119825Y254938D01*
X119913Y254829D01*
X120003Y254723D01*
X120097Y254619D01*
X120194Y254518D01*
X120294Y254420D01*
X120396Y254325D01*
X120501Y254233D01*
X120608Y254143D01*
X120718Y254057D01*
X120831Y253974D01*
X120945Y253894D01*
X121062Y253817D01*
X121181Y253744D01*
X121302Y253674D01*
X121425Y253608D01*
X121550Y253545D01*
X121677Y253485D01*
X121805Y253430D01*
X121934Y253378D01*
X122066Y253329D01*
X122198Y253284D01*
X122332Y253243D01*
X122466Y253206D01*
X122602Y253173D01*
X122739Y253144D01*
X122876Y253118D01*
X123014Y253096D01*
X123153Y253079D01*
X123292Y253065D01*
X123432Y253055D01*
X123571Y253049D01*
X123711Y253047D01*
X128649Y253047D01*
X107222Y262925D02*
X107090Y262923D01*
X106959Y262917D01*
X106827Y262907D01*
X106696Y262894D01*
X106566Y262876D01*
X106436Y262855D01*
X106306Y262830D01*
X106178Y262801D01*
X106050Y262768D01*
X105924Y262731D01*
X105798Y262691D01*
X105674Y262647D01*
X105551Y262599D01*
X105430Y262548D01*
X105310Y262493D01*
X105192Y262435D01*
X105076Y262373D01*
X104962Y262307D01*
X104849Y262239D01*
X104739Y262167D01*
X104631Y262092D01*
X104525Y262013D01*
X104421Y261932D01*
X104320Y261847D01*
X104222Y261760D01*
X104126Y261669D01*
X104033Y261576D01*
X103942Y261480D01*
X103855Y261382D01*
X103770Y261281D01*
X103689Y261177D01*
X103610Y261071D01*
X103535Y260963D01*
X103463Y260853D01*
X103395Y260740D01*
X103329Y260626D01*
X103267Y260510D01*
X103209Y260392D01*
X103154Y260272D01*
X103103Y260151D01*
X103055Y260028D01*
X103011Y259904D01*
X102971Y259778D01*
X102934Y259652D01*
X102901Y259524D01*
X102872Y259396D01*
X102847Y259266D01*
X102826Y259136D01*
X102808Y259006D01*
X102795Y258875D01*
X102785Y258743D01*
X102779Y258612D01*
X102777Y258480D01*
X107222Y262925D02*
X107372Y262923D01*
X107521Y262917D01*
X107670Y262907D01*
X107819Y262894D01*
X107968Y262876D01*
X108116Y262855D01*
X108264Y262829D01*
X108410Y262800D01*
X108556Y262767D01*
X108701Y262730D01*
X108845Y262689D01*
X108988Y262645D01*
X109130Y262597D01*
X109270Y262545D01*
X109409Y262490D01*
X109547Y262431D01*
X109682Y262368D01*
X109817Y262302D01*
X109949Y262232D01*
X110079Y262159D01*
X110208Y262082D01*
X110335Y262002D01*
X110459Y261919D01*
X110581Y261833D01*
X110701Y261743D01*
X110818Y261650D01*
X110933Y261555D01*
X111046Y261456D01*
X111156Y261354D01*
X111263Y261250D01*
X111367Y261143D01*
X111469Y261033D01*
X111567Y260920D01*
X111663Y260805D01*
X111755Y260687D01*
X111845Y260567D01*
X111931Y260445D01*
X112014Y260321D01*
X112094Y260194D01*
X112170Y260066D01*
X112243Y259935D01*
X112313Y259802D01*
X112379Y259668D01*
X112441Y259532D01*
X112500Y259395D01*
X112556Y259256D01*
X112607Y259115D01*
X112655Y258974D01*
X104259Y255023D02*
X104163Y255116D01*
X104071Y255212D01*
X103981Y255311D01*
X103894Y255412D01*
X103810Y255515D01*
X103728Y255620D01*
X103650Y255728D01*
X103575Y255838D01*
X103502Y255950D01*
X103433Y256064D01*
X103367Y256180D01*
X103305Y256298D01*
X103246Y256417D01*
X103190Y256538D01*
X103137Y256661D01*
X103088Y256785D01*
X103043Y256910D01*
X103000Y257037D01*
X102962Y257164D01*
X102927Y257293D01*
X102896Y257422D01*
X102868Y257553D01*
X102844Y257684D01*
X102823Y257816D01*
X102807Y257948D01*
X102794Y258081D01*
X102784Y258214D01*
X102779Y258347D01*
X102777Y258480D01*
X104258Y255022D02*
X112654Y245145D01*
X102777Y245145D01*
X90407Y252059D02*
X90407Y257986D01*
X90407Y252059D02*
X86950Y247614D01*
X90407Y252059D02*
X93864Y247614D01*
X90407Y252059D02*
X84974Y254035D01*
X90407Y252059D02*
X95840Y254035D01*
D11*
X-64698Y433549D02*
X-63724Y435236D01*
X-64698Y433549D02*
X-59077Y430304D01*
X-57129Y433677D01*
X-57130Y433677D02*
X-57082Y433764D01*
X-57037Y433853D01*
X-56996Y433943D01*
X-56958Y434035D01*
X-56924Y434129D01*
X-56893Y434223D01*
X-56866Y434319D01*
X-56843Y434416D01*
X-56823Y434513D01*
X-56808Y434612D01*
X-56796Y434710D01*
X-56787Y434809D01*
X-56783Y434909D01*
X-56782Y435008D01*
X-56785Y435108D01*
X-56792Y435207D01*
X-56803Y435306D01*
X-56818Y435404D01*
X-56836Y435502D01*
X-56858Y435599D01*
X-56884Y435695D01*
X-56913Y435790D01*
X-56946Y435884D01*
X-56983Y435976D01*
X-57023Y436067D01*
X-57066Y436157D01*
X-57113Y436244D01*
X-57164Y436330D01*
X-57217Y436414D01*
X-57274Y436496D01*
X-57334Y436575D01*
X-57396Y436652D01*
X-57462Y436727D01*
X-57531Y436799D01*
X-57602Y436868D01*
X-57676Y436935D01*
X-57752Y436999D01*
X-57831Y437060D01*
X-57912Y437117D01*
X-57995Y437172D01*
X-58080Y437223D01*
X-63701Y440469D01*
X-63701Y440468D02*
X-63788Y440516D01*
X-63877Y440561D01*
X-63967Y440602D01*
X-64059Y440640D01*
X-64153Y440674D01*
X-64247Y440705D01*
X-64343Y440732D01*
X-64440Y440755D01*
X-64537Y440775D01*
X-64636Y440790D01*
X-64734Y440802D01*
X-64833Y440811D01*
X-64933Y440815D01*
X-65032Y440816D01*
X-65132Y440813D01*
X-65231Y440806D01*
X-65330Y440795D01*
X-65428Y440780D01*
X-65526Y440762D01*
X-65623Y440740D01*
X-65719Y440714D01*
X-65814Y440685D01*
X-65908Y440652D01*
X-66000Y440615D01*
X-66091Y440575D01*
X-66180Y440532D01*
X-66268Y440485D01*
X-66354Y440434D01*
X-66438Y440381D01*
X-66519Y440324D01*
X-66599Y440264D01*
X-66676Y440202D01*
X-66751Y440136D01*
X-66823Y440067D01*
X-66892Y439996D01*
X-66959Y439922D01*
X-67023Y439846D01*
X-67083Y439767D01*
X-67141Y439686D01*
X-67196Y439603D01*
X-67247Y439518D01*
X-67248Y439519D02*
X-69195Y436146D01*
X-72046Y431209D02*
X-61927Y425367D01*
X-65173Y419745D02*
X-72046Y431209D01*
X-75291Y425587D02*
X-65173Y419745D01*
X-68023Y414808D02*
X-78142Y420650D01*
X-79764Y417839D01*
X-79765Y417840D02*
X-79820Y417741D01*
X-79871Y417640D01*
X-79919Y417537D01*
X-79964Y417433D01*
X-80004Y417327D01*
X-80041Y417220D01*
X-80074Y417112D01*
X-80104Y417002D01*
X-80129Y416892D01*
X-80151Y416781D01*
X-80168Y416669D01*
X-80182Y416556D01*
X-80192Y416443D01*
X-80198Y416330D01*
X-80200Y416217D01*
X-80198Y416104D01*
X-80192Y415991D01*
X-80182Y415878D01*
X-80168Y415765D01*
X-80151Y415653D01*
X-80129Y415542D01*
X-80104Y415432D01*
X-80074Y415322D01*
X-80041Y415214D01*
X-80004Y415107D01*
X-79964Y415001D01*
X-79919Y414897D01*
X-79871Y414794D01*
X-79820Y414693D01*
X-79765Y414594D01*
X-79707Y414497D01*
X-79645Y414402D01*
X-79580Y414309D01*
X-79512Y414219D01*
X-79441Y414131D01*
X-79366Y414045D01*
X-79289Y413962D01*
X-79209Y413882D01*
X-79126Y413805D01*
X-79040Y413730D01*
X-78952Y413659D01*
X-78862Y413591D01*
X-78769Y413526D01*
X-78674Y413464D01*
X-78577Y413406D01*
X-78576Y413406D02*
X-74079Y410809D01*
X-74080Y410809D02*
X-73981Y410754D01*
X-73880Y410703D01*
X-73777Y410655D01*
X-73673Y410610D01*
X-73567Y410570D01*
X-73460Y410533D01*
X-73352Y410500D01*
X-73242Y410470D01*
X-73132Y410445D01*
X-73021Y410423D01*
X-72909Y410406D01*
X-72796Y410392D01*
X-72683Y410382D01*
X-72570Y410376D01*
X-72457Y410374D01*
X-72344Y410376D01*
X-72231Y410382D01*
X-72118Y410392D01*
X-72005Y410406D01*
X-71893Y410423D01*
X-71782Y410445D01*
X-71672Y410470D01*
X-71562Y410500D01*
X-71454Y410533D01*
X-71347Y410570D01*
X-71241Y410610D01*
X-71137Y410655D01*
X-71034Y410703D01*
X-70933Y410754D01*
X-70834Y410809D01*
X-70737Y410867D01*
X-70642Y410929D01*
X-70549Y410994D01*
X-70459Y411062D01*
X-70370Y411133D01*
X-70285Y411208D01*
X-70202Y411285D01*
X-70122Y411365D01*
X-70045Y411448D01*
X-69970Y411534D01*
X-69899Y411622D01*
X-69831Y411712D01*
X-69766Y411805D01*
X-69704Y411900D01*
X-69646Y411997D01*
X-68023Y414808D01*
X75983Y419924D02*
X77669Y418951D01*
X75983Y419924D02*
X72737Y414303D01*
X76110Y412356D01*
X76197Y412308D01*
X76286Y412263D01*
X76376Y412222D01*
X76468Y412184D01*
X76562Y412150D01*
X76656Y412119D01*
X76752Y412092D01*
X76849Y412069D01*
X76946Y412049D01*
X77045Y412034D01*
X77143Y412022D01*
X77242Y412013D01*
X77342Y412009D01*
X77441Y412008D01*
X77541Y412011D01*
X77640Y412018D01*
X77739Y412029D01*
X77837Y412044D01*
X77935Y412062D01*
X78032Y412084D01*
X78128Y412110D01*
X78223Y412139D01*
X78317Y412172D01*
X78409Y412209D01*
X78500Y412249D01*
X78590Y412292D01*
X78677Y412339D01*
X78763Y412390D01*
X78847Y412443D01*
X78929Y412500D01*
X79008Y412560D01*
X79085Y412622D01*
X79160Y412688D01*
X79232Y412757D01*
X79301Y412828D01*
X79368Y412902D01*
X79432Y412978D01*
X79493Y413057D01*
X79550Y413138D01*
X79605Y413221D01*
X79656Y413306D01*
X79657Y413306D02*
X82903Y418927D01*
X82902Y418928D02*
X82950Y419015D01*
X82995Y419104D01*
X83036Y419194D01*
X83074Y419286D01*
X83108Y419380D01*
X83139Y419474D01*
X83166Y419570D01*
X83189Y419667D01*
X83209Y419764D01*
X83224Y419863D01*
X83236Y419961D01*
X83245Y420060D01*
X83249Y420160D01*
X83250Y420259D01*
X83247Y420359D01*
X83240Y420458D01*
X83229Y420557D01*
X83214Y420655D01*
X83196Y420753D01*
X83174Y420850D01*
X83148Y420946D01*
X83119Y421041D01*
X83086Y421135D01*
X83049Y421227D01*
X83009Y421318D01*
X82966Y421408D01*
X82919Y421495D01*
X82868Y421581D01*
X82815Y421665D01*
X82758Y421747D01*
X82698Y421826D01*
X82636Y421903D01*
X82570Y421978D01*
X82501Y422050D01*
X82430Y422119D01*
X82356Y422186D01*
X82280Y422250D01*
X82201Y422310D01*
X82120Y422368D01*
X82037Y422423D01*
X81952Y422474D01*
X78579Y424422D01*
X73642Y427272D02*
X67800Y417153D01*
X62179Y420399D02*
X73642Y427272D01*
X68021Y430518D02*
X62179Y420399D01*
X57242Y423249D02*
X63084Y433368D01*
X60273Y434991D01*
X60174Y435046D01*
X60073Y435097D01*
X59970Y435145D01*
X59866Y435190D01*
X59760Y435230D01*
X59653Y435267D01*
X59545Y435300D01*
X59435Y435330D01*
X59325Y435355D01*
X59214Y435377D01*
X59102Y435394D01*
X58989Y435408D01*
X58876Y435418D01*
X58763Y435424D01*
X58650Y435426D01*
X58537Y435424D01*
X58424Y435418D01*
X58311Y435408D01*
X58198Y435394D01*
X58086Y435377D01*
X57975Y435355D01*
X57865Y435330D01*
X57755Y435300D01*
X57647Y435267D01*
X57540Y435230D01*
X57434Y435190D01*
X57330Y435145D01*
X57227Y435097D01*
X57126Y435046D01*
X57027Y434991D01*
X56930Y434933D01*
X56835Y434871D01*
X56742Y434806D01*
X56652Y434738D01*
X56564Y434667D01*
X56478Y434592D01*
X56395Y434515D01*
X56315Y434435D01*
X56238Y434352D01*
X56163Y434266D01*
X56092Y434178D01*
X56024Y434088D01*
X55959Y433995D01*
X55897Y433900D01*
X55839Y433803D01*
X55840Y433803D02*
X53243Y429306D01*
X53188Y429207D01*
X53137Y429106D01*
X53089Y429003D01*
X53044Y428899D01*
X53004Y428793D01*
X52967Y428686D01*
X52934Y428578D01*
X52904Y428468D01*
X52879Y428358D01*
X52857Y428247D01*
X52840Y428135D01*
X52826Y428022D01*
X52816Y427909D01*
X52810Y427796D01*
X52808Y427683D01*
X52810Y427570D01*
X52816Y427457D01*
X52826Y427344D01*
X52840Y427231D01*
X52857Y427119D01*
X52879Y427008D01*
X52904Y426898D01*
X52934Y426788D01*
X52967Y426680D01*
X53004Y426573D01*
X53044Y426467D01*
X53089Y426363D01*
X53137Y426260D01*
X53188Y426159D01*
X53243Y426060D01*
X53301Y425963D01*
X53363Y425868D01*
X53428Y425775D01*
X53496Y425685D01*
X53567Y425596D01*
X53642Y425511D01*
X53719Y425428D01*
X53799Y425348D01*
X53882Y425271D01*
X53968Y425196D01*
X54056Y425125D01*
X54146Y425057D01*
X54239Y424992D01*
X54334Y424930D01*
X54431Y424872D01*
X57242Y423249D01*
D10*
X108869Y380463D02*
X108869Y362683D01*
X108869Y380463D02*
X103930Y380463D01*
X103790Y380461D01*
X103651Y380455D01*
X103511Y380445D01*
X103372Y380431D01*
X103233Y380414D01*
X103095Y380392D01*
X102958Y380366D01*
X102821Y380337D01*
X102685Y380304D01*
X102551Y380267D01*
X102417Y380226D01*
X102285Y380181D01*
X102153Y380132D01*
X102024Y380080D01*
X101896Y380025D01*
X101769Y379965D01*
X101644Y379902D01*
X101521Y379836D01*
X101400Y379766D01*
X101281Y379693D01*
X101164Y379616D01*
X101050Y379536D01*
X100937Y379453D01*
X100827Y379367D01*
X100720Y379277D01*
X100615Y379185D01*
X100513Y379090D01*
X100413Y378992D01*
X100316Y378891D01*
X100222Y378787D01*
X100132Y378681D01*
X100044Y378572D01*
X99959Y378461D01*
X99878Y378347D01*
X99799Y378232D01*
X99724Y378114D01*
X99653Y377994D01*
X99585Y377871D01*
X99520Y377748D01*
X99459Y377622D01*
X99401Y377494D01*
X99347Y377366D01*
X99297Y377235D01*
X99250Y377103D01*
X99207Y376970D01*
X99168Y376836D01*
X99133Y376701D01*
X99102Y376565D01*
X99074Y376427D01*
X99051Y376290D01*
X99031Y376151D01*
X99015Y376012D01*
X99003Y375873D01*
X98995Y375734D01*
X98991Y375594D01*
X98991Y375454D01*
X98995Y375314D01*
X99003Y375175D01*
X99015Y375036D01*
X99031Y374897D01*
X99051Y374758D01*
X99074Y374621D01*
X99102Y374483D01*
X99133Y374347D01*
X99168Y374212D01*
X99207Y374078D01*
X99250Y373945D01*
X99297Y373813D01*
X99347Y373682D01*
X99401Y373554D01*
X99459Y373426D01*
X99520Y373300D01*
X99585Y373177D01*
X99653Y373055D01*
X99724Y372934D01*
X99799Y372816D01*
X99878Y372701D01*
X99959Y372587D01*
X100044Y372476D01*
X100132Y372367D01*
X100222Y372261D01*
X100316Y372157D01*
X100413Y372056D01*
X100513Y371958D01*
X100615Y371863D01*
X100720Y371771D01*
X100827Y371681D01*
X100937Y371595D01*
X101050Y371512D01*
X101164Y371432D01*
X101281Y371355D01*
X101400Y371282D01*
X101521Y371212D01*
X101644Y371146D01*
X101769Y371083D01*
X101896Y371023D01*
X102024Y370968D01*
X102153Y370916D01*
X102285Y370867D01*
X102417Y370822D01*
X102551Y370781D01*
X102685Y370744D01*
X102821Y370711D01*
X102958Y370682D01*
X103095Y370656D01*
X103233Y370634D01*
X103372Y370617D01*
X103511Y370603D01*
X103651Y370593D01*
X103790Y370587D01*
X103930Y370585D01*
X108869Y370585D01*
X92874Y376512D02*
X87935Y380463D01*
X87935Y362683D01*
X92874Y362683D02*
X82996Y362683D01*
X70627Y369597D02*
X70627Y375524D01*
X70627Y369597D02*
X67169Y365152D01*
X70627Y369597D02*
X74084Y365152D01*
X70627Y369597D02*
X65194Y371573D01*
X70627Y369597D02*
X76059Y371573D01*
X-84563Y79759D02*
X-84563Y61979D01*
X-84563Y79759D02*
X-89502Y79759D01*
X-89642Y79757D01*
X-89781Y79751D01*
X-89921Y79741D01*
X-90060Y79727D01*
X-90199Y79710D01*
X-90337Y79688D01*
X-90474Y79662D01*
X-90611Y79633D01*
X-90747Y79600D01*
X-90881Y79563D01*
X-91015Y79522D01*
X-91147Y79477D01*
X-91279Y79428D01*
X-91408Y79376D01*
X-91536Y79321D01*
X-91663Y79261D01*
X-91788Y79198D01*
X-91911Y79132D01*
X-92032Y79062D01*
X-92151Y78989D01*
X-92268Y78912D01*
X-92382Y78832D01*
X-92495Y78749D01*
X-92605Y78663D01*
X-92712Y78573D01*
X-92817Y78481D01*
X-92919Y78386D01*
X-93019Y78288D01*
X-93116Y78187D01*
X-93210Y78083D01*
X-93300Y77977D01*
X-93388Y77868D01*
X-93473Y77757D01*
X-93554Y77643D01*
X-93633Y77528D01*
X-93708Y77410D01*
X-93779Y77289D01*
X-93847Y77167D01*
X-93912Y77044D01*
X-93973Y76918D01*
X-94031Y76790D01*
X-94085Y76662D01*
X-94135Y76531D01*
X-94182Y76399D01*
X-94225Y76266D01*
X-94264Y76132D01*
X-94299Y75997D01*
X-94330Y75861D01*
X-94358Y75723D01*
X-94381Y75586D01*
X-94401Y75447D01*
X-94417Y75308D01*
X-94429Y75169D01*
X-94437Y75030D01*
X-94441Y74890D01*
X-94441Y74750D01*
X-94437Y74610D01*
X-94429Y74471D01*
X-94417Y74332D01*
X-94401Y74193D01*
X-94381Y74054D01*
X-94358Y73917D01*
X-94330Y73779D01*
X-94299Y73643D01*
X-94264Y73508D01*
X-94225Y73374D01*
X-94182Y73241D01*
X-94135Y73109D01*
X-94085Y72978D01*
X-94031Y72850D01*
X-93973Y72722D01*
X-93912Y72596D01*
X-93847Y72473D01*
X-93779Y72350D01*
X-93708Y72230D01*
X-93633Y72112D01*
X-93554Y71997D01*
X-93473Y71883D01*
X-93388Y71772D01*
X-93300Y71663D01*
X-93210Y71557D01*
X-93116Y71453D01*
X-93019Y71352D01*
X-92919Y71254D01*
X-92817Y71159D01*
X-92712Y71067D01*
X-92605Y70977D01*
X-92495Y70891D01*
X-92382Y70808D01*
X-92268Y70728D01*
X-92151Y70651D01*
X-92032Y70578D01*
X-91911Y70508D01*
X-91788Y70442D01*
X-91663Y70379D01*
X-91536Y70319D01*
X-91408Y70264D01*
X-91279Y70212D01*
X-91147Y70163D01*
X-91015Y70118D01*
X-90881Y70077D01*
X-90747Y70040D01*
X-90611Y70007D01*
X-90474Y69978D01*
X-90337Y69952D01*
X-90199Y69930D01*
X-90060Y69913D01*
X-89921Y69899D01*
X-89781Y69889D01*
X-89642Y69883D01*
X-89502Y69881D01*
X-84563Y69881D01*
X-100558Y65930D02*
X-104509Y79759D01*
X-100558Y65930D02*
X-110436Y65930D01*
X-107473Y69881D02*
X-107473Y61979D01*
X45341Y367665D02*
X45341Y385445D01*
X45341Y377543D02*
X35464Y377543D01*
X35464Y385445D02*
X35464Y367665D01*
X28033Y376555D02*
X28029Y376905D01*
X28016Y377254D01*
X27995Y377603D01*
X27966Y377952D01*
X27929Y378300D01*
X27883Y378647D01*
X27829Y378992D01*
X27767Y379336D01*
X27696Y379679D01*
X27617Y380020D01*
X27531Y380359D01*
X27436Y380695D01*
X27333Y381030D01*
X27222Y381361D01*
X27104Y381691D01*
X26977Y382017D01*
X26843Y382340D01*
X26701Y382659D01*
X26551Y382976D01*
X26551Y382975D02*
X26511Y383088D01*
X26467Y383198D01*
X26419Y383308D01*
X26368Y383415D01*
X26313Y383521D01*
X26255Y383626D01*
X26193Y383728D01*
X26128Y383828D01*
X26060Y383926D01*
X25989Y384022D01*
X25914Y384115D01*
X25837Y384206D01*
X25757Y384294D01*
X25674Y384379D01*
X25588Y384462D01*
X25499Y384542D01*
X25408Y384619D01*
X25314Y384693D01*
X25218Y384764D01*
X25120Y384832D01*
X25020Y384896D01*
X24917Y384958D01*
X24813Y385015D01*
X24707Y385070D01*
X24599Y385121D01*
X24489Y385168D01*
X24378Y385212D01*
X24266Y385252D01*
X24152Y385288D01*
X24038Y385321D01*
X23922Y385350D01*
X23805Y385375D01*
X23688Y385396D01*
X23570Y385414D01*
X23451Y385427D01*
X23332Y385437D01*
X23213Y385443D01*
X23094Y385445D01*
X22975Y385443D01*
X22856Y385437D01*
X22737Y385427D01*
X22618Y385414D01*
X22500Y385396D01*
X22383Y385375D01*
X22266Y385350D01*
X22150Y385321D01*
X22036Y385288D01*
X21922Y385252D01*
X21810Y385212D01*
X21699Y385168D01*
X21589Y385121D01*
X21481Y385070D01*
X21375Y385015D01*
X21271Y384958D01*
X21168Y384896D01*
X21068Y384832D01*
X20970Y384764D01*
X20874Y384693D01*
X20780Y384619D01*
X20689Y384542D01*
X20600Y384462D01*
X20515Y384379D01*
X20431Y384294D01*
X20351Y384206D01*
X20274Y384115D01*
X20199Y384022D01*
X20128Y383926D01*
X20060Y383828D01*
X19995Y383728D01*
X19933Y383626D01*
X19875Y383521D01*
X19820Y383416D01*
X19769Y383308D01*
X19721Y383198D01*
X19677Y383088D01*
X19637Y382975D01*
X19637Y382976D02*
X19487Y382659D01*
X19345Y382340D01*
X19211Y382017D01*
X19084Y381691D01*
X18966Y381361D01*
X18855Y381030D01*
X18752Y380695D01*
X18657Y380359D01*
X18571Y380020D01*
X18492Y379679D01*
X18421Y379336D01*
X18359Y378992D01*
X18305Y378647D01*
X18259Y378300D01*
X18222Y377952D01*
X18193Y377603D01*
X18172Y377254D01*
X18159Y376905D01*
X18155Y376555D01*
X28032Y376555D02*
X28028Y376205D01*
X28015Y375856D01*
X27994Y375507D01*
X27965Y375158D01*
X27928Y374810D01*
X27882Y374463D01*
X27828Y374118D01*
X27766Y373774D01*
X27695Y373431D01*
X27616Y373090D01*
X27530Y372751D01*
X27435Y372415D01*
X27332Y372080D01*
X27221Y371749D01*
X27103Y371420D01*
X26976Y371093D01*
X26842Y370770D01*
X26700Y370451D01*
X26550Y370135D01*
X26551Y370135D02*
X26511Y370022D01*
X26467Y369912D01*
X26419Y369802D01*
X26368Y369695D01*
X26313Y369589D01*
X26255Y369484D01*
X26193Y369382D01*
X26128Y369282D01*
X26060Y369184D01*
X25989Y369088D01*
X25914Y368995D01*
X25837Y368904D01*
X25757Y368816D01*
X25674Y368731D01*
X25588Y368648D01*
X25499Y368568D01*
X25408Y368491D01*
X25314Y368417D01*
X25218Y368346D01*
X25120Y368278D01*
X25020Y368214D01*
X24917Y368152D01*
X24813Y368095D01*
X24707Y368040D01*
X24599Y367989D01*
X24489Y367942D01*
X24378Y367898D01*
X24266Y367858D01*
X24152Y367822D01*
X24038Y367789D01*
X23922Y367760D01*
X23805Y367735D01*
X23688Y367714D01*
X23570Y367696D01*
X23451Y367683D01*
X23332Y367673D01*
X23213Y367667D01*
X23094Y367665D01*
X19637Y370135D02*
X19487Y370451D01*
X19345Y370770D01*
X19211Y371093D01*
X19084Y371420D01*
X18966Y371749D01*
X18855Y372080D01*
X18752Y372415D01*
X18657Y372751D01*
X18571Y373090D01*
X18492Y373431D01*
X18421Y373774D01*
X18359Y374118D01*
X18305Y374463D01*
X18259Y374810D01*
X18222Y375158D01*
X18193Y375507D01*
X18172Y375856D01*
X18159Y376205D01*
X18155Y376555D01*
X19637Y370135D02*
X19677Y370022D01*
X19721Y369912D01*
X19769Y369802D01*
X19820Y369694D01*
X19875Y369588D01*
X19933Y369484D01*
X19995Y369382D01*
X20060Y369282D01*
X20128Y369184D01*
X20199Y369088D01*
X20274Y368995D01*
X20351Y368904D01*
X20431Y368816D01*
X20515Y368731D01*
X20600Y368648D01*
X20689Y368568D01*
X20780Y368491D01*
X20874Y368417D01*
X20970Y368346D01*
X21068Y368278D01*
X21168Y368214D01*
X21271Y368152D01*
X21375Y368094D01*
X21481Y368040D01*
X21589Y367989D01*
X21699Y367942D01*
X21810Y367898D01*
X21922Y367858D01*
X22036Y367822D01*
X22150Y367789D01*
X22266Y367760D01*
X22383Y367735D01*
X22500Y367714D01*
X22618Y367696D01*
X22737Y367683D01*
X22856Y367673D01*
X22975Y367667D01*
X23094Y367665D01*
X27045Y371616D02*
X19143Y381494D01*
X11282Y383469D02*
X11282Y385445D01*
X1404Y385445D01*
X6343Y367665D01*
X-6112Y367665D02*
X-6112Y385445D01*
X-11051Y385445D01*
X-11191Y385443D01*
X-11330Y385437D01*
X-11470Y385427D01*
X-11609Y385413D01*
X-11748Y385396D01*
X-11886Y385374D01*
X-12023Y385348D01*
X-12160Y385319D01*
X-12296Y385286D01*
X-12430Y385249D01*
X-12564Y385208D01*
X-12696Y385163D01*
X-12828Y385114D01*
X-12957Y385062D01*
X-13085Y385007D01*
X-13212Y384947D01*
X-13337Y384884D01*
X-13460Y384818D01*
X-13581Y384748D01*
X-13700Y384675D01*
X-13817Y384598D01*
X-13931Y384518D01*
X-14044Y384435D01*
X-14154Y384349D01*
X-14261Y384259D01*
X-14366Y384167D01*
X-14468Y384072D01*
X-14568Y383974D01*
X-14665Y383873D01*
X-14759Y383769D01*
X-14849Y383663D01*
X-14937Y383554D01*
X-15022Y383443D01*
X-15103Y383329D01*
X-15182Y383214D01*
X-15257Y383096D01*
X-15328Y382976D01*
X-15396Y382853D01*
X-15461Y382730D01*
X-15522Y382604D01*
X-15580Y382476D01*
X-15634Y382348D01*
X-15684Y382217D01*
X-15731Y382085D01*
X-15774Y381952D01*
X-15813Y381818D01*
X-15848Y381683D01*
X-15879Y381547D01*
X-15907Y381409D01*
X-15930Y381272D01*
X-15950Y381133D01*
X-15966Y380994D01*
X-15978Y380855D01*
X-15986Y380716D01*
X-15990Y380576D01*
X-15990Y380436D01*
X-15986Y380296D01*
X-15978Y380157D01*
X-15966Y380018D01*
X-15950Y379879D01*
X-15930Y379740D01*
X-15907Y379603D01*
X-15879Y379465D01*
X-15848Y379329D01*
X-15813Y379194D01*
X-15774Y379060D01*
X-15731Y378927D01*
X-15684Y378795D01*
X-15634Y378664D01*
X-15580Y378536D01*
X-15522Y378408D01*
X-15461Y378282D01*
X-15396Y378159D01*
X-15328Y378037D01*
X-15257Y377916D01*
X-15182Y377798D01*
X-15103Y377683D01*
X-15022Y377569D01*
X-14937Y377458D01*
X-14849Y377349D01*
X-14759Y377243D01*
X-14665Y377139D01*
X-14568Y377038D01*
X-14468Y376940D01*
X-14366Y376845D01*
X-14261Y376753D01*
X-14154Y376663D01*
X-14044Y376577D01*
X-13931Y376494D01*
X-13817Y376414D01*
X-13700Y376337D01*
X-13581Y376264D01*
X-13460Y376194D01*
X-13337Y376128D01*
X-13212Y376065D01*
X-13085Y376005D01*
X-12957Y375950D01*
X-12828Y375898D01*
X-12696Y375849D01*
X-12564Y375804D01*
X-12430Y375763D01*
X-12296Y375726D01*
X-12160Y375693D01*
X-12023Y375664D01*
X-11886Y375638D01*
X-11748Y375616D01*
X-11609Y375599D01*
X-11470Y375585D01*
X-11330Y375575D01*
X-11191Y375569D01*
X-11051Y375567D01*
X-6112Y375567D01*
X-12039Y375567D02*
X-15990Y367665D01*
X-22777Y372604D02*
X-22779Y372744D01*
X-22785Y372883D01*
X-22795Y373023D01*
X-22809Y373162D01*
X-22826Y373301D01*
X-22848Y373439D01*
X-22874Y373576D01*
X-22903Y373713D01*
X-22936Y373849D01*
X-22973Y373983D01*
X-23014Y374117D01*
X-23059Y374249D01*
X-23108Y374381D01*
X-23160Y374510D01*
X-23215Y374638D01*
X-23275Y374765D01*
X-23338Y374890D01*
X-23404Y375013D01*
X-23474Y375134D01*
X-23547Y375253D01*
X-23624Y375370D01*
X-23704Y375484D01*
X-23787Y375597D01*
X-23873Y375707D01*
X-23963Y375814D01*
X-24055Y375919D01*
X-24150Y376021D01*
X-24248Y376121D01*
X-24349Y376218D01*
X-24453Y376312D01*
X-24559Y376402D01*
X-24668Y376490D01*
X-24779Y376575D01*
X-24893Y376656D01*
X-25008Y376735D01*
X-25126Y376810D01*
X-25246Y376881D01*
X-25369Y376949D01*
X-25492Y377014D01*
X-25618Y377075D01*
X-25746Y377133D01*
X-25874Y377187D01*
X-26005Y377237D01*
X-26137Y377284D01*
X-26270Y377327D01*
X-26404Y377366D01*
X-26539Y377401D01*
X-26675Y377432D01*
X-26813Y377460D01*
X-26950Y377483D01*
X-27089Y377503D01*
X-27228Y377519D01*
X-27367Y377531D01*
X-27506Y377539D01*
X-27646Y377543D01*
X-27786Y377543D01*
X-27926Y377539D01*
X-28065Y377531D01*
X-28204Y377519D01*
X-28343Y377503D01*
X-28482Y377483D01*
X-28619Y377460D01*
X-28757Y377432D01*
X-28893Y377401D01*
X-29028Y377366D01*
X-29162Y377327D01*
X-29295Y377284D01*
X-29427Y377237D01*
X-29558Y377187D01*
X-29686Y377133D01*
X-29814Y377075D01*
X-29940Y377014D01*
X-30063Y376949D01*
X-30186Y376881D01*
X-30306Y376810D01*
X-30424Y376735D01*
X-30539Y376656D01*
X-30653Y376575D01*
X-30764Y376490D01*
X-30873Y376402D01*
X-30979Y376312D01*
X-31083Y376218D01*
X-31184Y376121D01*
X-31282Y376021D01*
X-31377Y375919D01*
X-31469Y375814D01*
X-31559Y375707D01*
X-31645Y375597D01*
X-31728Y375484D01*
X-31808Y375370D01*
X-31885Y375253D01*
X-31958Y375134D01*
X-32028Y375013D01*
X-32094Y374890D01*
X-32157Y374765D01*
X-32217Y374638D01*
X-32272Y374510D01*
X-32324Y374381D01*
X-32373Y374249D01*
X-32418Y374117D01*
X-32459Y373983D01*
X-32496Y373849D01*
X-32529Y373713D01*
X-32558Y373576D01*
X-32584Y373439D01*
X-32606Y373301D01*
X-32623Y373162D01*
X-32637Y373023D01*
X-32647Y372883D01*
X-32653Y372744D01*
X-32655Y372604D01*
X-32653Y372464D01*
X-32647Y372325D01*
X-32637Y372185D01*
X-32623Y372046D01*
X-32606Y371907D01*
X-32584Y371769D01*
X-32558Y371632D01*
X-32529Y371495D01*
X-32496Y371359D01*
X-32459Y371225D01*
X-32418Y371091D01*
X-32373Y370959D01*
X-32324Y370827D01*
X-32272Y370698D01*
X-32217Y370570D01*
X-32157Y370443D01*
X-32094Y370318D01*
X-32028Y370195D01*
X-31958Y370074D01*
X-31885Y369955D01*
X-31808Y369838D01*
X-31728Y369724D01*
X-31645Y369611D01*
X-31559Y369501D01*
X-31469Y369394D01*
X-31377Y369289D01*
X-31282Y369187D01*
X-31184Y369087D01*
X-31083Y368990D01*
X-30979Y368896D01*
X-30873Y368806D01*
X-30764Y368718D01*
X-30653Y368633D01*
X-30539Y368552D01*
X-30424Y368473D01*
X-30306Y368398D01*
X-30185Y368327D01*
X-30063Y368259D01*
X-29940Y368194D01*
X-29814Y368133D01*
X-29686Y368075D01*
X-29558Y368021D01*
X-29427Y367971D01*
X-29295Y367924D01*
X-29162Y367881D01*
X-29028Y367842D01*
X-28893Y367807D01*
X-28757Y367776D01*
X-28619Y367748D01*
X-28482Y367725D01*
X-28343Y367705D01*
X-28204Y367689D01*
X-28065Y367677D01*
X-27926Y367669D01*
X-27786Y367665D01*
X-27646Y367665D01*
X-27506Y367669D01*
X-27367Y367677D01*
X-27228Y367689D01*
X-27089Y367705D01*
X-26950Y367725D01*
X-26813Y367748D01*
X-26675Y367776D01*
X-26539Y367807D01*
X-26404Y367842D01*
X-26270Y367881D01*
X-26137Y367924D01*
X-26005Y367971D01*
X-25874Y368021D01*
X-25746Y368075D01*
X-25618Y368133D01*
X-25492Y368194D01*
X-25369Y368259D01*
X-25246Y368327D01*
X-25126Y368398D01*
X-25008Y368473D01*
X-24893Y368552D01*
X-24779Y368633D01*
X-24668Y368718D01*
X-24559Y368806D01*
X-24453Y368896D01*
X-24349Y368990D01*
X-24248Y369087D01*
X-24150Y369187D01*
X-24055Y369289D01*
X-23963Y369394D01*
X-23873Y369501D01*
X-23787Y369611D01*
X-23704Y369724D01*
X-23624Y369838D01*
X-23547Y369955D01*
X-23474Y370074D01*
X-23404Y370195D01*
X-23338Y370318D01*
X-23275Y370443D01*
X-23215Y370570D01*
X-23160Y370698D01*
X-23108Y370827D01*
X-23059Y370959D01*
X-23014Y371091D01*
X-22973Y371225D01*
X-22936Y371359D01*
X-22903Y371495D01*
X-22874Y371632D01*
X-22848Y371769D01*
X-22826Y371907D01*
X-22809Y372046D01*
X-22795Y372185D01*
X-22785Y372325D01*
X-22779Y372464D01*
X-22777Y372604D01*
X-23765Y381494D02*
X-23767Y381618D01*
X-23773Y381742D01*
X-23783Y381866D01*
X-23796Y381989D01*
X-23814Y382112D01*
X-23835Y382234D01*
X-23860Y382356D01*
X-23889Y382477D01*
X-23922Y382596D01*
X-23958Y382715D01*
X-23999Y382832D01*
X-24042Y382948D01*
X-24090Y383063D01*
X-24141Y383176D01*
X-24196Y383288D01*
X-24254Y383397D01*
X-24315Y383505D01*
X-24380Y383611D01*
X-24448Y383715D01*
X-24520Y383816D01*
X-24594Y383916D01*
X-24672Y384012D01*
X-24752Y384107D01*
X-24836Y384199D01*
X-24922Y384288D01*
X-25011Y384374D01*
X-25103Y384458D01*
X-25198Y384538D01*
X-25294Y384616D01*
X-25394Y384690D01*
X-25495Y384762D01*
X-25599Y384830D01*
X-25705Y384895D01*
X-25813Y384956D01*
X-25922Y385014D01*
X-26034Y385069D01*
X-26147Y385120D01*
X-26262Y385168D01*
X-26378Y385211D01*
X-26495Y385252D01*
X-26614Y385288D01*
X-26733Y385321D01*
X-26854Y385350D01*
X-26976Y385375D01*
X-27098Y385396D01*
X-27221Y385414D01*
X-27344Y385427D01*
X-27468Y385437D01*
X-27592Y385443D01*
X-27716Y385445D01*
X-27840Y385443D01*
X-27964Y385437D01*
X-28088Y385427D01*
X-28211Y385414D01*
X-28334Y385396D01*
X-28456Y385375D01*
X-28578Y385350D01*
X-28699Y385321D01*
X-28818Y385288D01*
X-28937Y385252D01*
X-29054Y385211D01*
X-29170Y385168D01*
X-29285Y385120D01*
X-29398Y385069D01*
X-29510Y385014D01*
X-29619Y384956D01*
X-29727Y384895D01*
X-29833Y384830D01*
X-29937Y384762D01*
X-30038Y384690D01*
X-30138Y384616D01*
X-30234Y384538D01*
X-30329Y384458D01*
X-30421Y384374D01*
X-30510Y384288D01*
X-30596Y384199D01*
X-30680Y384107D01*
X-30760Y384012D01*
X-30838Y383916D01*
X-30912Y383816D01*
X-30984Y383715D01*
X-31052Y383611D01*
X-31117Y383505D01*
X-31178Y383397D01*
X-31236Y383288D01*
X-31291Y383176D01*
X-31342Y383063D01*
X-31390Y382948D01*
X-31433Y382832D01*
X-31474Y382715D01*
X-31510Y382596D01*
X-31543Y382477D01*
X-31572Y382356D01*
X-31597Y382234D01*
X-31618Y382112D01*
X-31636Y381989D01*
X-31649Y381866D01*
X-31659Y381742D01*
X-31665Y381618D01*
X-31667Y381494D01*
X-31665Y381370D01*
X-31659Y381246D01*
X-31649Y381122D01*
X-31636Y380999D01*
X-31618Y380876D01*
X-31597Y380754D01*
X-31572Y380632D01*
X-31543Y380511D01*
X-31510Y380392D01*
X-31474Y380273D01*
X-31433Y380156D01*
X-31390Y380040D01*
X-31342Y379925D01*
X-31291Y379812D01*
X-31236Y379700D01*
X-31178Y379591D01*
X-31117Y379483D01*
X-31052Y379377D01*
X-30984Y379273D01*
X-30912Y379172D01*
X-30838Y379072D01*
X-30760Y378976D01*
X-30680Y378881D01*
X-30596Y378789D01*
X-30510Y378700D01*
X-30421Y378614D01*
X-30329Y378530D01*
X-30234Y378450D01*
X-30138Y378372D01*
X-30038Y378298D01*
X-29937Y378226D01*
X-29833Y378158D01*
X-29727Y378093D01*
X-29619Y378032D01*
X-29510Y377974D01*
X-29398Y377919D01*
X-29285Y377868D01*
X-29170Y377820D01*
X-29054Y377777D01*
X-28937Y377736D01*
X-28818Y377700D01*
X-28699Y377667D01*
X-28578Y377638D01*
X-28456Y377613D01*
X-28334Y377592D01*
X-28211Y377574D01*
X-28088Y377561D01*
X-27964Y377551D01*
X-27840Y377545D01*
X-27716Y377543D01*
X-27592Y377545D01*
X-27468Y377551D01*
X-27344Y377561D01*
X-27221Y377574D01*
X-27098Y377592D01*
X-26976Y377613D01*
X-26854Y377638D01*
X-26733Y377667D01*
X-26614Y377700D01*
X-26495Y377736D01*
X-26378Y377777D01*
X-26262Y377820D01*
X-26147Y377868D01*
X-26034Y377919D01*
X-25922Y377974D01*
X-25813Y378032D01*
X-25705Y378093D01*
X-25599Y378158D01*
X-25495Y378226D01*
X-25394Y378298D01*
X-25294Y378372D01*
X-25198Y378450D01*
X-25103Y378530D01*
X-25011Y378614D01*
X-24922Y378700D01*
X-24836Y378789D01*
X-24752Y378881D01*
X-24672Y378976D01*
X-24594Y379072D01*
X-24520Y379172D01*
X-24448Y379273D01*
X-24380Y379377D01*
X-24315Y379483D01*
X-24254Y379591D01*
X-24196Y379700D01*
X-24141Y379812D01*
X-24090Y379925D01*
X-24042Y380040D01*
X-23999Y380156D01*
X-23958Y380273D01*
X-23922Y380392D01*
X-23889Y380511D01*
X-23860Y380632D01*
X-23835Y380754D01*
X-23814Y380876D01*
X-23796Y380999D01*
X-23783Y381122D01*
X-23773Y381246D01*
X-23767Y381370D01*
X-23765Y381494D01*
X-39528Y376555D02*
X-39532Y376905D01*
X-39545Y377254D01*
X-39566Y377603D01*
X-39595Y377952D01*
X-39632Y378300D01*
X-39678Y378647D01*
X-39732Y378992D01*
X-39794Y379336D01*
X-39865Y379679D01*
X-39944Y380020D01*
X-40030Y380359D01*
X-40125Y380695D01*
X-40228Y381030D01*
X-40339Y381361D01*
X-40457Y381691D01*
X-40584Y382017D01*
X-40718Y382340D01*
X-40860Y382659D01*
X-41010Y382976D01*
X-41009Y382975D02*
X-41049Y383088D01*
X-41093Y383198D01*
X-41141Y383308D01*
X-41192Y383416D01*
X-41247Y383521D01*
X-41305Y383626D01*
X-41367Y383728D01*
X-41432Y383828D01*
X-41500Y383926D01*
X-41571Y384022D01*
X-41646Y384115D01*
X-41723Y384206D01*
X-41803Y384294D01*
X-41887Y384379D01*
X-41972Y384462D01*
X-42061Y384542D01*
X-42152Y384619D01*
X-42246Y384693D01*
X-42342Y384764D01*
X-42440Y384832D01*
X-42540Y384896D01*
X-42643Y384958D01*
X-42747Y385015D01*
X-42853Y385070D01*
X-42961Y385121D01*
X-43071Y385168D01*
X-43182Y385212D01*
X-43294Y385252D01*
X-43408Y385288D01*
X-43522Y385321D01*
X-43638Y385350D01*
X-43755Y385375D01*
X-43872Y385396D01*
X-43990Y385414D01*
X-44109Y385427D01*
X-44228Y385437D01*
X-44347Y385443D01*
X-44466Y385445D01*
X-44585Y385443D01*
X-44704Y385437D01*
X-44823Y385427D01*
X-44942Y385414D01*
X-45060Y385396D01*
X-45177Y385375D01*
X-45294Y385350D01*
X-45410Y385321D01*
X-45524Y385288D01*
X-45638Y385252D01*
X-45750Y385212D01*
X-45861Y385168D01*
X-45971Y385121D01*
X-46079Y385070D01*
X-46185Y385015D01*
X-46289Y384958D01*
X-46392Y384896D01*
X-46492Y384832D01*
X-46590Y384764D01*
X-46686Y384693D01*
X-46780Y384619D01*
X-46871Y384542D01*
X-46960Y384462D01*
X-47046Y384379D01*
X-47129Y384294D01*
X-47209Y384206D01*
X-47286Y384115D01*
X-47361Y384022D01*
X-47432Y383926D01*
X-47500Y383828D01*
X-47565Y383728D01*
X-47627Y383626D01*
X-47685Y383521D01*
X-47740Y383415D01*
X-47791Y383308D01*
X-47839Y383198D01*
X-47883Y383088D01*
X-47923Y382975D01*
X-47923Y382976D02*
X-48073Y382659D01*
X-48215Y382340D01*
X-48349Y382017D01*
X-48476Y381691D01*
X-48594Y381361D01*
X-48705Y381030D01*
X-48808Y380695D01*
X-48903Y380359D01*
X-48989Y380020D01*
X-49068Y379679D01*
X-49139Y379336D01*
X-49201Y378992D01*
X-49255Y378647D01*
X-49301Y378300D01*
X-49338Y377952D01*
X-49367Y377603D01*
X-49388Y377254D01*
X-49401Y376905D01*
X-49405Y376555D01*
X-39528Y376555D02*
X-39532Y376205D01*
X-39545Y375856D01*
X-39566Y375507D01*
X-39595Y375158D01*
X-39632Y374810D01*
X-39678Y374463D01*
X-39732Y374118D01*
X-39794Y373774D01*
X-39865Y373431D01*
X-39944Y373090D01*
X-40030Y372751D01*
X-40125Y372415D01*
X-40228Y372080D01*
X-40339Y371749D01*
X-40457Y371420D01*
X-40584Y371093D01*
X-40718Y370770D01*
X-40860Y370451D01*
X-41010Y370135D01*
X-41009Y370135D02*
X-41049Y370022D01*
X-41093Y369912D01*
X-41141Y369802D01*
X-41192Y369694D01*
X-41247Y369588D01*
X-41305Y369484D01*
X-41367Y369382D01*
X-41432Y369282D01*
X-41500Y369184D01*
X-41571Y369088D01*
X-41646Y368995D01*
X-41723Y368904D01*
X-41803Y368816D01*
X-41887Y368731D01*
X-41972Y368648D01*
X-42061Y368568D01*
X-42152Y368491D01*
X-42246Y368417D01*
X-42342Y368346D01*
X-42440Y368278D01*
X-42540Y368214D01*
X-42643Y368152D01*
X-42747Y368094D01*
X-42853Y368040D01*
X-42961Y367989D01*
X-43071Y367942D01*
X-43182Y367898D01*
X-43294Y367858D01*
X-43408Y367822D01*
X-43522Y367789D01*
X-43638Y367760D01*
X-43755Y367735D01*
X-43872Y367714D01*
X-43990Y367696D01*
X-44109Y367683D01*
X-44228Y367673D01*
X-44347Y367667D01*
X-44466Y367665D01*
X-47923Y370135D02*
X-48073Y370451D01*
X-48215Y370770D01*
X-48349Y371093D01*
X-48476Y371420D01*
X-48594Y371749D01*
X-48705Y372080D01*
X-48808Y372415D01*
X-48903Y372751D01*
X-48989Y373090D01*
X-49068Y373431D01*
X-49139Y373774D01*
X-49201Y374118D01*
X-49255Y374463D01*
X-49301Y374810D01*
X-49338Y375158D01*
X-49367Y375507D01*
X-49388Y375856D01*
X-49401Y376205D01*
X-49405Y376555D01*
X-47923Y370135D02*
X-47883Y370022D01*
X-47839Y369912D01*
X-47791Y369802D01*
X-47740Y369695D01*
X-47685Y369589D01*
X-47627Y369484D01*
X-47565Y369382D01*
X-47500Y369282D01*
X-47432Y369184D01*
X-47361Y369088D01*
X-47286Y368995D01*
X-47209Y368904D01*
X-47129Y368816D01*
X-47046Y368731D01*
X-46960Y368648D01*
X-46871Y368568D01*
X-46780Y368491D01*
X-46686Y368417D01*
X-46590Y368346D01*
X-46492Y368278D01*
X-46392Y368214D01*
X-46289Y368152D01*
X-46185Y368095D01*
X-46079Y368040D01*
X-45971Y367989D01*
X-45861Y367942D01*
X-45750Y367898D01*
X-45638Y367858D01*
X-45524Y367822D01*
X-45410Y367789D01*
X-45294Y367760D01*
X-45177Y367735D01*
X-45060Y367714D01*
X-44942Y367696D01*
X-44823Y367683D01*
X-44704Y367673D01*
X-44585Y367667D01*
X-44466Y367665D01*
X-40515Y371616D02*
X-48418Y381494D01*
X-83619Y-293592D02*
X-80007Y-299848D01*
X-83619Y-293591D02*
X-83688Y-293476D01*
X-83760Y-293363D01*
X-83835Y-293253D01*
X-83914Y-293144D01*
X-83995Y-293038D01*
X-84080Y-292935D01*
X-84168Y-292834D01*
X-84259Y-292736D01*
X-84353Y-292640D01*
X-84449Y-292547D01*
X-84548Y-292457D01*
X-84650Y-292371D01*
X-84754Y-292287D01*
X-84861Y-292206D01*
X-84970Y-292129D01*
X-85082Y-292054D01*
X-85195Y-291983D01*
X-85311Y-291916D01*
X-85428Y-291852D01*
X-85548Y-291791D01*
X-85669Y-291734D01*
X-85791Y-291681D01*
X-85916Y-291631D01*
X-86041Y-291585D01*
X-86168Y-291543D01*
X-86297Y-291505D01*
X-86426Y-291470D01*
X-86556Y-291439D01*
X-86687Y-291412D01*
X-86819Y-291389D01*
X-86952Y-291370D01*
X-87085Y-291355D01*
X-87218Y-291344D01*
X-87352Y-291337D01*
X-87485Y-291333D01*
X-87619Y-291334D01*
X-87753Y-291339D01*
X-87887Y-291347D01*
X-88020Y-291360D01*
X-88153Y-291376D01*
X-88285Y-291397D01*
X-88416Y-291421D01*
X-88547Y-291449D01*
X-88677Y-291481D01*
X-88806Y-291517D01*
X-88934Y-291557D01*
X-89061Y-291600D01*
X-89186Y-291648D01*
X-89310Y-291698D01*
X-89432Y-291753D01*
X-89552Y-291811D01*
X-89671Y-291873D01*
X-89788Y-291938D01*
X-89903Y-292007D01*
X-90016Y-292079D01*
X-90126Y-292154D01*
X-90235Y-292233D01*
X-90341Y-292314D01*
X-90444Y-292399D01*
X-90545Y-292487D01*
X-90643Y-292578D01*
X-90739Y-292672D01*
X-90832Y-292768D01*
X-90922Y-292867D01*
X-91008Y-292969D01*
X-91092Y-293073D01*
X-91173Y-293180D01*
X-91250Y-293289D01*
X-91325Y-293401D01*
X-91396Y-293514D01*
X-91463Y-293630D01*
X-91527Y-293747D01*
X-91588Y-293867D01*
X-91645Y-293988D01*
X-91698Y-294110D01*
X-91748Y-294235D01*
X-91794Y-294360D01*
X-91836Y-294487D01*
X-91874Y-294616D01*
X-91909Y-294745D01*
X-91940Y-294875D01*
X-91967Y-295006D01*
X-91990Y-295138D01*
X-92009Y-295271D01*
X-92024Y-295404D01*
X-92035Y-295537D01*
X-92042Y-295671D01*
X-92046Y-295804D01*
X-92045Y-295938D01*
X-92040Y-296072D01*
X-92032Y-296206D01*
X-92019Y-296339D01*
X-92003Y-296472D01*
X-91982Y-296604D01*
X-91958Y-296735D01*
X-91930Y-296866D01*
X-91898Y-296996D01*
X-91862Y-297125D01*
X-91822Y-297253D01*
X-91779Y-297380D01*
X-91732Y-297505D01*
X-91681Y-297629D01*
X-91626Y-297751D01*
X-91568Y-297871D01*
X-91506Y-297990D01*
X-91441Y-298107D01*
X-91440Y-298107D02*
X-87828Y-304364D01*
X-87760Y-304478D01*
X-87689Y-304590D01*
X-87614Y-304699D01*
X-87536Y-304807D01*
X-87456Y-304912D01*
X-87372Y-305014D01*
X-87285Y-305115D01*
X-87195Y-305212D01*
X-87102Y-305307D01*
X-87007Y-305399D01*
X-86909Y-305489D01*
X-86809Y-305575D01*
X-86705Y-305658D01*
X-86600Y-305739D01*
X-86492Y-305816D01*
X-86382Y-305890D01*
X-86270Y-305961D01*
X-86156Y-306028D01*
X-86040Y-306092D01*
X-85922Y-306153D01*
X-85802Y-306210D01*
X-85681Y-306263D01*
X-85558Y-306313D01*
X-85434Y-306360D01*
X-85308Y-306402D01*
X-85182Y-306441D01*
X-85054Y-306477D01*
X-84925Y-306508D01*
X-84795Y-306536D01*
X-84665Y-306560D01*
X-84534Y-306580D01*
X-84402Y-306596D01*
X-84270Y-306608D01*
X-84138Y-306617D01*
X-84005Y-306621D01*
X-83873Y-306622D01*
X-83740Y-306619D01*
X-83608Y-306611D01*
X-83476Y-306600D01*
X-83344Y-306585D01*
X-83213Y-306567D01*
X-83082Y-306544D01*
X-82952Y-306518D01*
X-82823Y-306487D01*
X-82695Y-306453D01*
X-82568Y-306416D01*
X-82442Y-306374D01*
X-82317Y-306329D01*
X-82194Y-306280D01*
X-82072Y-306228D01*
X-81952Y-306172D01*
X-81833Y-306113D01*
X-81717Y-306050D01*
X-81602Y-305983D01*
X-81489Y-305914D01*
X-81378Y-305841D01*
X-81270Y-305765D01*
X-81163Y-305685D01*
X-81060Y-305603D01*
X-80958Y-305518D01*
X-80859Y-305429D01*
X-80763Y-305338D01*
X-80669Y-305244D01*
X-80579Y-305147D01*
X-80491Y-305048D01*
X-80406Y-304946D01*
X-80324Y-304842D01*
X-80245Y-304735D01*
X-80170Y-304626D01*
X-80097Y-304515D01*
X-80028Y-304402D01*
X-79963Y-304287D01*
X-79900Y-304170D01*
X-79841Y-304051D01*
X-79786Y-303931D01*
X-79734Y-303809D01*
X-79686Y-303685D01*
X-79642Y-303560D01*
X-79601Y-303434D01*
X-79564Y-303307D01*
X-79530Y-303178D01*
X-79501Y-303049D01*
X-79475Y-302919D01*
X-79453Y-302788D01*
X-79435Y-302657D01*
X-79421Y-302525D01*
X-79410Y-302393D01*
X-79404Y-302261D01*
X-79401Y-302128D01*
X-79402Y-301996D01*
X-79408Y-301863D01*
X-79417Y-301731D01*
X-79430Y-301599D01*
X-79446Y-301467D01*
X-79467Y-301336D01*
X-79492Y-301206D01*
X-79520Y-301076D01*
X-79552Y-300948D01*
X-79588Y-300820D01*
X-79628Y-300694D01*
X-79671Y-300568D01*
X-79718Y-300444D01*
X-79768Y-300322D01*
X-79823Y-300201D01*
X-79880Y-300081D01*
X-79941Y-299964D01*
X-80006Y-299848D01*
X-93995Y-307925D02*
X-99865Y-297757D01*
X-93995Y-307924D02*
X-93930Y-308040D01*
X-93869Y-308157D01*
X-93812Y-308277D01*
X-93757Y-308398D01*
X-93707Y-308520D01*
X-93660Y-308644D01*
X-93617Y-308770D01*
X-93577Y-308896D01*
X-93541Y-309024D01*
X-93509Y-309152D01*
X-93481Y-309282D01*
X-93456Y-309412D01*
X-93435Y-309543D01*
X-93419Y-309675D01*
X-93406Y-309807D01*
X-93397Y-309939D01*
X-93391Y-310072D01*
X-93390Y-310204D01*
X-93393Y-310337D01*
X-93399Y-310469D01*
X-93410Y-310601D01*
X-93424Y-310733D01*
X-93442Y-310864D01*
X-93464Y-310995D01*
X-93490Y-311125D01*
X-93519Y-311254D01*
X-93553Y-311383D01*
X-93590Y-311510D01*
X-93631Y-311636D01*
X-93675Y-311761D01*
X-93723Y-311885D01*
X-93775Y-312007D01*
X-93830Y-312127D01*
X-93889Y-312246D01*
X-93952Y-312363D01*
X-94017Y-312478D01*
X-94086Y-312591D01*
X-94159Y-312702D01*
X-94234Y-312811D01*
X-94313Y-312918D01*
X-94395Y-313022D01*
X-94480Y-313124D01*
X-94568Y-313223D01*
X-94658Y-313320D01*
X-94752Y-313414D01*
X-94848Y-313505D01*
X-94947Y-313594D01*
X-95049Y-313679D01*
X-95152Y-313761D01*
X-95259Y-313841D01*
X-95367Y-313917D01*
X-95478Y-313990D01*
X-95591Y-314059D01*
X-95706Y-314126D01*
X-95822Y-314189D01*
X-95941Y-314248D01*
X-96061Y-314304D01*
X-96183Y-314356D01*
X-96306Y-314405D01*
X-96431Y-314450D01*
X-96557Y-314492D01*
X-96684Y-314529D01*
X-96812Y-314563D01*
X-96941Y-314594D01*
X-97071Y-314620D01*
X-97202Y-314643D01*
X-97333Y-314661D01*
X-97465Y-314676D01*
X-97597Y-314687D01*
X-97729Y-314695D01*
X-97862Y-314698D01*
X-97994Y-314697D01*
X-98127Y-314693D01*
X-98259Y-314684D01*
X-98391Y-314672D01*
X-98523Y-314656D01*
X-98654Y-314636D01*
X-98784Y-314612D01*
X-98914Y-314584D01*
X-99043Y-314553D01*
X-99171Y-314517D01*
X-99297Y-314478D01*
X-99423Y-314436D01*
X-99547Y-314389D01*
X-99670Y-314339D01*
X-99791Y-314286D01*
X-99911Y-314229D01*
X-100029Y-314168D01*
X-100145Y-314104D01*
X-100259Y-314037D01*
X-100371Y-313966D01*
X-100481Y-313892D01*
X-100589Y-313815D01*
X-100694Y-313734D01*
X-100798Y-313651D01*
X-100898Y-313565D01*
X-100996Y-313475D01*
X-101091Y-313383D01*
X-101184Y-313288D01*
X-101274Y-313191D01*
X-101361Y-313090D01*
X-101445Y-312988D01*
X-101525Y-312883D01*
X-101603Y-312775D01*
X-101678Y-312666D01*
X-101749Y-312554D01*
X-101817Y-312440D01*
X-101816Y-312440D02*
X-107686Y-302273D01*
X-116862Y-307570D02*
X-108734Y-321648D01*
X-120772Y-309828D02*
X-112951Y-305312D01*
X-126116Y-312913D02*
X-117988Y-326991D01*
X-126116Y-312913D02*
X-130027Y-315171D01*
X-130027Y-315170D02*
X-130142Y-315239D01*
X-130255Y-315311D01*
X-130365Y-315386D01*
X-130474Y-315465D01*
X-130580Y-315546D01*
X-130683Y-315631D01*
X-130784Y-315719D01*
X-130882Y-315810D01*
X-130978Y-315904D01*
X-131071Y-316000D01*
X-131161Y-316099D01*
X-131248Y-316201D01*
X-131331Y-316305D01*
X-131412Y-316412D01*
X-131489Y-316521D01*
X-131564Y-316633D01*
X-131635Y-316746D01*
X-131702Y-316862D01*
X-131766Y-316979D01*
X-131827Y-317099D01*
X-131884Y-317220D01*
X-131937Y-317343D01*
X-131987Y-317467D01*
X-132033Y-317592D01*
X-132075Y-317719D01*
X-132113Y-317848D01*
X-132148Y-317977D01*
X-132179Y-318107D01*
X-132206Y-318238D01*
X-132229Y-318370D01*
X-132248Y-318503D01*
X-132263Y-318636D01*
X-132274Y-318769D01*
X-132281Y-318903D01*
X-132285Y-319036D01*
X-132284Y-319170D01*
X-132279Y-319304D01*
X-132271Y-319438D01*
X-132258Y-319571D01*
X-132242Y-319704D01*
X-132221Y-319836D01*
X-132197Y-319968D01*
X-132169Y-320098D01*
X-132137Y-320228D01*
X-132101Y-320357D01*
X-132061Y-320485D01*
X-132018Y-320612D01*
X-131970Y-320737D01*
X-131920Y-320861D01*
X-131865Y-320983D01*
X-131807Y-321103D01*
X-131745Y-321222D01*
X-131680Y-321339D01*
X-131611Y-321454D01*
X-131539Y-321567D01*
X-131464Y-321677D01*
X-131385Y-321786D01*
X-131304Y-321892D01*
X-131219Y-321995D01*
X-131131Y-322096D01*
X-131040Y-322194D01*
X-130946Y-322290D01*
X-130850Y-322383D01*
X-130751Y-322473D01*
X-130649Y-322560D01*
X-130545Y-322643D01*
X-130438Y-322724D01*
X-130329Y-322801D01*
X-130217Y-322876D01*
X-130104Y-322947D01*
X-129988Y-323014D01*
X-129871Y-323078D01*
X-129751Y-323139D01*
X-129630Y-323196D01*
X-129507Y-323249D01*
X-129383Y-323299D01*
X-129258Y-323345D01*
X-129131Y-323387D01*
X-129002Y-323425D01*
X-128873Y-323460D01*
X-128743Y-323491D01*
X-128612Y-323518D01*
X-128480Y-323541D01*
X-128347Y-323560D01*
X-128214Y-323575D01*
X-128081Y-323586D01*
X-127947Y-323593D01*
X-127814Y-323597D01*
X-127680Y-323596D01*
X-127546Y-323591D01*
X-127412Y-323583D01*
X-127279Y-323570D01*
X-127146Y-323554D01*
X-127014Y-323533D01*
X-126883Y-323509D01*
X-126752Y-323481D01*
X-126622Y-323449D01*
X-126493Y-323413D01*
X-126365Y-323373D01*
X-126238Y-323330D01*
X-126113Y-323282D01*
X-125989Y-323232D01*
X-125867Y-323177D01*
X-125747Y-323119D01*
X-125628Y-323057D01*
X-125511Y-322992D01*
X-121601Y-320734D01*
X-126293Y-323444D02*
X-125810Y-331507D01*
X-134727Y-329356D02*
X-144113Y-334774D01*
X104341Y-404750D02*
X107953Y-398494D01*
X107954Y-398494D02*
X108019Y-398377D01*
X108081Y-398258D01*
X108139Y-398138D01*
X108194Y-398016D01*
X108244Y-397892D01*
X108292Y-397767D01*
X108335Y-397640D01*
X108375Y-397512D01*
X108411Y-397383D01*
X108443Y-397253D01*
X108471Y-397122D01*
X108495Y-396991D01*
X108516Y-396859D01*
X108532Y-396726D01*
X108545Y-396593D01*
X108553Y-396459D01*
X108558Y-396325D01*
X108559Y-396191D01*
X108555Y-396058D01*
X108548Y-395924D01*
X108537Y-395791D01*
X108522Y-395658D01*
X108503Y-395525D01*
X108480Y-395393D01*
X108453Y-395262D01*
X108422Y-395132D01*
X108387Y-395003D01*
X108349Y-394874D01*
X108307Y-394747D01*
X108261Y-394622D01*
X108211Y-394498D01*
X108158Y-394375D01*
X108101Y-394254D01*
X108040Y-394134D01*
X107976Y-394017D01*
X107909Y-393901D01*
X107838Y-393788D01*
X107763Y-393676D01*
X107686Y-393567D01*
X107605Y-393460D01*
X107522Y-393356D01*
X107435Y-393254D01*
X107345Y-393155D01*
X107252Y-393059D01*
X107156Y-392965D01*
X107058Y-392874D01*
X106957Y-392786D01*
X106854Y-392701D01*
X106748Y-392620D01*
X106639Y-392541D01*
X106529Y-392466D01*
X106416Y-392394D01*
X106301Y-392325D01*
X106184Y-392260D01*
X106065Y-392198D01*
X105945Y-392140D01*
X105823Y-392085D01*
X105699Y-392035D01*
X105574Y-391987D01*
X105447Y-391944D01*
X105319Y-391904D01*
X105190Y-391868D01*
X105060Y-391836D01*
X104930Y-391808D01*
X104798Y-391784D01*
X104666Y-391763D01*
X104533Y-391747D01*
X104400Y-391734D01*
X104266Y-391726D01*
X104132Y-391721D01*
X103998Y-391720D01*
X103865Y-391724D01*
X103731Y-391731D01*
X103598Y-391742D01*
X103465Y-391757D01*
X103332Y-391776D01*
X103200Y-391799D01*
X103069Y-391826D01*
X102939Y-391857D01*
X102810Y-391892D01*
X102681Y-391930D01*
X102554Y-391972D01*
X102429Y-392018D01*
X102305Y-392068D01*
X102182Y-392121D01*
X102061Y-392178D01*
X101941Y-392239D01*
X101824Y-392303D01*
X101708Y-392370D01*
X101595Y-392441D01*
X101483Y-392516D01*
X101374Y-392593D01*
X101267Y-392674D01*
X101163Y-392757D01*
X101061Y-392844D01*
X100962Y-392934D01*
X100866Y-393027D01*
X100772Y-393123D01*
X100681Y-393221D01*
X100593Y-393322D01*
X100508Y-393425D01*
X100427Y-393531D01*
X100348Y-393640D01*
X100273Y-393750D01*
X100201Y-393863D01*
X100132Y-393978D01*
X96520Y-400235D01*
X96519Y-400235D02*
X96454Y-400352D01*
X96392Y-400471D01*
X96334Y-400591D01*
X96279Y-400713D01*
X96229Y-400837D01*
X96181Y-400962D01*
X96138Y-401089D01*
X96098Y-401217D01*
X96062Y-401346D01*
X96030Y-401476D01*
X96002Y-401607D01*
X95978Y-401738D01*
X95957Y-401870D01*
X95941Y-402003D01*
X95928Y-402136D01*
X95920Y-402270D01*
X95915Y-402404D01*
X95914Y-402538D01*
X95918Y-402671D01*
X95925Y-402805D01*
X95936Y-402938D01*
X95951Y-403071D01*
X95970Y-403204D01*
X95993Y-403336D01*
X96020Y-403467D01*
X96051Y-403597D01*
X96086Y-403726D01*
X96124Y-403855D01*
X96166Y-403982D01*
X96212Y-404107D01*
X96262Y-404232D01*
X96315Y-404354D01*
X96372Y-404475D01*
X96433Y-404595D01*
X96497Y-404712D01*
X96564Y-404828D01*
X96635Y-404941D01*
X96710Y-405053D01*
X96787Y-405162D01*
X96868Y-405269D01*
X96952Y-405373D01*
X97038Y-405475D01*
X97128Y-405574D01*
X97221Y-405670D01*
X97317Y-405764D01*
X97415Y-405855D01*
X97516Y-405943D01*
X97619Y-406028D01*
X97725Y-406109D01*
X97834Y-406188D01*
X97944Y-406263D01*
X98057Y-406335D01*
X98172Y-406404D01*
X98289Y-406469D01*
X98408Y-406531D01*
X98528Y-406589D01*
X98650Y-406644D01*
X98774Y-406694D01*
X98899Y-406742D01*
X99026Y-406785D01*
X99154Y-406825D01*
X99283Y-406861D01*
X99413Y-406893D01*
X99544Y-406921D01*
X99675Y-406945D01*
X99807Y-406966D01*
X99940Y-406982D01*
X100073Y-406995D01*
X100207Y-407003D01*
X100341Y-407008D01*
X100475Y-407009D01*
X100608Y-407005D01*
X100742Y-406998D01*
X100875Y-406987D01*
X101008Y-406972D01*
X101141Y-406953D01*
X101273Y-406930D01*
X101404Y-406903D01*
X101534Y-406872D01*
X101663Y-406837D01*
X101792Y-406799D01*
X101919Y-406757D01*
X102044Y-406711D01*
X102169Y-406661D01*
X102291Y-406608D01*
X102412Y-406551D01*
X102532Y-406490D01*
X102649Y-406426D01*
X102765Y-406359D01*
X102878Y-406288D01*
X102990Y-406213D01*
X103099Y-406136D01*
X103206Y-406055D01*
X103310Y-405971D01*
X103412Y-405885D01*
X103511Y-405795D01*
X103607Y-405702D01*
X103701Y-405606D01*
X103792Y-405508D01*
X103880Y-405407D01*
X103965Y-405304D01*
X104046Y-405198D01*
X104125Y-405089D01*
X104200Y-404979D01*
X104272Y-404866D01*
X104341Y-404751D01*
X90353Y-396674D02*
X96223Y-386507D01*
X90353Y-396675D02*
X90284Y-396790D01*
X90212Y-396903D01*
X90137Y-397013D01*
X90058Y-397122D01*
X89977Y-397228D01*
X89892Y-397331D01*
X89804Y-397432D01*
X89713Y-397530D01*
X89619Y-397626D01*
X89523Y-397719D01*
X89424Y-397809D01*
X89322Y-397895D01*
X89218Y-397979D01*
X89111Y-398060D01*
X89002Y-398137D01*
X88890Y-398212D01*
X88777Y-398283D01*
X88661Y-398350D01*
X88544Y-398414D01*
X88424Y-398475D01*
X88303Y-398532D01*
X88181Y-398585D01*
X88056Y-398635D01*
X87931Y-398681D01*
X87804Y-398723D01*
X87675Y-398761D01*
X87546Y-398796D01*
X87416Y-398827D01*
X87285Y-398854D01*
X87153Y-398877D01*
X87020Y-398896D01*
X86887Y-398911D01*
X86754Y-398922D01*
X86620Y-398929D01*
X86487Y-398933D01*
X86353Y-398932D01*
X86219Y-398927D01*
X86085Y-398919D01*
X85952Y-398906D01*
X85819Y-398890D01*
X85687Y-398869D01*
X85556Y-398845D01*
X85425Y-398817D01*
X85295Y-398785D01*
X85166Y-398749D01*
X85038Y-398709D01*
X84911Y-398666D01*
X84786Y-398618D01*
X84662Y-398568D01*
X84540Y-398513D01*
X84420Y-398455D01*
X84301Y-398393D01*
X84184Y-398328D01*
X84069Y-398259D01*
X83956Y-398187D01*
X83846Y-398112D01*
X83737Y-398033D01*
X83631Y-397952D01*
X83528Y-397867D01*
X83427Y-397779D01*
X83329Y-397688D01*
X83233Y-397594D01*
X83140Y-397498D01*
X83050Y-397399D01*
X82964Y-397297D01*
X82880Y-397193D01*
X82799Y-397086D01*
X82722Y-396977D01*
X82647Y-396865D01*
X82576Y-396752D01*
X82509Y-396636D01*
X82445Y-396519D01*
X82384Y-396399D01*
X82327Y-396278D01*
X82274Y-396156D01*
X82224Y-396031D01*
X82178Y-395906D01*
X82136Y-395779D01*
X82098Y-395650D01*
X82063Y-395521D01*
X82032Y-395391D01*
X82005Y-395260D01*
X81982Y-395128D01*
X81963Y-394995D01*
X81948Y-394862D01*
X81937Y-394729D01*
X81930Y-394595D01*
X81926Y-394462D01*
X81927Y-394328D01*
X81932Y-394194D01*
X81940Y-394060D01*
X81953Y-393927D01*
X81969Y-393794D01*
X81990Y-393662D01*
X82014Y-393531D01*
X82042Y-393400D01*
X82074Y-393270D01*
X82110Y-393141D01*
X82150Y-393013D01*
X82193Y-392886D01*
X82241Y-392761D01*
X82291Y-392637D01*
X82346Y-392515D01*
X82404Y-392395D01*
X82466Y-392276D01*
X82531Y-392159D01*
X88402Y-381991D01*
X79226Y-376694D02*
X71098Y-390772D01*
X83137Y-378952D02*
X75316Y-374436D01*
X70025Y-371382D02*
X61897Y-385460D01*
X55641Y-381847D01*
X53683Y-373417D02*
X44298Y-367999D01*
X-41145Y-368047D02*
X-44757Y-361791D01*
X-44757Y-361790D02*
X-44826Y-361675D01*
X-44898Y-361562D01*
X-44973Y-361452D01*
X-45052Y-361343D01*
X-45133Y-361237D01*
X-45218Y-361134D01*
X-45306Y-361033D01*
X-45397Y-360935D01*
X-45491Y-360839D01*
X-45587Y-360746D01*
X-45686Y-360656D01*
X-45788Y-360569D01*
X-45892Y-360486D01*
X-45999Y-360405D01*
X-46108Y-360328D01*
X-46220Y-360253D01*
X-46333Y-360182D01*
X-46449Y-360115D01*
X-46566Y-360051D01*
X-46686Y-359990D01*
X-46807Y-359933D01*
X-46930Y-359880D01*
X-47054Y-359830D01*
X-47179Y-359784D01*
X-47306Y-359742D01*
X-47435Y-359704D01*
X-47564Y-359669D01*
X-47694Y-359638D01*
X-47825Y-359611D01*
X-47957Y-359588D01*
X-48090Y-359569D01*
X-48223Y-359554D01*
X-48356Y-359543D01*
X-48490Y-359536D01*
X-48623Y-359532D01*
X-48757Y-359533D01*
X-48891Y-359538D01*
X-49025Y-359546D01*
X-49158Y-359559D01*
X-49291Y-359575D01*
X-49423Y-359596D01*
X-49554Y-359620D01*
X-49685Y-359648D01*
X-49815Y-359680D01*
X-49944Y-359716D01*
X-50072Y-359756D01*
X-50199Y-359799D01*
X-50324Y-359847D01*
X-50448Y-359897D01*
X-50570Y-359952D01*
X-50690Y-360010D01*
X-50809Y-360072D01*
X-50926Y-360137D01*
X-51041Y-360206D01*
X-51154Y-360278D01*
X-51264Y-360353D01*
X-51373Y-360432D01*
X-51479Y-360513D01*
X-51582Y-360598D01*
X-51683Y-360686D01*
X-51781Y-360777D01*
X-51877Y-360871D01*
X-51970Y-360967D01*
X-52060Y-361066D01*
X-52146Y-361168D01*
X-52230Y-361272D01*
X-52311Y-361379D01*
X-52388Y-361488D01*
X-52463Y-361600D01*
X-52534Y-361713D01*
X-52601Y-361829D01*
X-52665Y-361946D01*
X-52726Y-362066D01*
X-52783Y-362187D01*
X-52836Y-362309D01*
X-52886Y-362434D01*
X-52932Y-362559D01*
X-52974Y-362686D01*
X-53012Y-362815D01*
X-53047Y-362944D01*
X-53078Y-363074D01*
X-53105Y-363205D01*
X-53128Y-363337D01*
X-53147Y-363470D01*
X-53162Y-363603D01*
X-53173Y-363736D01*
X-53180Y-363870D01*
X-53184Y-364003D01*
X-53183Y-364137D01*
X-53178Y-364271D01*
X-53170Y-364405D01*
X-53157Y-364538D01*
X-53141Y-364671D01*
X-53120Y-364803D01*
X-53096Y-364934D01*
X-53068Y-365065D01*
X-53036Y-365195D01*
X-53000Y-365324D01*
X-52960Y-365452D01*
X-52917Y-365579D01*
X-52870Y-365704D01*
X-52819Y-365828D01*
X-52764Y-365950D01*
X-52706Y-366070D01*
X-52644Y-366189D01*
X-52579Y-366306D01*
X-52578Y-366306D02*
X-48966Y-372563D01*
X-48898Y-372677D01*
X-48827Y-372789D01*
X-48752Y-372898D01*
X-48674Y-373006D01*
X-48594Y-373111D01*
X-48510Y-373213D01*
X-48423Y-373314D01*
X-48333Y-373411D01*
X-48240Y-373506D01*
X-48145Y-373598D01*
X-48047Y-373688D01*
X-47947Y-373774D01*
X-47843Y-373857D01*
X-47738Y-373938D01*
X-47630Y-374015D01*
X-47520Y-374089D01*
X-47408Y-374160D01*
X-47294Y-374227D01*
X-47178Y-374291D01*
X-47060Y-374352D01*
X-46940Y-374409D01*
X-46819Y-374462D01*
X-46696Y-374512D01*
X-46572Y-374559D01*
X-46446Y-374601D01*
X-46320Y-374640D01*
X-46192Y-374676D01*
X-46063Y-374707D01*
X-45933Y-374735D01*
X-45803Y-374759D01*
X-45672Y-374779D01*
X-45540Y-374795D01*
X-45408Y-374807D01*
X-45276Y-374816D01*
X-45143Y-374820D01*
X-45011Y-374821D01*
X-44878Y-374818D01*
X-44746Y-374810D01*
X-44614Y-374799D01*
X-44482Y-374784D01*
X-44351Y-374766D01*
X-44220Y-374743D01*
X-44090Y-374717D01*
X-43961Y-374686D01*
X-43833Y-374652D01*
X-43706Y-374615D01*
X-43580Y-374573D01*
X-43455Y-374528D01*
X-43332Y-374479D01*
X-43210Y-374427D01*
X-43090Y-374371D01*
X-42971Y-374312D01*
X-42855Y-374249D01*
X-42740Y-374182D01*
X-42627Y-374113D01*
X-42516Y-374040D01*
X-42408Y-373964D01*
X-42301Y-373884D01*
X-42198Y-373802D01*
X-42096Y-373717D01*
X-41997Y-373628D01*
X-41901Y-373537D01*
X-41807Y-373443D01*
X-41717Y-373346D01*
X-41629Y-373247D01*
X-41544Y-373145D01*
X-41462Y-373041D01*
X-41383Y-372934D01*
X-41308Y-372825D01*
X-41235Y-372714D01*
X-41166Y-372601D01*
X-41101Y-372486D01*
X-41038Y-372369D01*
X-40979Y-372250D01*
X-40924Y-372130D01*
X-40872Y-372008D01*
X-40824Y-371884D01*
X-40780Y-371759D01*
X-40739Y-371633D01*
X-40702Y-371506D01*
X-40668Y-371377D01*
X-40639Y-371248D01*
X-40613Y-371118D01*
X-40591Y-370987D01*
X-40573Y-370856D01*
X-40559Y-370724D01*
X-40548Y-370592D01*
X-40542Y-370460D01*
X-40539Y-370327D01*
X-40540Y-370195D01*
X-40546Y-370062D01*
X-40555Y-369930D01*
X-40568Y-369798D01*
X-40584Y-369666D01*
X-40605Y-369535D01*
X-40630Y-369405D01*
X-40658Y-369275D01*
X-40690Y-369147D01*
X-40726Y-369019D01*
X-40766Y-368893D01*
X-40809Y-368767D01*
X-40856Y-368643D01*
X-40906Y-368521D01*
X-40961Y-368400D01*
X-41018Y-368280D01*
X-41079Y-368163D01*
X-41144Y-368047D01*
X-55133Y-376124D02*
X-61003Y-365956D01*
X-55133Y-376123D02*
X-55068Y-376239D01*
X-55007Y-376356D01*
X-54950Y-376476D01*
X-54895Y-376597D01*
X-54845Y-376719D01*
X-54798Y-376843D01*
X-54755Y-376969D01*
X-54715Y-377095D01*
X-54679Y-377223D01*
X-54647Y-377351D01*
X-54619Y-377481D01*
X-54594Y-377611D01*
X-54573Y-377742D01*
X-54557Y-377874D01*
X-54544Y-378006D01*
X-54535Y-378138D01*
X-54529Y-378271D01*
X-54528Y-378403D01*
X-54531Y-378536D01*
X-54537Y-378668D01*
X-54548Y-378800D01*
X-54562Y-378932D01*
X-54580Y-379063D01*
X-54602Y-379194D01*
X-54628Y-379324D01*
X-54657Y-379453D01*
X-54691Y-379582D01*
X-54728Y-379709D01*
X-54769Y-379835D01*
X-54813Y-379960D01*
X-54861Y-380084D01*
X-54913Y-380206D01*
X-54968Y-380326D01*
X-55027Y-380445D01*
X-55090Y-380562D01*
X-55155Y-380677D01*
X-55224Y-380790D01*
X-55297Y-380901D01*
X-55372Y-381010D01*
X-55451Y-381117D01*
X-55533Y-381221D01*
X-55618Y-381323D01*
X-55706Y-381422D01*
X-55796Y-381519D01*
X-55890Y-381613D01*
X-55986Y-381704D01*
X-56085Y-381793D01*
X-56187Y-381878D01*
X-56290Y-381960D01*
X-56397Y-382040D01*
X-56505Y-382116D01*
X-56616Y-382189D01*
X-56729Y-382258D01*
X-56844Y-382325D01*
X-56960Y-382388D01*
X-57079Y-382447D01*
X-57199Y-382503D01*
X-57321Y-382555D01*
X-57444Y-382604D01*
X-57569Y-382649D01*
X-57695Y-382691D01*
X-57822Y-382728D01*
X-57950Y-382762D01*
X-58079Y-382793D01*
X-58209Y-382819D01*
X-58340Y-382842D01*
X-58471Y-382860D01*
X-58603Y-382875D01*
X-58735Y-382886D01*
X-58867Y-382894D01*
X-59000Y-382897D01*
X-59132Y-382896D01*
X-59265Y-382892D01*
X-59397Y-382883D01*
X-59529Y-382871D01*
X-59661Y-382855D01*
X-59792Y-382835D01*
X-59922Y-382811D01*
X-60052Y-382783D01*
X-60181Y-382752D01*
X-60309Y-382716D01*
X-60435Y-382677D01*
X-60561Y-382635D01*
X-60685Y-382588D01*
X-60808Y-382538D01*
X-60929Y-382485D01*
X-61049Y-382428D01*
X-61167Y-382367D01*
X-61283Y-382303D01*
X-61397Y-382236D01*
X-61509Y-382165D01*
X-61619Y-382091D01*
X-61727Y-382014D01*
X-61832Y-381933D01*
X-61936Y-381850D01*
X-62036Y-381764D01*
X-62134Y-381674D01*
X-62229Y-381582D01*
X-62322Y-381487D01*
X-62412Y-381390D01*
X-62499Y-381289D01*
X-62583Y-381187D01*
X-62663Y-381082D01*
X-62741Y-380974D01*
X-62816Y-380865D01*
X-62887Y-380753D01*
X-62955Y-380639D01*
X-62954Y-380639D02*
X-68824Y-370472D01*
X-78000Y-375769D02*
X-69872Y-389847D01*
X-81910Y-378027D02*
X-74089Y-373511D01*
X-87254Y-381112D02*
X-79126Y-395190D01*
X-87254Y-381112D02*
X-91165Y-383370D01*
X-91165Y-383369D02*
X-91280Y-383438D01*
X-91393Y-383510D01*
X-91503Y-383585D01*
X-91612Y-383664D01*
X-91718Y-383745D01*
X-91821Y-383830D01*
X-91922Y-383918D01*
X-92020Y-384009D01*
X-92116Y-384103D01*
X-92209Y-384199D01*
X-92299Y-384298D01*
X-92386Y-384400D01*
X-92469Y-384504D01*
X-92550Y-384611D01*
X-92627Y-384720D01*
X-92702Y-384832D01*
X-92773Y-384945D01*
X-92840Y-385061D01*
X-92904Y-385178D01*
X-92965Y-385298D01*
X-93022Y-385419D01*
X-93075Y-385542D01*
X-93125Y-385666D01*
X-93171Y-385791D01*
X-93213Y-385918D01*
X-93251Y-386047D01*
X-93286Y-386176D01*
X-93317Y-386306D01*
X-93344Y-386437D01*
X-93367Y-386569D01*
X-93386Y-386702D01*
X-93401Y-386835D01*
X-93412Y-386968D01*
X-93419Y-387102D01*
X-93423Y-387235D01*
X-93422Y-387369D01*
X-93417Y-387503D01*
X-93409Y-387637D01*
X-93396Y-387770D01*
X-93380Y-387903D01*
X-93359Y-388035D01*
X-93335Y-388167D01*
X-93307Y-388297D01*
X-93275Y-388427D01*
X-93239Y-388556D01*
X-93199Y-388684D01*
X-93156Y-388811D01*
X-93108Y-388936D01*
X-93058Y-389060D01*
X-93003Y-389182D01*
X-92945Y-389302D01*
X-92883Y-389421D01*
X-92818Y-389538D01*
X-92749Y-389653D01*
X-92677Y-389766D01*
X-92602Y-389876D01*
X-92523Y-389985D01*
X-92442Y-390091D01*
X-92357Y-390194D01*
X-92269Y-390295D01*
X-92178Y-390393D01*
X-92084Y-390489D01*
X-91988Y-390582D01*
X-91889Y-390672D01*
X-91787Y-390759D01*
X-91683Y-390842D01*
X-91576Y-390923D01*
X-91467Y-391000D01*
X-91355Y-391075D01*
X-91242Y-391146D01*
X-91126Y-391213D01*
X-91009Y-391277D01*
X-90889Y-391338D01*
X-90768Y-391395D01*
X-90645Y-391448D01*
X-90521Y-391498D01*
X-90396Y-391544D01*
X-90269Y-391586D01*
X-90140Y-391624D01*
X-90011Y-391659D01*
X-89881Y-391690D01*
X-89750Y-391717D01*
X-89618Y-391740D01*
X-89485Y-391759D01*
X-89352Y-391774D01*
X-89219Y-391785D01*
X-89085Y-391792D01*
X-88952Y-391796D01*
X-88818Y-391795D01*
X-88684Y-391790D01*
X-88550Y-391782D01*
X-88417Y-391769D01*
X-88284Y-391753D01*
X-88152Y-391732D01*
X-88021Y-391708D01*
X-87890Y-391680D01*
X-87760Y-391648D01*
X-87631Y-391612D01*
X-87503Y-391572D01*
X-87376Y-391529D01*
X-87251Y-391481D01*
X-87127Y-391431D01*
X-87005Y-391376D01*
X-86885Y-391318D01*
X-86766Y-391256D01*
X-86649Y-391191D01*
X-82739Y-388933D01*
X-87431Y-391643D02*
X-86948Y-399706D01*
X-95865Y-397555D02*
X-105251Y-402973D01*
X-97849Y-404957D02*
X-103267Y-395571D01*
X-10866Y-424815D02*
X-6350Y-428427D01*
X-10866Y-424815D02*
X-10866Y-441071D01*
X-15381Y-441071D02*
X-6350Y-441071D01*
X-26948Y-424815D02*
X-27073Y-424817D01*
X-27198Y-424823D01*
X-27323Y-424832D01*
X-27447Y-424846D01*
X-27571Y-424863D01*
X-27695Y-424884D01*
X-27817Y-424909D01*
X-27939Y-424938D01*
X-28060Y-424970D01*
X-28180Y-425006D01*
X-28299Y-425046D01*
X-28416Y-425089D01*
X-28532Y-425136D01*
X-28647Y-425187D01*
X-28759Y-425241D01*
X-28871Y-425299D01*
X-28980Y-425359D01*
X-29087Y-425424D01*
X-29193Y-425491D01*
X-29296Y-425562D01*
X-29397Y-425636D01*
X-29496Y-425713D01*
X-29592Y-425793D01*
X-29686Y-425876D01*
X-29777Y-425961D01*
X-29866Y-426050D01*
X-29951Y-426141D01*
X-30034Y-426235D01*
X-30114Y-426331D01*
X-30191Y-426430D01*
X-30265Y-426531D01*
X-30336Y-426634D01*
X-30403Y-426740D01*
X-30468Y-426847D01*
X-30528Y-426956D01*
X-30586Y-427068D01*
X-30640Y-427180D01*
X-30691Y-427295D01*
X-30738Y-427411D01*
X-30781Y-427528D01*
X-30821Y-427647D01*
X-30857Y-427767D01*
X-30889Y-427888D01*
X-30918Y-428010D01*
X-30943Y-428132D01*
X-30964Y-428256D01*
X-30981Y-428380D01*
X-30995Y-428504D01*
X-31004Y-428629D01*
X-31010Y-428754D01*
X-31012Y-428879D01*
X-26948Y-424815D02*
X-26805Y-424817D01*
X-26663Y-424823D01*
X-26520Y-424833D01*
X-26378Y-424846D01*
X-26237Y-424864D01*
X-26095Y-424885D01*
X-25955Y-424910D01*
X-25815Y-424939D01*
X-25676Y-424972D01*
X-25538Y-425009D01*
X-25401Y-425049D01*
X-25266Y-425093D01*
X-25131Y-425141D01*
X-24998Y-425193D01*
X-24866Y-425248D01*
X-24736Y-425307D01*
X-24608Y-425369D01*
X-24481Y-425435D01*
X-24356Y-425504D01*
X-24233Y-425576D01*
X-24112Y-425652D01*
X-23994Y-425731D01*
X-23877Y-425814D01*
X-23763Y-425899D01*
X-23651Y-425988D01*
X-23542Y-426079D01*
X-23435Y-426174D01*
X-23330Y-426271D01*
X-23229Y-426372D01*
X-23130Y-426475D01*
X-23034Y-426580D01*
X-22941Y-426689D01*
X-22851Y-426800D01*
X-22764Y-426913D01*
X-22680Y-427028D01*
X-22600Y-427146D01*
X-22522Y-427266D01*
X-22448Y-427388D01*
X-22378Y-427512D01*
X-22310Y-427638D01*
X-22247Y-427766D01*
X-22186Y-427895D01*
X-22129Y-428026D01*
X-22076Y-428158D01*
X-22027Y-428292D01*
X-21981Y-428427D01*
X-29657Y-432040D02*
X-29751Y-431948D01*
X-29841Y-431854D01*
X-29929Y-431757D01*
X-30014Y-431657D01*
X-30096Y-431555D01*
X-30174Y-431450D01*
X-30250Y-431343D01*
X-30322Y-431234D01*
X-30391Y-431123D01*
X-30457Y-431009D01*
X-30519Y-430894D01*
X-30578Y-430777D01*
X-30633Y-430658D01*
X-30684Y-430538D01*
X-30732Y-430416D01*
X-30777Y-430293D01*
X-30817Y-430169D01*
X-30854Y-430043D01*
X-30887Y-429916D01*
X-30916Y-429789D01*
X-30942Y-429660D01*
X-30963Y-429531D01*
X-30981Y-429401D01*
X-30994Y-429271D01*
X-31004Y-429141D01*
X-31010Y-429010D01*
X-31012Y-428879D01*
X-29658Y-432040D02*
X-21981Y-441071D01*
X-31012Y-441071D01*
X-42128Y-441071D02*
X-36709Y-424815D01*
X-47547Y-424815D02*
X-42128Y-441071D01*
X38467Y-432802D02*
X41176Y-432802D01*
X38467Y-432802D02*
X38467Y-441833D01*
X43886Y-441833D01*
X44004Y-441831D01*
X44122Y-441825D01*
X44240Y-441816D01*
X44357Y-441802D01*
X44474Y-441785D01*
X44591Y-441764D01*
X44706Y-441739D01*
X44821Y-441710D01*
X44935Y-441677D01*
X45047Y-441641D01*
X45158Y-441601D01*
X45268Y-441558D01*
X45377Y-441511D01*
X45484Y-441461D01*
X45589Y-441406D01*
X45692Y-441349D01*
X45793Y-441288D01*
X45893Y-441224D01*
X45990Y-441157D01*
X46085Y-441087D01*
X46177Y-441013D01*
X46268Y-440937D01*
X46355Y-440857D01*
X46440Y-440775D01*
X46522Y-440690D01*
X46602Y-440603D01*
X46678Y-440512D01*
X46752Y-440420D01*
X46822Y-440325D01*
X46889Y-440228D01*
X46953Y-440128D01*
X47014Y-440027D01*
X47071Y-439924D01*
X47126Y-439819D01*
X47176Y-439712D01*
X47223Y-439603D01*
X47266Y-439493D01*
X47306Y-439382D01*
X47342Y-439270D01*
X47375Y-439156D01*
X47404Y-439041D01*
X47429Y-438926D01*
X47450Y-438809D01*
X47467Y-438692D01*
X47481Y-438575D01*
X47490Y-438457D01*
X47496Y-438339D01*
X47498Y-438221D01*
X47498Y-429189D01*
X47499Y-429189D02*
X47497Y-429071D01*
X47491Y-428953D01*
X47482Y-428835D01*
X47468Y-428717D01*
X47451Y-428600D01*
X47430Y-428484D01*
X47405Y-428369D01*
X47376Y-428254D01*
X47343Y-428140D01*
X47307Y-428028D01*
X47267Y-427916D01*
X47224Y-427806D01*
X47177Y-427698D01*
X47126Y-427591D01*
X47072Y-427486D01*
X47015Y-427383D01*
X46954Y-427281D01*
X46890Y-427182D01*
X46823Y-427085D01*
X46752Y-426990D01*
X46679Y-426897D01*
X46602Y-426807D01*
X46523Y-426719D01*
X46441Y-426634D01*
X46356Y-426552D01*
X46268Y-426473D01*
X46178Y-426396D01*
X46085Y-426323D01*
X45991Y-426252D01*
X45893Y-426185D01*
X45794Y-426121D01*
X45693Y-426060D01*
X45589Y-426003D01*
X45484Y-425949D01*
X45377Y-425898D01*
X45269Y-425851D01*
X45159Y-425808D01*
X45047Y-425768D01*
X44935Y-425732D01*
X44821Y-425699D01*
X44706Y-425670D01*
X44591Y-425645D01*
X44475Y-425624D01*
X44358Y-425607D01*
X44240Y-425593D01*
X44122Y-425584D01*
X44004Y-425578D01*
X43886Y-425576D01*
X43886Y-425577D02*
X38467Y-425577D01*
X30825Y-425577D02*
X30825Y-441833D01*
X21794Y-441833D02*
X30825Y-425577D01*
X21794Y-425577D02*
X21794Y-441833D01*
X14151Y-441833D02*
X14151Y-425577D01*
X9636Y-425577D01*
X9505Y-425579D01*
X9373Y-425585D01*
X9242Y-425594D01*
X9112Y-425608D01*
X8981Y-425625D01*
X8852Y-425646D01*
X8723Y-425670D01*
X8595Y-425699D01*
X8467Y-425731D01*
X8341Y-425767D01*
X8216Y-425806D01*
X8091Y-425849D01*
X7969Y-425896D01*
X7847Y-425946D01*
X7727Y-426000D01*
X7609Y-426057D01*
X7493Y-426118D01*
X7378Y-426182D01*
X7265Y-426249D01*
X7154Y-426320D01*
X7046Y-426394D01*
X6939Y-426471D01*
X6835Y-426551D01*
X6733Y-426634D01*
X6634Y-426719D01*
X6537Y-426808D01*
X6443Y-426900D01*
X6351Y-426994D01*
X6262Y-427091D01*
X6177Y-427190D01*
X6094Y-427292D01*
X6014Y-427396D01*
X5937Y-427503D01*
X5863Y-427611D01*
X5792Y-427722D01*
X5725Y-427835D01*
X5661Y-427950D01*
X5600Y-428066D01*
X5543Y-428184D01*
X5489Y-428304D01*
X5439Y-428426D01*
X5392Y-428548D01*
X5349Y-428673D01*
X5310Y-428798D01*
X5274Y-428924D01*
X5242Y-429052D01*
X5213Y-429180D01*
X5189Y-429309D01*
X5168Y-429438D01*
X5151Y-429569D01*
X5137Y-429699D01*
X5128Y-429830D01*
X5122Y-429962D01*
X5120Y-430093D01*
X5120Y-437317D01*
X5122Y-437448D01*
X5128Y-437580D01*
X5137Y-437711D01*
X5151Y-437841D01*
X5168Y-437972D01*
X5189Y-438101D01*
X5213Y-438230D01*
X5242Y-438358D01*
X5274Y-438486D01*
X5310Y-438612D01*
X5349Y-438737D01*
X5392Y-438862D01*
X5439Y-438984D01*
X5489Y-439106D01*
X5543Y-439226D01*
X5600Y-439344D01*
X5661Y-439460D01*
X5725Y-439575D01*
X5792Y-439688D01*
X5863Y-439799D01*
X5937Y-439907D01*
X6014Y-440014D01*
X6094Y-440118D01*
X6177Y-440220D01*
X6262Y-440319D01*
X6351Y-440416D01*
X6443Y-440510D01*
X6537Y-440602D01*
X6634Y-440691D01*
X6733Y-440776D01*
X6835Y-440859D01*
X6939Y-440939D01*
X7046Y-441016D01*
X7154Y-441090D01*
X7265Y-441161D01*
X7378Y-441228D01*
X7493Y-441292D01*
X7609Y-441353D01*
X7727Y-441410D01*
X7847Y-441464D01*
X7969Y-441514D01*
X8091Y-441561D01*
X8216Y-441604D01*
X8341Y-441643D01*
X8467Y-441679D01*
X8595Y-441711D01*
X8723Y-441740D01*
X8852Y-441764D01*
X8982Y-441785D01*
X9112Y-441802D01*
X9242Y-441816D01*
X9373Y-441825D01*
X9505Y-441831D01*
X9636Y-441833D01*
X14151Y-441833D01*
D11*
X79215Y179441D02*
X80901Y180414D01*
X79215Y179441D02*
X82460Y173819D01*
X85833Y175767D01*
X85918Y175818D01*
X86001Y175873D01*
X86082Y175931D01*
X86161Y175991D01*
X86237Y176055D01*
X86311Y176122D01*
X86382Y176191D01*
X86451Y176263D01*
X86517Y176338D01*
X86579Y176415D01*
X86639Y176495D01*
X86696Y176576D01*
X86749Y176660D01*
X86800Y176746D01*
X86847Y176834D01*
X86890Y176923D01*
X86930Y177014D01*
X86967Y177106D01*
X87000Y177200D01*
X87029Y177295D01*
X87055Y177391D01*
X87077Y177488D01*
X87095Y177586D01*
X87110Y177684D01*
X87121Y177783D01*
X87128Y177882D01*
X87131Y177982D01*
X87130Y178081D01*
X87126Y178181D01*
X87117Y178280D01*
X87105Y178379D01*
X87090Y178477D01*
X87070Y178574D01*
X87047Y178671D01*
X87020Y178767D01*
X86989Y178861D01*
X86955Y178955D01*
X86917Y179047D01*
X86876Y179137D01*
X86831Y179226D01*
X86783Y179313D01*
X86784Y179313D02*
X83538Y184935D01*
X83537Y184935D02*
X83486Y185020D01*
X83431Y185103D01*
X83374Y185184D01*
X83313Y185263D01*
X83249Y185339D01*
X83182Y185413D01*
X83113Y185484D01*
X83041Y185553D01*
X82966Y185619D01*
X82889Y185681D01*
X82810Y185741D01*
X82728Y185798D01*
X82644Y185851D01*
X82558Y185902D01*
X82471Y185949D01*
X82381Y185992D01*
X82290Y186032D01*
X82198Y186069D01*
X82104Y186102D01*
X82009Y186131D01*
X81913Y186157D01*
X81816Y186179D01*
X81718Y186197D01*
X81620Y186212D01*
X81521Y186223D01*
X81422Y186230D01*
X81322Y186233D01*
X81223Y186232D01*
X81123Y186228D01*
X81024Y186219D01*
X80926Y186207D01*
X80827Y186192D01*
X80730Y186172D01*
X80633Y186149D01*
X80537Y186122D01*
X80443Y186091D01*
X80349Y186057D01*
X80257Y186019D01*
X80167Y185978D01*
X80078Y185933D01*
X79991Y185885D01*
X76618Y183938D01*
X71681Y181088D02*
X77523Y170969D01*
X71902Y167723D02*
X71681Y181088D01*
X66060Y177842D02*
X71902Y167723D01*
X66965Y164873D02*
X61123Y174992D01*
X58312Y173369D01*
X58215Y173311D01*
X58120Y173249D01*
X58027Y173184D01*
X57937Y173116D01*
X57849Y173045D01*
X57763Y172970D01*
X57680Y172893D01*
X57600Y172813D01*
X57523Y172730D01*
X57448Y172644D01*
X57377Y172556D01*
X57309Y172466D01*
X57244Y172373D01*
X57182Y172278D01*
X57124Y172181D01*
X57069Y172082D01*
X57018Y171981D01*
X56970Y171878D01*
X56925Y171774D01*
X56885Y171668D01*
X56848Y171561D01*
X56815Y171453D01*
X56785Y171343D01*
X56760Y171233D01*
X56738Y171122D01*
X56721Y171010D01*
X56707Y170897D01*
X56697Y170784D01*
X56691Y170671D01*
X56689Y170558D01*
X56691Y170445D01*
X56697Y170332D01*
X56707Y170219D01*
X56721Y170106D01*
X56738Y169994D01*
X56760Y169883D01*
X56785Y169773D01*
X56815Y169663D01*
X56848Y169555D01*
X56885Y169448D01*
X56925Y169342D01*
X56970Y169238D01*
X57017Y169135D01*
X57069Y169034D01*
X57124Y168935D01*
X59721Y164438D01*
X59720Y164438D02*
X59778Y164341D01*
X59840Y164246D01*
X59905Y164153D01*
X59973Y164063D01*
X60044Y163975D01*
X60119Y163889D01*
X60196Y163806D01*
X60276Y163726D01*
X60359Y163649D01*
X60445Y163574D01*
X60533Y163503D01*
X60623Y163435D01*
X60716Y163370D01*
X60811Y163308D01*
X60908Y163250D01*
X61007Y163195D01*
X61108Y163144D01*
X61211Y163096D01*
X61315Y163051D01*
X61421Y163011D01*
X61528Y162974D01*
X61636Y162941D01*
X61746Y162911D01*
X61856Y162886D01*
X61967Y162864D01*
X62079Y162847D01*
X62192Y162833D01*
X62305Y162823D01*
X62418Y162817D01*
X62531Y162815D01*
X62644Y162817D01*
X62757Y162823D01*
X62870Y162833D01*
X62983Y162847D01*
X63095Y162864D01*
X63206Y162886D01*
X63316Y162911D01*
X63426Y162941D01*
X63534Y162974D01*
X63641Y163011D01*
X63747Y163051D01*
X63851Y163096D01*
X63954Y163144D01*
X64055Y163195D01*
X64154Y163250D01*
X66965Y164873D01*
X-144578Y289498D02*
X-144578Y291445D01*
X-151069Y291445D01*
X-151069Y287550D01*
X-151067Y287451D01*
X-151061Y287351D01*
X-151052Y287252D01*
X-151039Y287154D01*
X-151022Y287056D01*
X-151001Y286958D01*
X-150976Y286862D01*
X-150948Y286767D01*
X-150916Y286673D01*
X-150881Y286580D01*
X-150842Y286488D01*
X-150799Y286398D01*
X-150754Y286310D01*
X-150704Y286223D01*
X-150652Y286139D01*
X-150596Y286056D01*
X-150538Y285976D01*
X-150476Y285898D01*
X-150411Y285823D01*
X-150343Y285750D01*
X-150273Y285680D01*
X-150200Y285612D01*
X-150125Y285547D01*
X-150047Y285485D01*
X-149967Y285427D01*
X-149884Y285371D01*
X-149800Y285319D01*
X-149713Y285269D01*
X-149625Y285224D01*
X-149535Y285181D01*
X-149443Y285142D01*
X-149350Y285107D01*
X-149256Y285075D01*
X-149161Y285047D01*
X-149065Y285022D01*
X-148967Y285001D01*
X-148869Y284984D01*
X-148771Y284971D01*
X-148672Y284962D01*
X-148572Y284956D01*
X-148473Y284954D01*
X-141982Y284954D01*
X-141883Y284956D01*
X-141783Y284962D01*
X-141684Y284971D01*
X-141586Y284984D01*
X-141488Y285002D01*
X-141390Y285022D01*
X-141294Y285047D01*
X-141198Y285075D01*
X-141104Y285107D01*
X-141011Y285142D01*
X-140920Y285181D01*
X-140830Y285224D01*
X-140741Y285269D01*
X-140655Y285319D01*
X-140570Y285371D01*
X-140488Y285427D01*
X-140408Y285486D01*
X-140330Y285547D01*
X-140254Y285612D01*
X-140181Y285680D01*
X-140111Y285750D01*
X-140043Y285823D01*
X-139978Y285899D01*
X-139917Y285977D01*
X-139858Y286057D01*
X-139802Y286139D01*
X-139750Y286224D01*
X-139701Y286310D01*
X-139655Y286399D01*
X-139612Y286489D01*
X-139573Y286580D01*
X-139538Y286673D01*
X-139506Y286767D01*
X-139478Y286863D01*
X-139453Y286959D01*
X-139433Y287057D01*
X-139415Y287155D01*
X-139402Y287253D01*
X-139393Y287352D01*
X-139387Y287451D01*
X-139385Y287551D01*
X-139385Y287550D02*
X-139385Y291445D01*
X-139385Y297146D02*
X-151069Y297146D01*
X-151069Y303637D02*
X-139385Y297146D01*
X-139385Y303637D02*
X-151069Y303637D01*
X-151069Y309338D02*
X-139385Y309338D01*
X-139385Y312583D01*
X-139387Y312696D01*
X-139393Y312809D01*
X-139403Y312922D01*
X-139417Y313035D01*
X-139434Y313147D01*
X-139456Y313258D01*
X-139481Y313368D01*
X-139511Y313478D01*
X-139544Y313586D01*
X-139581Y313693D01*
X-139621Y313799D01*
X-139666Y313903D01*
X-139714Y314006D01*
X-139765Y314107D01*
X-139820Y314206D01*
X-139878Y314303D01*
X-139940Y314398D01*
X-140005Y314491D01*
X-140073Y314581D01*
X-140144Y314669D01*
X-140219Y314755D01*
X-140296Y314838D01*
X-140376Y314918D01*
X-140459Y314995D01*
X-140545Y315070D01*
X-140633Y315141D01*
X-140723Y315209D01*
X-140816Y315274D01*
X-140911Y315336D01*
X-141008Y315394D01*
X-141107Y315449D01*
X-141208Y315500D01*
X-141311Y315548D01*
X-141415Y315593D01*
X-141521Y315633D01*
X-141628Y315670D01*
X-141736Y315703D01*
X-141846Y315733D01*
X-141956Y315758D01*
X-142067Y315780D01*
X-142179Y315797D01*
X-142292Y315811D01*
X-142405Y315821D01*
X-142518Y315827D01*
X-142631Y315829D01*
X-147824Y315829D01*
X-147824Y315830D02*
X-147937Y315828D01*
X-148050Y315822D01*
X-148163Y315812D01*
X-148276Y315798D01*
X-148388Y315781D01*
X-148499Y315759D01*
X-148609Y315734D01*
X-148719Y315704D01*
X-148827Y315671D01*
X-148934Y315634D01*
X-149040Y315594D01*
X-149144Y315549D01*
X-149247Y315501D01*
X-149348Y315450D01*
X-149447Y315395D01*
X-149544Y315337D01*
X-149639Y315275D01*
X-149732Y315210D01*
X-149822Y315142D01*
X-149910Y315071D01*
X-149996Y314996D01*
X-150079Y314919D01*
X-150159Y314839D01*
X-150236Y314756D01*
X-150311Y314670D01*
X-150382Y314582D01*
X-150450Y314492D01*
X-150515Y314399D01*
X-150577Y314304D01*
X-150635Y314207D01*
X-150690Y314108D01*
X-150741Y314007D01*
X-150789Y313904D01*
X-150834Y313800D01*
X-150874Y313694D01*
X-150911Y313587D01*
X-150944Y313479D01*
X-150974Y313369D01*
X-150999Y313259D01*
X-151021Y313148D01*
X-151038Y313036D01*
X-151052Y312923D01*
X-151062Y312810D01*
X-151068Y312697D01*
X-151070Y312584D01*
X-151069Y312583D02*
X-151069Y309338D01*
X144220Y289413D02*
X144220Y287466D01*
X144220Y289413D02*
X137729Y289413D01*
X137729Y285518D01*
X137731Y285419D01*
X137737Y285319D01*
X137746Y285220D01*
X137759Y285122D01*
X137776Y285024D01*
X137797Y284926D01*
X137822Y284830D01*
X137850Y284735D01*
X137882Y284641D01*
X137917Y284548D01*
X137956Y284456D01*
X137999Y284366D01*
X138044Y284278D01*
X138094Y284191D01*
X138146Y284107D01*
X138202Y284024D01*
X138260Y283944D01*
X138322Y283866D01*
X138387Y283791D01*
X138455Y283718D01*
X138525Y283648D01*
X138598Y283580D01*
X138673Y283515D01*
X138751Y283453D01*
X138831Y283395D01*
X138914Y283339D01*
X138998Y283287D01*
X139085Y283237D01*
X139173Y283192D01*
X139263Y283149D01*
X139355Y283110D01*
X139448Y283075D01*
X139542Y283043D01*
X139637Y283015D01*
X139733Y282990D01*
X139831Y282969D01*
X139929Y282952D01*
X140027Y282939D01*
X140126Y282930D01*
X140226Y282924D01*
X140325Y282922D01*
X146816Y282922D01*
X146915Y282924D01*
X147015Y282930D01*
X147114Y282939D01*
X147212Y282952D01*
X147310Y282969D01*
X147408Y282990D01*
X147504Y283015D01*
X147599Y283043D01*
X147693Y283075D01*
X147786Y283110D01*
X147878Y283149D01*
X147968Y283192D01*
X148056Y283237D01*
X148143Y283287D01*
X148227Y283339D01*
X148310Y283395D01*
X148390Y283453D01*
X148468Y283515D01*
X148543Y283580D01*
X148616Y283648D01*
X148686Y283718D01*
X148754Y283791D01*
X148819Y283866D01*
X148881Y283944D01*
X148939Y284024D01*
X148995Y284107D01*
X149047Y284191D01*
X149097Y284278D01*
X149142Y284366D01*
X149185Y284456D01*
X149224Y284548D01*
X149259Y284640D01*
X149291Y284735D01*
X149319Y284830D01*
X149344Y284926D01*
X149365Y285024D01*
X149382Y285122D01*
X149395Y285220D01*
X149404Y285319D01*
X149410Y285419D01*
X149412Y285518D01*
X149413Y285518D02*
X149413Y289413D01*
X149413Y295114D02*
X137729Y295114D01*
X137729Y301605D02*
X149413Y295114D01*
X149413Y301605D02*
X137729Y301605D01*
X137729Y307306D02*
X149413Y307306D01*
X149413Y310551D01*
X149411Y310664D01*
X149405Y310777D01*
X149395Y310890D01*
X149381Y311003D01*
X149364Y311115D01*
X149342Y311226D01*
X149317Y311336D01*
X149287Y311446D01*
X149254Y311554D01*
X149217Y311661D01*
X149177Y311767D01*
X149132Y311871D01*
X149084Y311974D01*
X149033Y312075D01*
X148978Y312174D01*
X148920Y312271D01*
X148858Y312366D01*
X148793Y312459D01*
X148725Y312549D01*
X148654Y312637D01*
X148579Y312723D01*
X148502Y312806D01*
X148422Y312886D01*
X148339Y312963D01*
X148253Y313038D01*
X148165Y313109D01*
X148075Y313177D01*
X147982Y313242D01*
X147887Y313304D01*
X147790Y313362D01*
X147691Y313417D01*
X147590Y313468D01*
X147487Y313516D01*
X147383Y313561D01*
X147277Y313601D01*
X147170Y313638D01*
X147062Y313671D01*
X146952Y313701D01*
X146842Y313726D01*
X146731Y313748D01*
X146619Y313765D01*
X146506Y313779D01*
X146393Y313789D01*
X146280Y313795D01*
X146167Y313797D01*
X140974Y313797D01*
X140861Y313795D01*
X140748Y313789D01*
X140635Y313779D01*
X140522Y313765D01*
X140410Y313748D01*
X140299Y313726D01*
X140189Y313701D01*
X140079Y313671D01*
X139971Y313638D01*
X139864Y313601D01*
X139758Y313561D01*
X139654Y313516D01*
X139551Y313468D01*
X139450Y313417D01*
X139351Y313362D01*
X139254Y313304D01*
X139159Y313242D01*
X139066Y313177D01*
X138976Y313109D01*
X138888Y313038D01*
X138802Y312963D01*
X138719Y312886D01*
X138639Y312806D01*
X138562Y312723D01*
X138487Y312637D01*
X138416Y312549D01*
X138348Y312459D01*
X138283Y312366D01*
X138221Y312271D01*
X138163Y312174D01*
X138108Y312075D01*
X138057Y311974D01*
X138009Y311871D01*
X137964Y311767D01*
X137924Y311661D01*
X137887Y311554D01*
X137854Y311446D01*
X137824Y311336D01*
X137799Y311226D01*
X137777Y311115D01*
X137760Y311003D01*
X137746Y310890D01*
X137736Y310777D01*
X137730Y310664D01*
X137728Y310551D01*
X137729Y310551D02*
X137729Y307306D01*
X-142038Y-8783D02*
X-142038Y-10730D01*
X-142038Y-8783D02*
X-148529Y-8783D01*
X-148529Y-12678D01*
X-148527Y-12777D01*
X-148521Y-12877D01*
X-148512Y-12976D01*
X-148499Y-13074D01*
X-148482Y-13172D01*
X-148461Y-13270D01*
X-148436Y-13366D01*
X-148408Y-13461D01*
X-148376Y-13555D01*
X-148341Y-13648D01*
X-148302Y-13740D01*
X-148259Y-13830D01*
X-148214Y-13918D01*
X-148164Y-14005D01*
X-148112Y-14089D01*
X-148056Y-14172D01*
X-147998Y-14252D01*
X-147936Y-14330D01*
X-147871Y-14405D01*
X-147803Y-14478D01*
X-147733Y-14548D01*
X-147660Y-14616D01*
X-147585Y-14681D01*
X-147507Y-14743D01*
X-147427Y-14801D01*
X-147344Y-14857D01*
X-147260Y-14909D01*
X-147173Y-14959D01*
X-147085Y-15004D01*
X-146995Y-15047D01*
X-146903Y-15086D01*
X-146810Y-15121D01*
X-146716Y-15153D01*
X-146621Y-15181D01*
X-146525Y-15206D01*
X-146427Y-15227D01*
X-146329Y-15244D01*
X-146231Y-15257D01*
X-146132Y-15266D01*
X-146032Y-15272D01*
X-145933Y-15274D01*
X-139442Y-15274D01*
X-139442Y-15275D02*
X-139343Y-15273D01*
X-139243Y-15267D01*
X-139144Y-15258D01*
X-139046Y-15245D01*
X-138948Y-15227D01*
X-138850Y-15207D01*
X-138754Y-15182D01*
X-138658Y-15154D01*
X-138564Y-15122D01*
X-138471Y-15087D01*
X-138380Y-15048D01*
X-138290Y-15005D01*
X-138201Y-14960D01*
X-138115Y-14910D01*
X-138030Y-14858D01*
X-137948Y-14802D01*
X-137868Y-14743D01*
X-137790Y-14682D01*
X-137714Y-14617D01*
X-137641Y-14549D01*
X-137571Y-14479D01*
X-137503Y-14406D01*
X-137438Y-14330D01*
X-137377Y-14252D01*
X-137318Y-14172D01*
X-137262Y-14090D01*
X-137210Y-14005D01*
X-137161Y-13919D01*
X-137115Y-13830D01*
X-137072Y-13740D01*
X-137033Y-13649D01*
X-136998Y-13556D01*
X-136966Y-13462D01*
X-136938Y-13366D01*
X-136913Y-13270D01*
X-136893Y-13172D01*
X-136875Y-13074D01*
X-136862Y-12976D01*
X-136853Y-12877D01*
X-136847Y-12778D01*
X-136845Y-12678D01*
X-136845Y-8783D01*
X-136845Y-3082D02*
X-148529Y-3082D01*
X-148529Y3409D02*
X-136845Y-3082D01*
X-136845Y3409D02*
X-148529Y3409D01*
X-148529Y9110D02*
X-136845Y9110D01*
X-136845Y12355D01*
X-136847Y12468D01*
X-136853Y12581D01*
X-136863Y12694D01*
X-136877Y12807D01*
X-136894Y12919D01*
X-136916Y13030D01*
X-136941Y13140D01*
X-136971Y13250D01*
X-137004Y13358D01*
X-137041Y13465D01*
X-137081Y13571D01*
X-137126Y13675D01*
X-137174Y13778D01*
X-137225Y13879D01*
X-137280Y13978D01*
X-137338Y14075D01*
X-137400Y14170D01*
X-137465Y14263D01*
X-137533Y14353D01*
X-137604Y14441D01*
X-137679Y14527D01*
X-137756Y14610D01*
X-137836Y14690D01*
X-137919Y14767D01*
X-138005Y14842D01*
X-138093Y14913D01*
X-138183Y14981D01*
X-138276Y15046D01*
X-138371Y15108D01*
X-138468Y15166D01*
X-138567Y15221D01*
X-138668Y15272D01*
X-138771Y15320D01*
X-138875Y15365D01*
X-138981Y15405D01*
X-139088Y15442D01*
X-139196Y15475D01*
X-139306Y15505D01*
X-139416Y15530D01*
X-139527Y15552D01*
X-139639Y15569D01*
X-139752Y15583D01*
X-139865Y15593D01*
X-139978Y15599D01*
X-140091Y15601D01*
X-145284Y15601D01*
X-145284Y15602D02*
X-145397Y15600D01*
X-145510Y15594D01*
X-145623Y15584D01*
X-145736Y15570D01*
X-145848Y15553D01*
X-145959Y15531D01*
X-146069Y15506D01*
X-146179Y15476D01*
X-146287Y15443D01*
X-146394Y15406D01*
X-146500Y15366D01*
X-146604Y15321D01*
X-146707Y15273D01*
X-146808Y15222D01*
X-146907Y15167D01*
X-147004Y15109D01*
X-147099Y15047D01*
X-147192Y14982D01*
X-147282Y14914D01*
X-147370Y14843D01*
X-147456Y14768D01*
X-147539Y14691D01*
X-147619Y14611D01*
X-147696Y14528D01*
X-147771Y14442D01*
X-147842Y14354D01*
X-147910Y14264D01*
X-147975Y14171D01*
X-148037Y14076D01*
X-148095Y13979D01*
X-148150Y13880D01*
X-148201Y13779D01*
X-148249Y13676D01*
X-148294Y13572D01*
X-148334Y13466D01*
X-148371Y13359D01*
X-148404Y13251D01*
X-148434Y13141D01*
X-148459Y13031D01*
X-148481Y12920D01*
X-148498Y12808D01*
X-148512Y12695D01*
X-148522Y12582D01*
X-148528Y12469D01*
X-148530Y12356D01*
X-148529Y12355D02*
X-148529Y9110D01*
X142442Y-9037D02*
X142442Y-10984D01*
X142442Y-9037D02*
X135951Y-9037D01*
X135951Y-12932D01*
X135953Y-13031D01*
X135959Y-13131D01*
X135968Y-13230D01*
X135981Y-13328D01*
X135998Y-13426D01*
X136019Y-13524D01*
X136044Y-13620D01*
X136072Y-13715D01*
X136104Y-13809D01*
X136139Y-13902D01*
X136178Y-13994D01*
X136221Y-14084D01*
X136266Y-14172D01*
X136316Y-14259D01*
X136368Y-14343D01*
X136424Y-14426D01*
X136482Y-14506D01*
X136544Y-14584D01*
X136609Y-14659D01*
X136677Y-14732D01*
X136747Y-14802D01*
X136820Y-14870D01*
X136895Y-14935D01*
X136973Y-14997D01*
X137053Y-15055D01*
X137136Y-15111D01*
X137220Y-15163D01*
X137307Y-15213D01*
X137395Y-15258D01*
X137485Y-15301D01*
X137577Y-15340D01*
X137670Y-15375D01*
X137764Y-15407D01*
X137859Y-15435D01*
X137955Y-15460D01*
X138053Y-15481D01*
X138151Y-15498D01*
X138249Y-15511D01*
X138348Y-15520D01*
X138448Y-15526D01*
X138547Y-15528D01*
X145038Y-15528D01*
X145137Y-15526D01*
X145237Y-15520D01*
X145336Y-15511D01*
X145434Y-15498D01*
X145532Y-15481D01*
X145630Y-15460D01*
X145726Y-15435D01*
X145821Y-15407D01*
X145915Y-15375D01*
X146008Y-15340D01*
X146100Y-15301D01*
X146190Y-15258D01*
X146278Y-15213D01*
X146365Y-15163D01*
X146449Y-15111D01*
X146532Y-15055D01*
X146612Y-14997D01*
X146690Y-14935D01*
X146765Y-14870D01*
X146838Y-14802D01*
X146908Y-14732D01*
X146976Y-14659D01*
X147041Y-14584D01*
X147103Y-14506D01*
X147161Y-14426D01*
X147217Y-14343D01*
X147269Y-14259D01*
X147319Y-14172D01*
X147364Y-14084D01*
X147407Y-13994D01*
X147446Y-13902D01*
X147481Y-13810D01*
X147513Y-13715D01*
X147541Y-13620D01*
X147566Y-13524D01*
X147587Y-13426D01*
X147604Y-13328D01*
X147617Y-13230D01*
X147626Y-13131D01*
X147632Y-13031D01*
X147634Y-12932D01*
X147635Y-12932D02*
X147635Y-9037D01*
X147635Y-3336D02*
X135951Y-3336D01*
X135951Y3155D02*
X147635Y-3336D01*
X147635Y3155D02*
X135951Y3155D01*
X135951Y8856D02*
X147635Y8856D01*
X147635Y12101D01*
X147633Y12214D01*
X147627Y12327D01*
X147617Y12440D01*
X147603Y12553D01*
X147586Y12665D01*
X147564Y12776D01*
X147539Y12886D01*
X147509Y12996D01*
X147476Y13104D01*
X147439Y13211D01*
X147399Y13317D01*
X147354Y13421D01*
X147306Y13524D01*
X147255Y13625D01*
X147200Y13724D01*
X147142Y13821D01*
X147080Y13916D01*
X147015Y14009D01*
X146947Y14099D01*
X146876Y14187D01*
X146801Y14273D01*
X146724Y14356D01*
X146644Y14436D01*
X146561Y14513D01*
X146475Y14588D01*
X146387Y14659D01*
X146297Y14727D01*
X146204Y14792D01*
X146109Y14854D01*
X146012Y14912D01*
X145913Y14967D01*
X145812Y15018D01*
X145709Y15066D01*
X145605Y15111D01*
X145499Y15151D01*
X145392Y15188D01*
X145284Y15221D01*
X145174Y15251D01*
X145064Y15276D01*
X144953Y15298D01*
X144841Y15315D01*
X144728Y15329D01*
X144615Y15339D01*
X144502Y15345D01*
X144389Y15347D01*
X139196Y15347D01*
X139083Y15345D01*
X138970Y15339D01*
X138857Y15329D01*
X138744Y15315D01*
X138632Y15298D01*
X138521Y15276D01*
X138411Y15251D01*
X138301Y15221D01*
X138193Y15188D01*
X138086Y15151D01*
X137980Y15111D01*
X137876Y15066D01*
X137773Y15018D01*
X137672Y14967D01*
X137573Y14912D01*
X137476Y14854D01*
X137381Y14792D01*
X137288Y14727D01*
X137198Y14659D01*
X137110Y14588D01*
X137024Y14513D01*
X136941Y14436D01*
X136861Y14356D01*
X136784Y14273D01*
X136709Y14187D01*
X136638Y14099D01*
X136570Y14009D01*
X136505Y13916D01*
X136443Y13821D01*
X136385Y13724D01*
X136330Y13625D01*
X136279Y13524D01*
X136231Y13421D01*
X136186Y13317D01*
X136146Y13211D01*
X136109Y13104D01*
X136076Y12996D01*
X136046Y12886D01*
X136021Y12776D01*
X135999Y12665D01*
X135982Y12553D01*
X135968Y12440D01*
X135958Y12327D01*
X135952Y12214D01*
X135950Y12101D01*
X135951Y12101D02*
X135951Y8856D01*
X-61388Y170346D02*
X-63075Y171320D01*
X-66320Y165698D01*
X-62947Y163751D01*
X-62947Y163752D02*
X-62860Y163704D01*
X-62771Y163659D01*
X-62681Y163618D01*
X-62589Y163580D01*
X-62495Y163546D01*
X-62401Y163515D01*
X-62305Y163488D01*
X-62208Y163465D01*
X-62111Y163445D01*
X-62012Y163430D01*
X-61914Y163418D01*
X-61815Y163409D01*
X-61715Y163405D01*
X-61616Y163404D01*
X-61516Y163407D01*
X-61417Y163414D01*
X-61318Y163425D01*
X-61220Y163440D01*
X-61122Y163458D01*
X-61025Y163480D01*
X-60929Y163506D01*
X-60834Y163535D01*
X-60740Y163568D01*
X-60648Y163605D01*
X-60557Y163645D01*
X-60467Y163688D01*
X-60380Y163735D01*
X-60294Y163786D01*
X-60210Y163839D01*
X-60128Y163896D01*
X-60049Y163956D01*
X-59972Y164018D01*
X-59897Y164084D01*
X-59825Y164153D01*
X-59756Y164224D01*
X-59689Y164298D01*
X-59625Y164374D01*
X-59565Y164453D01*
X-59507Y164534D01*
X-59452Y164617D01*
X-59401Y164702D01*
X-59401Y164701D02*
X-56155Y170323D01*
X-56156Y170323D02*
X-56108Y170410D01*
X-56063Y170499D01*
X-56022Y170589D01*
X-55984Y170681D01*
X-55950Y170775D01*
X-55919Y170869D01*
X-55892Y170965D01*
X-55869Y171062D01*
X-55849Y171159D01*
X-55834Y171258D01*
X-55822Y171356D01*
X-55813Y171455D01*
X-55809Y171555D01*
X-55808Y171654D01*
X-55811Y171754D01*
X-55818Y171853D01*
X-55829Y171952D01*
X-55844Y172050D01*
X-55862Y172148D01*
X-55884Y172245D01*
X-55910Y172341D01*
X-55939Y172436D01*
X-55972Y172530D01*
X-56009Y172622D01*
X-56049Y172713D01*
X-56092Y172803D01*
X-56139Y172890D01*
X-56190Y172976D01*
X-56243Y173060D01*
X-56300Y173142D01*
X-56360Y173221D01*
X-56422Y173298D01*
X-56488Y173373D01*
X-56557Y173445D01*
X-56628Y173514D01*
X-56702Y173581D01*
X-56778Y173645D01*
X-56857Y173705D01*
X-56938Y173763D01*
X-57021Y173818D01*
X-57106Y173869D01*
X-57105Y173870D02*
X-60478Y175817D01*
X-65415Y178667D02*
X-71257Y168549D01*
X-76879Y171794D02*
X-65415Y178667D01*
X-71037Y181913D02*
X-76879Y171794D01*
X-81816Y174645D02*
X-75974Y184763D01*
X-78785Y186386D01*
X-78784Y186387D02*
X-78883Y186442D01*
X-78984Y186493D01*
X-79087Y186541D01*
X-79191Y186586D01*
X-79297Y186626D01*
X-79404Y186663D01*
X-79512Y186696D01*
X-79622Y186726D01*
X-79732Y186751D01*
X-79843Y186773D01*
X-79955Y186790D01*
X-80068Y186804D01*
X-80181Y186814D01*
X-80294Y186820D01*
X-80407Y186822D01*
X-80520Y186820D01*
X-80633Y186814D01*
X-80746Y186804D01*
X-80859Y186790D01*
X-80971Y186773D01*
X-81082Y186751D01*
X-81192Y186726D01*
X-81302Y186696D01*
X-81410Y186663D01*
X-81517Y186626D01*
X-81623Y186586D01*
X-81727Y186541D01*
X-81830Y186493D01*
X-81931Y186442D01*
X-82030Y186387D01*
X-82127Y186329D01*
X-82222Y186267D01*
X-82315Y186202D01*
X-82405Y186134D01*
X-82494Y186063D01*
X-82579Y185988D01*
X-82662Y185911D01*
X-82742Y185831D01*
X-82819Y185748D01*
X-82894Y185662D01*
X-82965Y185574D01*
X-83033Y185484D01*
X-83098Y185391D01*
X-83160Y185296D01*
X-83218Y185199D01*
X-83218Y185198D02*
X-85815Y180701D01*
X-85870Y180602D01*
X-85921Y180501D01*
X-85969Y180398D01*
X-86014Y180294D01*
X-86054Y180188D01*
X-86091Y180081D01*
X-86124Y179973D01*
X-86154Y179863D01*
X-86179Y179753D01*
X-86201Y179642D01*
X-86218Y179530D01*
X-86232Y179417D01*
X-86242Y179304D01*
X-86248Y179191D01*
X-86250Y179078D01*
X-86248Y178965D01*
X-86242Y178852D01*
X-86232Y178739D01*
X-86218Y178626D01*
X-86201Y178514D01*
X-86179Y178403D01*
X-86154Y178293D01*
X-86124Y178183D01*
X-86091Y178075D01*
X-86054Y177968D01*
X-86014Y177862D01*
X-85969Y177758D01*
X-85921Y177655D01*
X-85870Y177554D01*
X-85815Y177455D01*
X-85757Y177358D01*
X-85695Y177263D01*
X-85630Y177170D01*
X-85562Y177080D01*
X-85491Y176992D01*
X-85416Y176906D01*
X-85339Y176823D01*
X-85259Y176743D01*
X-85176Y176666D01*
X-85090Y176591D01*
X-85002Y176520D01*
X-84912Y176452D01*
X-84819Y176387D01*
X-84724Y176325D01*
X-84627Y176267D01*
X-84627Y176268D02*
X-81816Y174645D01*
X-67901Y-126876D02*
X-66214Y-127850D01*
X-67901Y-126876D02*
X-71146Y-132497D01*
X-67773Y-134445D01*
X-67773Y-134444D02*
X-67686Y-134492D01*
X-67597Y-134537D01*
X-67507Y-134578D01*
X-67415Y-134616D01*
X-67321Y-134650D01*
X-67227Y-134681D01*
X-67131Y-134708D01*
X-67034Y-134731D01*
X-66937Y-134751D01*
X-66838Y-134766D01*
X-66740Y-134778D01*
X-66641Y-134787D01*
X-66541Y-134791D01*
X-66442Y-134792D01*
X-66342Y-134789D01*
X-66243Y-134782D01*
X-66144Y-134771D01*
X-66046Y-134756D01*
X-65948Y-134738D01*
X-65851Y-134716D01*
X-65755Y-134690D01*
X-65660Y-134661D01*
X-65566Y-134628D01*
X-65474Y-134591D01*
X-65383Y-134551D01*
X-65293Y-134508D01*
X-65206Y-134461D01*
X-65120Y-134410D01*
X-65036Y-134357D01*
X-64954Y-134300D01*
X-64875Y-134240D01*
X-64798Y-134178D01*
X-64723Y-134112D01*
X-64651Y-134043D01*
X-64582Y-133972D01*
X-64515Y-133898D01*
X-64451Y-133822D01*
X-64390Y-133743D01*
X-64333Y-133662D01*
X-64278Y-133579D01*
X-64227Y-133494D01*
X-60981Y-127873D01*
X-60982Y-127873D02*
X-60934Y-127786D01*
X-60889Y-127697D01*
X-60848Y-127607D01*
X-60810Y-127515D01*
X-60776Y-127421D01*
X-60745Y-127327D01*
X-60718Y-127231D01*
X-60695Y-127134D01*
X-60675Y-127037D01*
X-60660Y-126938D01*
X-60648Y-126840D01*
X-60639Y-126741D01*
X-60635Y-126641D01*
X-60634Y-126542D01*
X-60637Y-126442D01*
X-60644Y-126343D01*
X-60655Y-126244D01*
X-60670Y-126146D01*
X-60688Y-126048D01*
X-60710Y-125951D01*
X-60736Y-125855D01*
X-60765Y-125760D01*
X-60798Y-125666D01*
X-60835Y-125574D01*
X-60875Y-125483D01*
X-60918Y-125393D01*
X-60965Y-125306D01*
X-61016Y-125220D01*
X-61069Y-125136D01*
X-61126Y-125054D01*
X-61186Y-124975D01*
X-61248Y-124898D01*
X-61314Y-124823D01*
X-61383Y-124751D01*
X-61454Y-124682D01*
X-61528Y-124615D01*
X-61604Y-124551D01*
X-61683Y-124491D01*
X-61764Y-124433D01*
X-61847Y-124378D01*
X-61932Y-124327D01*
X-61931Y-124326D02*
X-65304Y-122379D01*
X-70241Y-119528D02*
X-76083Y-129647D01*
X-81705Y-126401D02*
X-70241Y-119528D01*
X-75863Y-116283D02*
X-81705Y-126401D01*
X-86642Y-123551D02*
X-80800Y-113432D01*
X-83611Y-111810D01*
X-83610Y-111809D02*
X-83709Y-111754D01*
X-83810Y-111703D01*
X-83913Y-111655D01*
X-84017Y-111610D01*
X-84123Y-111570D01*
X-84230Y-111533D01*
X-84338Y-111500D01*
X-84448Y-111470D01*
X-84558Y-111445D01*
X-84669Y-111423D01*
X-84781Y-111406D01*
X-84894Y-111392D01*
X-85007Y-111382D01*
X-85120Y-111376D01*
X-85233Y-111374D01*
X-85346Y-111376D01*
X-85459Y-111382D01*
X-85572Y-111392D01*
X-85685Y-111406D01*
X-85797Y-111423D01*
X-85908Y-111445D01*
X-86018Y-111470D01*
X-86128Y-111500D01*
X-86236Y-111533D01*
X-86343Y-111570D01*
X-86449Y-111610D01*
X-86553Y-111655D01*
X-86656Y-111703D01*
X-86757Y-111754D01*
X-86856Y-111809D01*
X-86953Y-111867D01*
X-87048Y-111929D01*
X-87141Y-111994D01*
X-87231Y-112062D01*
X-87320Y-112133D01*
X-87405Y-112208D01*
X-87488Y-112285D01*
X-87568Y-112365D01*
X-87645Y-112448D01*
X-87720Y-112534D01*
X-87791Y-112622D01*
X-87859Y-112712D01*
X-87924Y-112805D01*
X-87986Y-112900D01*
X-88044Y-112997D01*
X-88044Y-112998D02*
X-90641Y-117495D01*
X-90696Y-117594D01*
X-90747Y-117695D01*
X-90795Y-117798D01*
X-90840Y-117902D01*
X-90880Y-118008D01*
X-90917Y-118115D01*
X-90950Y-118223D01*
X-90980Y-118333D01*
X-91005Y-118443D01*
X-91027Y-118554D01*
X-91044Y-118666D01*
X-91058Y-118779D01*
X-91068Y-118892D01*
X-91074Y-119005D01*
X-91076Y-119118D01*
X-91074Y-119231D01*
X-91068Y-119344D01*
X-91058Y-119457D01*
X-91044Y-119570D01*
X-91027Y-119682D01*
X-91005Y-119793D01*
X-90980Y-119903D01*
X-90950Y-120013D01*
X-90917Y-120121D01*
X-90880Y-120228D01*
X-90840Y-120334D01*
X-90795Y-120438D01*
X-90747Y-120541D01*
X-90696Y-120642D01*
X-90641Y-120741D01*
X-90583Y-120838D01*
X-90521Y-120933D01*
X-90456Y-121026D01*
X-90388Y-121116D01*
X-90317Y-121204D01*
X-90242Y-121290D01*
X-90165Y-121373D01*
X-90085Y-121453D01*
X-90002Y-121530D01*
X-89916Y-121605D01*
X-89828Y-121676D01*
X-89738Y-121744D01*
X-89645Y-121809D01*
X-89550Y-121871D01*
X-89453Y-121929D01*
X-89453Y-121928D02*
X-86642Y-123551D01*
X82517Y-117993D02*
X84203Y-117019D01*
X82517Y-117993D02*
X85762Y-123615D01*
X89135Y-121667D01*
X89220Y-121616D01*
X89303Y-121561D01*
X89384Y-121504D01*
X89463Y-121443D01*
X89539Y-121379D01*
X89613Y-121312D01*
X89684Y-121243D01*
X89753Y-121171D01*
X89819Y-121096D01*
X89881Y-121019D01*
X89941Y-120940D01*
X89998Y-120858D01*
X90051Y-120774D01*
X90102Y-120688D01*
X90149Y-120601D01*
X90192Y-120511D01*
X90232Y-120420D01*
X90269Y-120328D01*
X90302Y-120234D01*
X90331Y-120139D01*
X90357Y-120043D01*
X90379Y-119946D01*
X90397Y-119848D01*
X90412Y-119750D01*
X90423Y-119651D01*
X90430Y-119552D01*
X90433Y-119452D01*
X90432Y-119353D01*
X90428Y-119253D01*
X90419Y-119154D01*
X90407Y-119055D01*
X90392Y-118957D01*
X90372Y-118860D01*
X90349Y-118763D01*
X90322Y-118667D01*
X90291Y-118573D01*
X90257Y-118479D01*
X90219Y-118387D01*
X90178Y-118297D01*
X90133Y-118208D01*
X90085Y-118121D01*
X90086Y-118120D02*
X86840Y-112499D01*
X86839Y-112499D02*
X86788Y-112414D01*
X86733Y-112331D01*
X86676Y-112250D01*
X86615Y-112171D01*
X86551Y-112095D01*
X86484Y-112021D01*
X86415Y-111950D01*
X86343Y-111881D01*
X86268Y-111815D01*
X86191Y-111753D01*
X86112Y-111693D01*
X86030Y-111636D01*
X85946Y-111583D01*
X85860Y-111532D01*
X85773Y-111485D01*
X85683Y-111442D01*
X85592Y-111402D01*
X85500Y-111365D01*
X85406Y-111332D01*
X85311Y-111303D01*
X85215Y-111277D01*
X85118Y-111255D01*
X85020Y-111237D01*
X84922Y-111222D01*
X84823Y-111211D01*
X84724Y-111204D01*
X84624Y-111201D01*
X84525Y-111202D01*
X84425Y-111206D01*
X84326Y-111215D01*
X84228Y-111227D01*
X84129Y-111242D01*
X84032Y-111262D01*
X83935Y-111285D01*
X83839Y-111312D01*
X83745Y-111343D01*
X83651Y-111377D01*
X83559Y-111415D01*
X83469Y-111456D01*
X83380Y-111501D01*
X83293Y-111549D01*
X79920Y-113496D01*
X74983Y-116346D02*
X80825Y-126465D01*
X75204Y-129711D02*
X74983Y-116346D01*
X69362Y-119592D02*
X75204Y-129711D01*
X70267Y-132561D02*
X64425Y-122442D01*
X61614Y-124065D01*
X61517Y-124123D01*
X61422Y-124185D01*
X61329Y-124250D01*
X61239Y-124318D01*
X61151Y-124389D01*
X61065Y-124464D01*
X60982Y-124541D01*
X60902Y-124621D01*
X60825Y-124704D01*
X60750Y-124790D01*
X60679Y-124878D01*
X60611Y-124968D01*
X60546Y-125061D01*
X60484Y-125156D01*
X60426Y-125253D01*
X60371Y-125352D01*
X60320Y-125453D01*
X60272Y-125556D01*
X60227Y-125660D01*
X60187Y-125766D01*
X60150Y-125873D01*
X60117Y-125981D01*
X60087Y-126091D01*
X60062Y-126201D01*
X60040Y-126312D01*
X60023Y-126424D01*
X60009Y-126537D01*
X59999Y-126650D01*
X59993Y-126763D01*
X59991Y-126876D01*
X59993Y-126989D01*
X59999Y-127102D01*
X60009Y-127215D01*
X60023Y-127328D01*
X60040Y-127440D01*
X60062Y-127551D01*
X60087Y-127661D01*
X60117Y-127771D01*
X60150Y-127879D01*
X60187Y-127986D01*
X60227Y-128092D01*
X60272Y-128196D01*
X60320Y-128299D01*
X60371Y-128400D01*
X60426Y-128499D01*
X63023Y-132996D01*
X63022Y-132996D02*
X63080Y-133093D01*
X63142Y-133188D01*
X63207Y-133281D01*
X63275Y-133371D01*
X63346Y-133459D01*
X63421Y-133545D01*
X63498Y-133628D01*
X63578Y-133708D01*
X63661Y-133785D01*
X63747Y-133860D01*
X63835Y-133931D01*
X63925Y-133999D01*
X64018Y-134064D01*
X64113Y-134126D01*
X64210Y-134184D01*
X64309Y-134239D01*
X64410Y-134290D01*
X64513Y-134338D01*
X64617Y-134383D01*
X64723Y-134423D01*
X64830Y-134460D01*
X64938Y-134493D01*
X65048Y-134523D01*
X65158Y-134548D01*
X65269Y-134570D01*
X65381Y-134587D01*
X65494Y-134601D01*
X65607Y-134611D01*
X65720Y-134617D01*
X65833Y-134619D01*
X65946Y-134617D01*
X66059Y-134611D01*
X66172Y-134601D01*
X66285Y-134587D01*
X66397Y-134570D01*
X66508Y-134548D01*
X66618Y-134523D01*
X66728Y-134493D01*
X66836Y-134460D01*
X66943Y-134423D01*
X67049Y-134383D01*
X67153Y-134338D01*
X67256Y-134290D01*
X67357Y-134239D01*
X67456Y-134184D01*
X70267Y-132561D01*
D10*
X-101742Y243740D02*
X-101742Y261520D01*
X-106681Y261520D01*
X-106821Y261518D01*
X-106960Y261512D01*
X-107100Y261502D01*
X-107239Y261488D01*
X-107378Y261471D01*
X-107516Y261449D01*
X-107653Y261423D01*
X-107790Y261394D01*
X-107926Y261361D01*
X-108060Y261324D01*
X-108194Y261283D01*
X-108326Y261238D01*
X-108458Y261189D01*
X-108587Y261137D01*
X-108715Y261082D01*
X-108842Y261022D01*
X-108967Y260959D01*
X-109090Y260893D01*
X-109211Y260823D01*
X-109330Y260750D01*
X-109447Y260673D01*
X-109561Y260593D01*
X-109674Y260510D01*
X-109784Y260424D01*
X-109891Y260334D01*
X-109996Y260242D01*
X-110098Y260147D01*
X-110198Y260049D01*
X-110295Y259948D01*
X-110389Y259844D01*
X-110479Y259738D01*
X-110567Y259629D01*
X-110652Y259518D01*
X-110733Y259404D01*
X-110812Y259289D01*
X-110887Y259171D01*
X-110958Y259051D01*
X-111026Y258928D01*
X-111091Y258805D01*
X-111152Y258679D01*
X-111210Y258551D01*
X-111264Y258423D01*
X-111314Y258292D01*
X-111361Y258160D01*
X-111404Y258027D01*
X-111443Y257893D01*
X-111478Y257758D01*
X-111509Y257622D01*
X-111537Y257484D01*
X-111560Y257347D01*
X-111580Y257208D01*
X-111596Y257069D01*
X-111608Y256930D01*
X-111616Y256791D01*
X-111620Y256651D01*
X-111620Y256511D01*
X-111616Y256371D01*
X-111608Y256232D01*
X-111596Y256093D01*
X-111580Y255954D01*
X-111560Y255815D01*
X-111537Y255678D01*
X-111509Y255540D01*
X-111478Y255404D01*
X-111443Y255269D01*
X-111404Y255135D01*
X-111361Y255002D01*
X-111314Y254870D01*
X-111264Y254739D01*
X-111210Y254611D01*
X-111152Y254483D01*
X-111091Y254357D01*
X-111026Y254234D01*
X-110958Y254111D01*
X-110887Y253991D01*
X-110812Y253873D01*
X-110733Y253758D01*
X-110652Y253644D01*
X-110567Y253533D01*
X-110479Y253424D01*
X-110389Y253318D01*
X-110295Y253214D01*
X-110198Y253113D01*
X-110098Y253015D01*
X-109996Y252920D01*
X-109891Y252828D01*
X-109784Y252738D01*
X-109674Y252652D01*
X-109561Y252569D01*
X-109447Y252489D01*
X-109330Y252412D01*
X-109211Y252339D01*
X-109090Y252269D01*
X-108967Y252203D01*
X-108842Y252140D01*
X-108715Y252080D01*
X-108587Y252025D01*
X-108458Y251973D01*
X-108326Y251924D01*
X-108194Y251879D01*
X-108060Y251838D01*
X-107926Y251801D01*
X-107790Y251768D01*
X-107653Y251739D01*
X-107516Y251713D01*
X-107378Y251691D01*
X-107239Y251674D01*
X-107100Y251660D01*
X-106960Y251650D01*
X-106821Y251644D01*
X-106681Y251642D01*
X-101742Y251642D01*
X-117737Y243740D02*
X-123664Y243740D01*
X-123788Y243742D01*
X-123912Y243748D01*
X-124036Y243758D01*
X-124159Y243771D01*
X-124282Y243789D01*
X-124404Y243810D01*
X-124526Y243835D01*
X-124647Y243864D01*
X-124766Y243897D01*
X-124885Y243933D01*
X-125002Y243974D01*
X-125118Y244017D01*
X-125233Y244065D01*
X-125346Y244116D01*
X-125458Y244171D01*
X-125567Y244229D01*
X-125675Y244290D01*
X-125781Y244355D01*
X-125885Y244423D01*
X-125986Y244495D01*
X-126086Y244569D01*
X-126182Y244647D01*
X-126277Y244727D01*
X-126369Y244811D01*
X-126458Y244897D01*
X-126544Y244986D01*
X-126628Y245078D01*
X-126708Y245173D01*
X-126786Y245269D01*
X-126860Y245369D01*
X-126932Y245470D01*
X-127000Y245574D01*
X-127065Y245680D01*
X-127126Y245788D01*
X-127184Y245897D01*
X-127239Y246009D01*
X-127290Y246122D01*
X-127338Y246237D01*
X-127381Y246353D01*
X-127422Y246470D01*
X-127458Y246589D01*
X-127491Y246708D01*
X-127520Y246829D01*
X-127545Y246951D01*
X-127566Y247073D01*
X-127584Y247196D01*
X-127597Y247319D01*
X-127607Y247443D01*
X-127613Y247567D01*
X-127615Y247691D01*
X-127615Y249667D01*
X-127613Y249791D01*
X-127607Y249915D01*
X-127597Y250039D01*
X-127584Y250162D01*
X-127566Y250285D01*
X-127545Y250407D01*
X-127520Y250529D01*
X-127491Y250650D01*
X-127458Y250769D01*
X-127422Y250888D01*
X-127381Y251005D01*
X-127338Y251121D01*
X-127290Y251236D01*
X-127239Y251349D01*
X-127184Y251461D01*
X-127126Y251570D01*
X-127065Y251678D01*
X-127000Y251784D01*
X-126932Y251888D01*
X-126860Y251989D01*
X-126786Y252089D01*
X-126708Y252185D01*
X-126628Y252280D01*
X-126544Y252372D01*
X-126458Y252461D01*
X-126369Y252547D01*
X-126277Y252631D01*
X-126182Y252711D01*
X-126086Y252789D01*
X-125986Y252863D01*
X-125885Y252935D01*
X-125781Y253003D01*
X-125675Y253068D01*
X-125567Y253129D01*
X-125458Y253187D01*
X-125346Y253242D01*
X-125233Y253293D01*
X-125118Y253341D01*
X-125002Y253384D01*
X-124885Y253425D01*
X-124766Y253461D01*
X-124647Y253494D01*
X-124526Y253523D01*
X-124404Y253548D01*
X-124282Y253569D01*
X-124159Y253587D01*
X-124036Y253600D01*
X-123912Y253610D01*
X-123788Y253616D01*
X-123664Y253618D01*
X-117737Y253618D01*
X-117737Y261520D01*
X-127615Y261520D01*
X-83166Y362429D02*
X-83166Y380209D01*
X-88105Y380209D01*
X-88245Y380207D01*
X-88384Y380201D01*
X-88524Y380191D01*
X-88663Y380177D01*
X-88802Y380160D01*
X-88940Y380138D01*
X-89077Y380112D01*
X-89214Y380083D01*
X-89350Y380050D01*
X-89484Y380013D01*
X-89618Y379972D01*
X-89750Y379927D01*
X-89882Y379878D01*
X-90011Y379826D01*
X-90139Y379771D01*
X-90266Y379711D01*
X-90391Y379648D01*
X-90514Y379582D01*
X-90635Y379512D01*
X-90754Y379439D01*
X-90871Y379362D01*
X-90985Y379282D01*
X-91098Y379199D01*
X-91208Y379113D01*
X-91315Y379023D01*
X-91420Y378931D01*
X-91522Y378836D01*
X-91622Y378738D01*
X-91719Y378637D01*
X-91813Y378533D01*
X-91903Y378427D01*
X-91991Y378318D01*
X-92076Y378207D01*
X-92157Y378093D01*
X-92236Y377978D01*
X-92311Y377860D01*
X-92382Y377740D01*
X-92450Y377617D01*
X-92515Y377494D01*
X-92576Y377368D01*
X-92634Y377240D01*
X-92688Y377112D01*
X-92738Y376981D01*
X-92785Y376849D01*
X-92828Y376716D01*
X-92867Y376582D01*
X-92902Y376447D01*
X-92933Y376311D01*
X-92961Y376173D01*
X-92984Y376036D01*
X-93004Y375897D01*
X-93020Y375758D01*
X-93032Y375619D01*
X-93040Y375480D01*
X-93044Y375340D01*
X-93044Y375200D01*
X-93040Y375060D01*
X-93032Y374921D01*
X-93020Y374782D01*
X-93004Y374643D01*
X-92984Y374504D01*
X-92961Y374367D01*
X-92933Y374229D01*
X-92902Y374093D01*
X-92867Y373958D01*
X-92828Y373824D01*
X-92785Y373691D01*
X-92738Y373559D01*
X-92688Y373428D01*
X-92634Y373300D01*
X-92576Y373172D01*
X-92515Y373046D01*
X-92450Y372923D01*
X-92382Y372801D01*
X-92311Y372680D01*
X-92236Y372562D01*
X-92157Y372447D01*
X-92076Y372333D01*
X-91991Y372222D01*
X-91903Y372113D01*
X-91813Y372007D01*
X-91719Y371903D01*
X-91622Y371802D01*
X-91522Y371704D01*
X-91420Y371609D01*
X-91315Y371517D01*
X-91208Y371427D01*
X-91098Y371341D01*
X-90985Y371258D01*
X-90871Y371178D01*
X-90754Y371101D01*
X-90635Y371028D01*
X-90514Y370958D01*
X-90391Y370892D01*
X-90266Y370829D01*
X-90139Y370769D01*
X-90011Y370714D01*
X-89882Y370662D01*
X-89750Y370613D01*
X-89618Y370568D01*
X-89484Y370527D01*
X-89350Y370490D01*
X-89214Y370457D01*
X-89077Y370428D01*
X-88940Y370402D01*
X-88802Y370380D01*
X-88663Y370363D01*
X-88524Y370349D01*
X-88384Y370339D01*
X-88245Y370333D01*
X-88105Y370331D01*
X-83166Y370331D01*
X-99161Y372307D02*
X-105088Y372307D01*
X-105212Y372305D01*
X-105336Y372299D01*
X-105460Y372289D01*
X-105583Y372276D01*
X-105706Y372258D01*
X-105828Y372237D01*
X-105950Y372212D01*
X-106071Y372183D01*
X-106190Y372150D01*
X-106309Y372114D01*
X-106426Y372073D01*
X-106542Y372030D01*
X-106657Y371982D01*
X-106770Y371931D01*
X-106882Y371876D01*
X-106991Y371818D01*
X-107099Y371757D01*
X-107205Y371692D01*
X-107309Y371624D01*
X-107410Y371552D01*
X-107510Y371478D01*
X-107606Y371400D01*
X-107701Y371320D01*
X-107793Y371236D01*
X-107882Y371150D01*
X-107968Y371061D01*
X-108052Y370969D01*
X-108132Y370874D01*
X-108210Y370778D01*
X-108284Y370678D01*
X-108356Y370577D01*
X-108424Y370473D01*
X-108489Y370367D01*
X-108550Y370259D01*
X-108608Y370150D01*
X-108663Y370038D01*
X-108714Y369925D01*
X-108762Y369810D01*
X-108805Y369694D01*
X-108846Y369577D01*
X-108882Y369458D01*
X-108915Y369339D01*
X-108944Y369218D01*
X-108969Y369096D01*
X-108990Y368974D01*
X-109008Y368851D01*
X-109021Y368728D01*
X-109031Y368604D01*
X-109037Y368480D01*
X-109039Y368356D01*
X-109039Y367368D01*
X-109037Y367228D01*
X-109031Y367089D01*
X-109021Y366949D01*
X-109007Y366810D01*
X-108990Y366671D01*
X-108968Y366533D01*
X-108942Y366396D01*
X-108913Y366259D01*
X-108880Y366123D01*
X-108843Y365989D01*
X-108802Y365855D01*
X-108757Y365723D01*
X-108708Y365591D01*
X-108656Y365462D01*
X-108601Y365334D01*
X-108541Y365207D01*
X-108478Y365082D01*
X-108412Y364959D01*
X-108342Y364838D01*
X-108269Y364719D01*
X-108192Y364602D01*
X-108112Y364488D01*
X-108029Y364375D01*
X-107943Y364265D01*
X-107853Y364158D01*
X-107761Y364053D01*
X-107666Y363951D01*
X-107568Y363851D01*
X-107467Y363754D01*
X-107363Y363660D01*
X-107257Y363570D01*
X-107148Y363482D01*
X-107037Y363397D01*
X-106923Y363316D01*
X-106808Y363237D01*
X-106690Y363162D01*
X-106569Y363091D01*
X-106447Y363023D01*
X-106324Y362958D01*
X-106198Y362897D01*
X-106070Y362839D01*
X-105942Y362785D01*
X-105811Y362735D01*
X-105679Y362688D01*
X-105546Y362645D01*
X-105412Y362606D01*
X-105277Y362571D01*
X-105141Y362540D01*
X-105003Y362512D01*
X-104866Y362489D01*
X-104727Y362469D01*
X-104588Y362453D01*
X-104449Y362441D01*
X-104310Y362433D01*
X-104170Y362429D01*
X-104030Y362429D01*
X-103890Y362433D01*
X-103751Y362441D01*
X-103612Y362453D01*
X-103473Y362469D01*
X-103334Y362489D01*
X-103197Y362512D01*
X-103059Y362540D01*
X-102923Y362571D01*
X-102788Y362606D01*
X-102654Y362645D01*
X-102521Y362688D01*
X-102389Y362735D01*
X-102258Y362785D01*
X-102130Y362839D01*
X-102002Y362897D01*
X-101876Y362958D01*
X-101753Y363023D01*
X-101630Y363091D01*
X-101510Y363162D01*
X-101392Y363237D01*
X-101277Y363316D01*
X-101163Y363397D01*
X-101052Y363482D01*
X-100943Y363570D01*
X-100837Y363660D01*
X-100733Y363754D01*
X-100632Y363851D01*
X-100534Y363951D01*
X-100439Y364053D01*
X-100347Y364158D01*
X-100257Y364265D01*
X-100171Y364375D01*
X-100088Y364488D01*
X-100008Y364602D01*
X-99931Y364719D01*
X-99858Y364838D01*
X-99788Y364959D01*
X-99722Y365082D01*
X-99659Y365207D01*
X-99599Y365334D01*
X-99544Y365462D01*
X-99492Y365591D01*
X-99443Y365723D01*
X-99398Y365855D01*
X-99357Y365989D01*
X-99320Y366123D01*
X-99287Y366259D01*
X-99258Y366396D01*
X-99232Y366533D01*
X-99210Y366671D01*
X-99193Y366810D01*
X-99179Y366949D01*
X-99169Y367089D01*
X-99163Y367228D01*
X-99161Y367368D01*
X-99161Y372307D01*
X-99163Y372501D01*
X-99171Y372695D01*
X-99182Y372888D01*
X-99199Y373082D01*
X-99220Y373274D01*
X-99247Y373466D01*
X-99277Y373658D01*
X-99313Y373849D01*
X-99353Y374038D01*
X-99398Y374227D01*
X-99447Y374415D01*
X-99501Y374601D01*
X-99560Y374786D01*
X-99623Y374969D01*
X-99690Y375151D01*
X-99763Y375331D01*
X-99839Y375509D01*
X-99920Y375686D01*
X-100005Y375860D01*
X-100094Y376032D01*
X-100188Y376202D01*
X-100285Y376369D01*
X-100387Y376535D01*
X-100493Y376697D01*
X-100602Y376857D01*
X-100716Y377014D01*
X-100833Y377169D01*
X-100955Y377320D01*
X-101080Y377468D01*
X-101208Y377614D01*
X-101340Y377756D01*
X-101475Y377895D01*
X-101614Y378030D01*
X-101756Y378162D01*
X-101902Y378290D01*
X-102050Y378415D01*
X-102201Y378537D01*
X-102356Y378654D01*
X-102513Y378768D01*
X-102673Y378877D01*
X-102835Y378983D01*
X-103001Y379085D01*
X-103168Y379182D01*
X-103338Y379276D01*
X-103510Y379365D01*
X-103684Y379450D01*
X-103861Y379531D01*
X-104039Y379607D01*
X-104219Y379680D01*
X-104401Y379747D01*
X-104584Y379810D01*
X-104769Y379869D01*
X-104955Y379923D01*
X-105143Y379972D01*
X-105332Y380017D01*
X-105521Y380057D01*
X-105712Y380093D01*
X-105904Y380123D01*
X-106096Y380150D01*
X-106288Y380171D01*
X-106482Y380188D01*
X-106675Y380199D01*
X-106869Y380207D01*
X-107063Y380209D01*
X87324Y-319585D02*
X81937Y-321689D01*
X96015Y-329817D01*
X98273Y-325907D02*
X93758Y-333728D01*
X83418Y-335381D02*
X83139Y-335224D01*
X82857Y-335074D01*
X82571Y-334931D01*
X82281Y-334795D01*
X81989Y-334666D01*
X81693Y-334543D01*
X81395Y-334428D01*
X81094Y-334320D01*
X80791Y-334219D01*
X80485Y-334126D01*
X80177Y-334040D01*
X79867Y-333961D01*
X79555Y-333889D01*
X79242Y-333826D01*
X78927Y-333769D01*
X78611Y-333720D01*
X78294Y-333679D01*
X77976Y-333645D01*
X77657Y-333619D01*
X77658Y-333617D02*
X77545Y-333597D01*
X77431Y-333581D01*
X77316Y-333569D01*
X77201Y-333560D01*
X77086Y-333556D01*
X76971Y-333555D01*
X76856Y-333559D01*
X76741Y-333566D01*
X76626Y-333578D01*
X76512Y-333593D01*
X76399Y-333612D01*
X76286Y-333636D01*
X76174Y-333663D01*
X76063Y-333694D01*
X75953Y-333728D01*
X75845Y-333767D01*
X75738Y-333809D01*
X75632Y-333855D01*
X75528Y-333904D01*
X75426Y-333958D01*
X75326Y-334014D01*
X75227Y-334074D01*
X75131Y-334137D01*
X75037Y-334204D01*
X74945Y-334274D01*
X74856Y-334347D01*
X74770Y-334422D01*
X74686Y-334501D01*
X74605Y-334583D01*
X74526Y-334667D01*
X74451Y-334755D01*
X74379Y-334844D01*
X74310Y-334936D01*
X74244Y-335031D01*
X74181Y-335127D01*
X74122Y-335226D01*
X74066Y-335327D01*
X74014Y-335429D01*
X73965Y-335534D01*
X73920Y-335640D01*
X73878Y-335747D01*
X73840Y-335856D01*
X73806Y-335966D01*
X73776Y-336077D01*
X73750Y-336189D01*
X73727Y-336302D01*
X73709Y-336416D01*
X73694Y-336530D01*
X73684Y-336644D01*
X73677Y-336759D01*
X73674Y-336875D01*
X73675Y-336990D01*
X73680Y-337105D01*
X73690Y-337219D01*
X73703Y-337334D01*
X73720Y-337448D01*
X73741Y-337561D01*
X73765Y-337673D01*
X73794Y-337785D01*
X73827Y-337895D01*
X73863Y-338005D01*
X73903Y-338113D01*
X73947Y-338219D01*
X73994Y-338324D01*
X74045Y-338427D01*
X74099Y-338529D01*
X74157Y-338628D01*
X74219Y-338726D01*
X74283Y-338821D01*
X74351Y-338914D01*
X74422Y-339005D01*
X74497Y-339093D01*
X74497Y-339092D02*
X74679Y-339355D01*
X74867Y-339614D01*
X75061Y-339867D01*
X75262Y-340117D01*
X75468Y-340361D01*
X75680Y-340601D01*
X75898Y-340835D01*
X76121Y-341064D01*
X76350Y-341287D01*
X76583Y-341505D01*
X76823Y-341718D01*
X77067Y-341925D01*
X77315Y-342125D01*
X77569Y-342320D01*
X77827Y-342509D01*
X78090Y-342691D01*
X78357Y-342867D01*
X78628Y-343037D01*
X78903Y-343200D01*
X83418Y-335381D02*
X83693Y-335544D01*
X83964Y-335714D01*
X84231Y-335890D01*
X84494Y-336072D01*
X84752Y-336261D01*
X85006Y-336456D01*
X85254Y-336656D01*
X85498Y-336863D01*
X85738Y-337076D01*
X85971Y-337294D01*
X86200Y-337517D01*
X86423Y-337746D01*
X86641Y-337981D01*
X86853Y-338220D01*
X87059Y-338464D01*
X87260Y-338714D01*
X87454Y-338967D01*
X87642Y-339226D01*
X87824Y-339489D01*
X87825Y-339488D02*
X87900Y-339576D01*
X87971Y-339667D01*
X88039Y-339760D01*
X88103Y-339855D01*
X88165Y-339953D01*
X88222Y-340052D01*
X88277Y-340154D01*
X88328Y-340257D01*
X88375Y-340362D01*
X88419Y-340468D01*
X88459Y-340576D01*
X88495Y-340686D01*
X88528Y-340796D01*
X88557Y-340908D01*
X88581Y-341020D01*
X88602Y-341133D01*
X88619Y-341247D01*
X88632Y-341362D01*
X88642Y-341476D01*
X88647Y-341591D01*
X88648Y-341706D01*
X88645Y-341822D01*
X88638Y-341937D01*
X88628Y-342051D01*
X88613Y-342165D01*
X88595Y-342279D01*
X88572Y-342392D01*
X88546Y-342504D01*
X88516Y-342615D01*
X88482Y-342725D01*
X88444Y-342834D01*
X88402Y-342941D01*
X88357Y-343047D01*
X88308Y-343152D01*
X88256Y-343254D01*
X88200Y-343355D01*
X84664Y-344963D02*
X84346Y-344937D01*
X84028Y-344903D01*
X83711Y-344862D01*
X83394Y-344813D01*
X83080Y-344757D01*
X82766Y-344693D01*
X82455Y-344621D01*
X82145Y-344542D01*
X81837Y-344456D01*
X81531Y-344363D01*
X81227Y-344262D01*
X80926Y-344154D01*
X80628Y-344039D01*
X80332Y-343916D01*
X80040Y-343787D01*
X79751Y-343651D01*
X79465Y-343508D01*
X79182Y-343358D01*
X78903Y-343201D01*
X84664Y-344963D02*
X84777Y-344983D01*
X84891Y-344999D01*
X85006Y-345011D01*
X85121Y-345020D01*
X85236Y-345024D01*
X85351Y-345025D01*
X85466Y-345021D01*
X85581Y-345014D01*
X85695Y-345002D01*
X85809Y-344987D01*
X85923Y-344968D01*
X86036Y-344944D01*
X86148Y-344917D01*
X86259Y-344886D01*
X86368Y-344852D01*
X86477Y-344813D01*
X86584Y-344771D01*
X86690Y-344725D01*
X86793Y-344676D01*
X86896Y-344623D01*
X86996Y-344566D01*
X87094Y-344506D01*
X87190Y-344443D01*
X87284Y-344376D01*
X87376Y-344307D01*
X87465Y-344234D01*
X87552Y-344158D01*
X87635Y-344079D01*
X87717Y-343997D01*
X87795Y-343913D01*
X87870Y-343826D01*
X87942Y-343736D01*
X88012Y-343644D01*
X88078Y-343550D01*
X88140Y-343453D01*
X88199Y-343354D01*
X86878Y-338420D02*
X75444Y-340161D01*
X68876Y-344312D02*
X81148Y-355568D01*
X69957Y-353278D01*
X77536Y-361825D01*
X61652Y-356825D01*
X-63339Y-352172D02*
X-64210Y-357889D01*
X-63339Y-352172D02*
X-77417Y-360300D01*
X-79675Y-356390D02*
X-75159Y-364211D01*
X-75936Y-346609D02*
X-75661Y-346446D01*
X-75390Y-346276D01*
X-75123Y-346100D01*
X-74860Y-345918D01*
X-74602Y-345729D01*
X-74348Y-345534D01*
X-74100Y-345334D01*
X-73856Y-345127D01*
X-73616Y-344914D01*
X-73383Y-344696D01*
X-73154Y-344473D01*
X-72931Y-344244D01*
X-72713Y-344010D01*
X-72501Y-343770D01*
X-72295Y-343526D01*
X-72094Y-343276D01*
X-71900Y-343023D01*
X-71712Y-342764D01*
X-71530Y-342501D01*
X-71529Y-342502D02*
X-71454Y-342414D01*
X-71383Y-342323D01*
X-71316Y-342230D01*
X-71251Y-342135D01*
X-71189Y-342037D01*
X-71132Y-341938D01*
X-71077Y-341836D01*
X-71026Y-341733D01*
X-70979Y-341628D01*
X-70935Y-341522D01*
X-70895Y-341414D01*
X-70859Y-341304D01*
X-70826Y-341194D01*
X-70797Y-341082D01*
X-70773Y-340970D01*
X-70752Y-340857D01*
X-70735Y-340743D01*
X-70722Y-340629D01*
X-70712Y-340514D01*
X-70707Y-340399D01*
X-70706Y-340284D01*
X-70709Y-340168D01*
X-70716Y-340053D01*
X-70726Y-339939D01*
X-70741Y-339825D01*
X-70759Y-339711D01*
X-70782Y-339598D01*
X-70808Y-339486D01*
X-70838Y-339375D01*
X-70872Y-339265D01*
X-70910Y-339156D01*
X-70952Y-339049D01*
X-70997Y-338943D01*
X-71046Y-338838D01*
X-71098Y-338736D01*
X-71154Y-338635D01*
X-71213Y-338536D01*
X-71276Y-338440D01*
X-71342Y-338345D01*
X-71411Y-338253D01*
X-71483Y-338164D01*
X-71558Y-338076D01*
X-71637Y-337992D01*
X-71718Y-337910D01*
X-71802Y-337831D01*
X-71888Y-337756D01*
X-71977Y-337683D01*
X-72069Y-337613D01*
X-72163Y-337546D01*
X-72259Y-337483D01*
X-72358Y-337423D01*
X-72458Y-337367D01*
X-72560Y-337313D01*
X-72664Y-337264D01*
X-72770Y-337218D01*
X-72877Y-337176D01*
X-72985Y-337137D01*
X-73095Y-337103D01*
X-73206Y-337072D01*
X-73318Y-337045D01*
X-73431Y-337021D01*
X-73544Y-337002D01*
X-73658Y-336987D01*
X-73773Y-336975D01*
X-73888Y-336968D01*
X-74003Y-336964D01*
X-74118Y-336965D01*
X-74233Y-336969D01*
X-74348Y-336978D01*
X-74463Y-336990D01*
X-74577Y-337006D01*
X-74690Y-337026D01*
X-74690Y-337027D02*
X-75009Y-337053D01*
X-75327Y-337087D01*
X-75644Y-337128D01*
X-75960Y-337177D01*
X-76275Y-337233D01*
X-76588Y-337297D01*
X-76900Y-337369D01*
X-77210Y-337448D01*
X-77518Y-337534D01*
X-77823Y-337627D01*
X-78127Y-337728D01*
X-78428Y-337836D01*
X-78726Y-337951D01*
X-79022Y-338074D01*
X-79314Y-338203D01*
X-79604Y-338339D01*
X-79890Y-338482D01*
X-80172Y-338632D01*
X-80451Y-338789D01*
X-75936Y-346610D02*
X-76215Y-346767D01*
X-76497Y-346917D01*
X-76783Y-347060D01*
X-77073Y-347196D01*
X-77365Y-347325D01*
X-77661Y-347448D01*
X-77959Y-347563D01*
X-78260Y-347671D01*
X-78564Y-347772D01*
X-78869Y-347865D01*
X-79177Y-347951D01*
X-79487Y-348030D01*
X-79799Y-348102D01*
X-80112Y-348166D01*
X-80427Y-348222D01*
X-80743Y-348271D01*
X-81060Y-348312D01*
X-81378Y-348346D01*
X-81697Y-348372D01*
X-81697Y-348373D02*
X-81810Y-348393D01*
X-81924Y-348409D01*
X-82039Y-348421D01*
X-82154Y-348430D01*
X-82269Y-348434D01*
X-82384Y-348435D01*
X-82499Y-348431D01*
X-82614Y-348424D01*
X-82729Y-348412D01*
X-82843Y-348397D01*
X-82956Y-348378D01*
X-83069Y-348354D01*
X-83181Y-348327D01*
X-83292Y-348296D01*
X-83402Y-348262D01*
X-83510Y-348223D01*
X-83617Y-348181D01*
X-83723Y-348135D01*
X-83827Y-348086D01*
X-83929Y-348032D01*
X-84029Y-347976D01*
X-84128Y-347916D01*
X-84224Y-347853D01*
X-84318Y-347786D01*
X-84410Y-347716D01*
X-84499Y-347643D01*
X-84585Y-347568D01*
X-84669Y-347489D01*
X-84750Y-347407D01*
X-84829Y-347323D01*
X-84904Y-347235D01*
X-84976Y-347146D01*
X-85045Y-347054D01*
X-85111Y-346959D01*
X-85174Y-346863D01*
X-85233Y-346764D01*
X-84858Y-342897D02*
X-84676Y-342634D01*
X-84488Y-342376D01*
X-84294Y-342122D01*
X-84093Y-341872D01*
X-83887Y-341628D01*
X-83675Y-341389D01*
X-83457Y-341154D01*
X-83234Y-340925D01*
X-83005Y-340702D01*
X-82772Y-340484D01*
X-82532Y-340271D01*
X-82288Y-340064D01*
X-82039Y-339864D01*
X-81786Y-339669D01*
X-81528Y-339480D01*
X-81265Y-339298D01*
X-80998Y-339122D01*
X-80727Y-338952D01*
X-80452Y-338789D01*
X-84858Y-342897D02*
X-84933Y-342985D01*
X-85004Y-343076D01*
X-85072Y-343169D01*
X-85136Y-343264D01*
X-85198Y-343362D01*
X-85256Y-343461D01*
X-85310Y-343563D01*
X-85361Y-343666D01*
X-85408Y-343771D01*
X-85452Y-343877D01*
X-85492Y-343985D01*
X-85528Y-344095D01*
X-85561Y-344205D01*
X-85590Y-344317D01*
X-85614Y-344429D01*
X-85635Y-344542D01*
X-85652Y-344656D01*
X-85665Y-344771D01*
X-85675Y-344885D01*
X-85680Y-345000D01*
X-85681Y-345116D01*
X-85678Y-345231D01*
X-85671Y-345346D01*
X-85661Y-345460D01*
X-85646Y-345574D01*
X-85628Y-345688D01*
X-85605Y-345801D01*
X-85579Y-345913D01*
X-85549Y-346024D01*
X-85515Y-346134D01*
X-85477Y-346243D01*
X-85435Y-346350D01*
X-85390Y-346456D01*
X-85341Y-346561D01*
X-85289Y-346663D01*
X-85233Y-346764D01*
X-80298Y-348086D02*
X-76089Y-337313D01*
X-76400Y-329550D02*
X-92284Y-334550D01*
X-84705Y-326003D01*
X-95896Y-328293D01*
X-83625Y-317036D01*
X145997Y-335662D02*
X149609Y-329406D01*
X149610Y-329406D02*
X149675Y-329289D01*
X149737Y-329170D01*
X149795Y-329050D01*
X149850Y-328928D01*
X149900Y-328804D01*
X149948Y-328679D01*
X149991Y-328552D01*
X150031Y-328424D01*
X150067Y-328295D01*
X150099Y-328165D01*
X150127Y-328034D01*
X150151Y-327903D01*
X150172Y-327771D01*
X150188Y-327638D01*
X150201Y-327505D01*
X150209Y-327371D01*
X150214Y-327237D01*
X150215Y-327103D01*
X150211Y-326970D01*
X150204Y-326836D01*
X150193Y-326703D01*
X150178Y-326570D01*
X150159Y-326437D01*
X150136Y-326305D01*
X150109Y-326174D01*
X150078Y-326044D01*
X150043Y-325915D01*
X150005Y-325786D01*
X149963Y-325659D01*
X149917Y-325534D01*
X149867Y-325410D01*
X149814Y-325287D01*
X149757Y-325166D01*
X149696Y-325046D01*
X149632Y-324929D01*
X149565Y-324813D01*
X149494Y-324700D01*
X149419Y-324588D01*
X149342Y-324479D01*
X149261Y-324372D01*
X149178Y-324268D01*
X149091Y-324166D01*
X149001Y-324067D01*
X148908Y-323971D01*
X148812Y-323877D01*
X148714Y-323786D01*
X148613Y-323698D01*
X148510Y-323613D01*
X148404Y-323532D01*
X148295Y-323453D01*
X148185Y-323378D01*
X148072Y-323306D01*
X147957Y-323237D01*
X147840Y-323172D01*
X147721Y-323110D01*
X147601Y-323052D01*
X147479Y-322997D01*
X147355Y-322947D01*
X147230Y-322899D01*
X147103Y-322856D01*
X146975Y-322816D01*
X146846Y-322780D01*
X146716Y-322748D01*
X146586Y-322720D01*
X146454Y-322696D01*
X146322Y-322675D01*
X146189Y-322659D01*
X146056Y-322646D01*
X145922Y-322638D01*
X145788Y-322633D01*
X145654Y-322632D01*
X145521Y-322636D01*
X145387Y-322643D01*
X145254Y-322654D01*
X145121Y-322669D01*
X144988Y-322688D01*
X144856Y-322711D01*
X144725Y-322738D01*
X144595Y-322769D01*
X144466Y-322804D01*
X144337Y-322842D01*
X144210Y-322884D01*
X144085Y-322930D01*
X143961Y-322980D01*
X143838Y-323033D01*
X143717Y-323090D01*
X143597Y-323151D01*
X143480Y-323215D01*
X143364Y-323282D01*
X143251Y-323353D01*
X143139Y-323428D01*
X143030Y-323505D01*
X142923Y-323586D01*
X142819Y-323669D01*
X142717Y-323756D01*
X142618Y-323846D01*
X142522Y-323939D01*
X142428Y-324035D01*
X142337Y-324133D01*
X142249Y-324234D01*
X142164Y-324337D01*
X142083Y-324443D01*
X142004Y-324552D01*
X141929Y-324662D01*
X141857Y-324775D01*
X141788Y-324890D01*
X138176Y-331147D01*
X138175Y-331147D02*
X138110Y-331264D01*
X138048Y-331383D01*
X137990Y-331503D01*
X137935Y-331625D01*
X137885Y-331749D01*
X137837Y-331874D01*
X137794Y-332001D01*
X137754Y-332129D01*
X137718Y-332258D01*
X137686Y-332388D01*
X137658Y-332519D01*
X137634Y-332650D01*
X137613Y-332782D01*
X137597Y-332915D01*
X137584Y-333048D01*
X137576Y-333182D01*
X137571Y-333316D01*
X137570Y-333450D01*
X137574Y-333583D01*
X137581Y-333717D01*
X137592Y-333850D01*
X137607Y-333983D01*
X137626Y-334116D01*
X137649Y-334248D01*
X137676Y-334379D01*
X137707Y-334509D01*
X137742Y-334638D01*
X137780Y-334767D01*
X137822Y-334894D01*
X137868Y-335019D01*
X137918Y-335144D01*
X137971Y-335266D01*
X138028Y-335387D01*
X138089Y-335507D01*
X138153Y-335624D01*
X138220Y-335740D01*
X138291Y-335853D01*
X138366Y-335965D01*
X138443Y-336074D01*
X138524Y-336181D01*
X138608Y-336285D01*
X138694Y-336387D01*
X138784Y-336486D01*
X138877Y-336582D01*
X138973Y-336676D01*
X139071Y-336767D01*
X139172Y-336855D01*
X139275Y-336940D01*
X139381Y-337021D01*
X139490Y-337100D01*
X139600Y-337175D01*
X139713Y-337247D01*
X139828Y-337316D01*
X139945Y-337381D01*
X140064Y-337443D01*
X140184Y-337501D01*
X140306Y-337556D01*
X140430Y-337606D01*
X140555Y-337654D01*
X140682Y-337697D01*
X140810Y-337737D01*
X140939Y-337773D01*
X141069Y-337805D01*
X141200Y-337833D01*
X141331Y-337857D01*
X141463Y-337878D01*
X141596Y-337894D01*
X141729Y-337907D01*
X141863Y-337915D01*
X141997Y-337920D01*
X142131Y-337921D01*
X142264Y-337917D01*
X142398Y-337910D01*
X142531Y-337899D01*
X142664Y-337884D01*
X142797Y-337865D01*
X142929Y-337842D01*
X143060Y-337815D01*
X143190Y-337784D01*
X143319Y-337749D01*
X143448Y-337711D01*
X143575Y-337669D01*
X143700Y-337623D01*
X143825Y-337573D01*
X143947Y-337520D01*
X144068Y-337463D01*
X144188Y-337402D01*
X144305Y-337338D01*
X144421Y-337271D01*
X144534Y-337200D01*
X144646Y-337125D01*
X144755Y-337048D01*
X144862Y-336967D01*
X144966Y-336883D01*
X145068Y-336797D01*
X145167Y-336707D01*
X145263Y-336614D01*
X145357Y-336518D01*
X145448Y-336420D01*
X145536Y-336319D01*
X145621Y-336216D01*
X145702Y-336110D01*
X145781Y-336001D01*
X145856Y-335891D01*
X145928Y-335778D01*
X145997Y-335663D01*
X132009Y-327586D02*
X137879Y-317419D01*
X132009Y-327587D02*
X131940Y-327702D01*
X131868Y-327815D01*
X131793Y-327925D01*
X131714Y-328034D01*
X131633Y-328140D01*
X131548Y-328243D01*
X131460Y-328344D01*
X131369Y-328442D01*
X131275Y-328538D01*
X131179Y-328631D01*
X131080Y-328721D01*
X130978Y-328807D01*
X130874Y-328891D01*
X130767Y-328972D01*
X130658Y-329049D01*
X130546Y-329124D01*
X130433Y-329195D01*
X130317Y-329262D01*
X130200Y-329326D01*
X130080Y-329387D01*
X129959Y-329444D01*
X129837Y-329497D01*
X129712Y-329547D01*
X129587Y-329593D01*
X129460Y-329635D01*
X129331Y-329673D01*
X129202Y-329708D01*
X129072Y-329739D01*
X128941Y-329766D01*
X128809Y-329789D01*
X128676Y-329808D01*
X128543Y-329823D01*
X128410Y-329834D01*
X128276Y-329841D01*
X128143Y-329845D01*
X128009Y-329844D01*
X127875Y-329839D01*
X127741Y-329831D01*
X127608Y-329818D01*
X127475Y-329802D01*
X127343Y-329781D01*
X127212Y-329757D01*
X127081Y-329729D01*
X126951Y-329697D01*
X126822Y-329661D01*
X126694Y-329621D01*
X126567Y-329578D01*
X126442Y-329530D01*
X126318Y-329480D01*
X126196Y-329425D01*
X126076Y-329367D01*
X125957Y-329305D01*
X125840Y-329240D01*
X125725Y-329171D01*
X125612Y-329099D01*
X125502Y-329024D01*
X125393Y-328945D01*
X125287Y-328864D01*
X125184Y-328779D01*
X125083Y-328691D01*
X124985Y-328600D01*
X124889Y-328506D01*
X124796Y-328410D01*
X124706Y-328311D01*
X124620Y-328209D01*
X124536Y-328105D01*
X124455Y-327998D01*
X124378Y-327889D01*
X124303Y-327777D01*
X124232Y-327664D01*
X124165Y-327548D01*
X124101Y-327431D01*
X124040Y-327311D01*
X123983Y-327190D01*
X123930Y-327068D01*
X123880Y-326943D01*
X123834Y-326818D01*
X123792Y-326691D01*
X123754Y-326562D01*
X123719Y-326433D01*
X123688Y-326303D01*
X123661Y-326172D01*
X123638Y-326040D01*
X123619Y-325907D01*
X123604Y-325774D01*
X123593Y-325641D01*
X123586Y-325507D01*
X123582Y-325374D01*
X123583Y-325240D01*
X123588Y-325106D01*
X123596Y-324972D01*
X123609Y-324839D01*
X123625Y-324706D01*
X123646Y-324574D01*
X123670Y-324443D01*
X123698Y-324312D01*
X123730Y-324182D01*
X123766Y-324053D01*
X123806Y-323925D01*
X123849Y-323798D01*
X123897Y-323673D01*
X123947Y-323549D01*
X124002Y-323427D01*
X124060Y-323307D01*
X124122Y-323188D01*
X124187Y-323071D01*
X130058Y-312903D01*
X120882Y-307606D02*
X112754Y-321684D01*
X124793Y-309864D02*
X116972Y-305348D01*
X111681Y-302294D02*
X103553Y-316372D01*
X97297Y-312759D01*
X95339Y-304329D02*
X85954Y-298911D01*
X87937Y-306313D02*
X93356Y-296927D01*
D12*
X-24488Y313636D02*
X-24488Y320240D01*
D13*
X-22313Y333907D02*
X-20676Y333907D01*
X-20676Y333906D02*
X-20598Y333908D01*
X-20520Y333913D01*
X-20443Y333923D01*
X-20366Y333936D01*
X-20290Y333952D01*
X-20215Y333972D01*
X-20141Y333996D01*
X-20068Y334023D01*
X-19996Y334054D01*
X-19926Y334088D01*
X-19857Y334125D01*
X-19791Y334166D01*
X-19726Y334210D01*
X-19664Y334256D01*
X-19604Y334306D01*
X-19546Y334358D01*
X-19491Y334413D01*
X-19439Y334471D01*
X-19389Y334531D01*
X-19343Y334593D01*
X-19299Y334658D01*
X-19258Y334725D01*
X-19221Y334793D01*
X-19187Y334863D01*
X-19156Y334935D01*
X-19129Y335008D01*
X-19105Y335082D01*
X-19085Y335157D01*
X-19069Y335233D01*
X-19056Y335310D01*
X-19046Y335387D01*
X-19041Y335465D01*
X-19039Y335543D01*
X-19039Y339636D01*
X-19041Y339716D01*
X-19047Y339796D01*
X-19057Y339876D01*
X-19070Y339955D01*
X-19088Y340034D01*
X-19109Y340111D01*
X-19135Y340187D01*
X-19164Y340262D01*
X-19196Y340336D01*
X-19232Y340408D01*
X-19272Y340478D01*
X-19315Y340545D01*
X-19361Y340611D01*
X-19411Y340674D01*
X-19463Y340735D01*
X-19518Y340794D01*
X-19577Y340849D01*
X-19637Y340901D01*
X-19701Y340951D01*
X-19767Y340997D01*
X-19834Y341040D01*
X-19904Y341080D01*
X-19976Y341116D01*
X-20050Y341148D01*
X-20124Y341177D01*
X-20201Y341203D01*
X-20278Y341224D01*
X-20357Y341242D01*
X-20436Y341255D01*
X-20516Y341265D01*
X-20596Y341271D01*
X-20676Y341273D01*
X-22313Y341273D01*
X-27409Y341273D02*
X-27494Y341271D01*
X-27579Y341265D01*
X-27663Y341255D01*
X-27747Y341242D01*
X-27831Y341224D01*
X-27913Y341203D01*
X-27994Y341178D01*
X-28074Y341149D01*
X-28153Y341116D01*
X-28230Y341080D01*
X-28305Y341040D01*
X-28379Y340997D01*
X-28450Y340951D01*
X-28519Y340901D01*
X-28586Y340848D01*
X-28650Y340792D01*
X-28711Y340733D01*
X-28770Y340672D01*
X-28826Y340608D01*
X-28879Y340541D01*
X-28929Y340472D01*
X-28975Y340401D01*
X-29018Y340327D01*
X-29058Y340252D01*
X-29094Y340175D01*
X-29127Y340096D01*
X-29156Y340016D01*
X-29181Y339935D01*
X-29202Y339853D01*
X-29220Y339769D01*
X-29233Y339685D01*
X-29243Y339601D01*
X-29249Y339516D01*
X-29251Y339431D01*
X-27409Y341273D02*
X-27313Y341271D01*
X-27217Y341265D01*
X-27122Y341255D01*
X-27027Y341242D01*
X-26932Y341224D01*
X-26839Y341203D01*
X-26746Y341178D01*
X-26655Y341149D01*
X-26564Y341117D01*
X-26475Y341081D01*
X-26388Y341041D01*
X-26302Y340998D01*
X-26218Y340952D01*
X-26136Y340902D01*
X-26056Y340848D01*
X-25979Y340792D01*
X-25904Y340732D01*
X-25831Y340670D01*
X-25761Y340604D01*
X-25693Y340536D01*
X-25628Y340465D01*
X-25567Y340392D01*
X-25508Y340316D01*
X-25452Y340237D01*
X-25400Y340157D01*
X-25351Y340074D01*
X-25305Y339990D01*
X-25263Y339904D01*
X-25225Y339816D01*
X-25190Y339727D01*
X-25158Y339636D01*
X-28637Y337999D02*
X-28697Y338058D01*
X-28754Y338120D01*
X-28809Y338184D01*
X-28860Y338251D01*
X-28909Y338320D01*
X-28955Y338390D01*
X-28998Y338463D01*
X-29038Y338537D01*
X-29074Y338613D01*
X-29107Y338691D01*
X-29137Y338770D01*
X-29164Y338850D01*
X-29187Y338931D01*
X-29206Y339013D01*
X-29222Y339095D01*
X-29235Y339179D01*
X-29244Y339263D01*
X-29249Y339347D01*
X-29251Y339431D01*
X-28637Y337999D02*
X-25159Y333907D01*
X-29251Y333907D01*
D10*
X-53266Y298323D02*
X-73395Y298323D01*
D12*
X-63223Y315176D02*
X-63223Y321780D01*
D13*
X-60766Y338288D02*
X-59129Y338288D01*
X-59051Y338290D01*
X-58973Y338295D01*
X-58896Y338305D01*
X-58819Y338318D01*
X-58743Y338334D01*
X-58668Y338354D01*
X-58594Y338378D01*
X-58521Y338405D01*
X-58449Y338436D01*
X-58379Y338470D01*
X-58310Y338507D01*
X-58244Y338548D01*
X-58179Y338592D01*
X-58117Y338638D01*
X-58057Y338688D01*
X-57999Y338740D01*
X-57944Y338795D01*
X-57892Y338853D01*
X-57842Y338913D01*
X-57796Y338975D01*
X-57752Y339040D01*
X-57711Y339107D01*
X-57674Y339175D01*
X-57640Y339245D01*
X-57609Y339317D01*
X-57582Y339390D01*
X-57558Y339464D01*
X-57538Y339539D01*
X-57522Y339615D01*
X-57509Y339692D01*
X-57499Y339769D01*
X-57494Y339847D01*
X-57492Y339925D01*
X-57493Y339925D02*
X-57493Y344017D01*
X-57492Y344017D02*
X-57494Y344097D01*
X-57500Y344177D01*
X-57510Y344257D01*
X-57523Y344336D01*
X-57541Y344415D01*
X-57562Y344492D01*
X-57588Y344568D01*
X-57617Y344643D01*
X-57649Y344717D01*
X-57685Y344789D01*
X-57725Y344859D01*
X-57768Y344926D01*
X-57814Y344992D01*
X-57864Y345055D01*
X-57916Y345116D01*
X-57971Y345175D01*
X-58030Y345230D01*
X-58090Y345282D01*
X-58154Y345332D01*
X-58220Y345378D01*
X-58287Y345421D01*
X-58357Y345461D01*
X-58429Y345497D01*
X-58503Y345529D01*
X-58577Y345558D01*
X-58654Y345584D01*
X-58731Y345605D01*
X-58810Y345623D01*
X-58889Y345636D01*
X-58969Y345646D01*
X-59049Y345652D01*
X-59129Y345654D01*
X-60766Y345654D01*
X-63612Y338288D02*
X-65658Y338288D01*
X-65747Y338290D01*
X-65836Y338296D01*
X-65925Y338306D01*
X-66013Y338319D01*
X-66101Y338336D01*
X-66188Y338358D01*
X-66273Y338383D01*
X-66358Y338411D01*
X-66441Y338444D01*
X-66523Y338480D01*
X-66603Y338519D01*
X-66681Y338562D01*
X-66757Y338608D01*
X-66832Y338658D01*
X-66904Y338711D01*
X-66973Y338767D01*
X-67040Y338826D01*
X-67105Y338887D01*
X-67166Y338952D01*
X-67225Y339019D01*
X-67281Y339088D01*
X-67334Y339160D01*
X-67384Y339235D01*
X-67430Y339311D01*
X-67473Y339389D01*
X-67512Y339469D01*
X-67548Y339551D01*
X-67581Y339634D01*
X-67609Y339719D01*
X-67634Y339804D01*
X-67656Y339891D01*
X-67673Y339979D01*
X-67686Y340067D01*
X-67696Y340156D01*
X-67702Y340245D01*
X-67704Y340334D01*
X-67702Y340423D01*
X-67696Y340512D01*
X-67686Y340601D01*
X-67673Y340689D01*
X-67656Y340777D01*
X-67634Y340864D01*
X-67609Y340949D01*
X-67581Y341034D01*
X-67548Y341117D01*
X-67512Y341199D01*
X-67473Y341279D01*
X-67430Y341357D01*
X-67384Y341433D01*
X-67334Y341508D01*
X-67281Y341580D01*
X-67225Y341649D01*
X-67166Y341716D01*
X-67105Y341781D01*
X-67040Y341842D01*
X-66973Y341901D01*
X-66904Y341957D01*
X-66832Y342010D01*
X-66757Y342060D01*
X-66681Y342106D01*
X-66603Y342149D01*
X-66523Y342188D01*
X-66441Y342224D01*
X-66358Y342257D01*
X-66273Y342285D01*
X-66188Y342310D01*
X-66101Y342332D01*
X-66013Y342349D01*
X-65925Y342362D01*
X-65836Y342372D01*
X-65747Y342378D01*
X-65658Y342380D01*
X-66067Y345654D02*
X-63612Y345654D01*
X-66067Y345654D02*
X-66146Y345652D01*
X-66225Y345646D01*
X-66304Y345637D01*
X-66382Y345624D01*
X-66459Y345606D01*
X-66535Y345586D01*
X-66610Y345561D01*
X-66684Y345533D01*
X-66757Y345502D01*
X-66828Y345466D01*
X-66897Y345428D01*
X-66964Y345386D01*
X-67029Y345341D01*
X-67092Y345293D01*
X-67153Y345242D01*
X-67210Y345188D01*
X-67266Y345132D01*
X-67318Y345073D01*
X-67368Y345011D01*
X-67414Y344947D01*
X-67458Y344881D01*
X-67498Y344813D01*
X-67534Y344743D01*
X-67568Y344671D01*
X-67598Y344597D01*
X-67624Y344523D01*
X-67647Y344447D01*
X-67665Y344370D01*
X-67681Y344293D01*
X-67692Y344214D01*
X-67700Y344136D01*
X-67704Y344057D01*
X-67704Y343977D01*
X-67700Y343898D01*
X-67692Y343820D01*
X-67681Y343741D01*
X-67665Y343664D01*
X-67647Y343587D01*
X-67624Y343511D01*
X-67598Y343437D01*
X-67568Y343363D01*
X-67534Y343291D01*
X-67498Y343221D01*
X-67458Y343153D01*
X-67414Y343087D01*
X-67368Y343023D01*
X-67318Y342961D01*
X-67266Y342902D01*
X-67210Y342846D01*
X-67153Y342792D01*
X-67092Y342741D01*
X-67029Y342693D01*
X-66964Y342648D01*
X-66897Y342606D01*
X-66828Y342568D01*
X-66757Y342532D01*
X-66684Y342501D01*
X-66610Y342473D01*
X-66535Y342448D01*
X-66459Y342428D01*
X-66382Y342410D01*
X-66304Y342397D01*
X-66225Y342388D01*
X-66146Y342382D01*
X-66067Y342380D01*
X-64430Y342380D01*
D12*
X54841Y316539D02*
X54841Y309935D01*
D13*
X58477Y288870D02*
X60114Y288870D01*
X60192Y288872D01*
X60270Y288877D01*
X60347Y288887D01*
X60424Y288900D01*
X60500Y288916D01*
X60575Y288936D01*
X60649Y288960D01*
X60722Y288987D01*
X60794Y289018D01*
X60864Y289052D01*
X60933Y289089D01*
X60999Y289130D01*
X61064Y289174D01*
X61126Y289220D01*
X61186Y289270D01*
X61244Y289322D01*
X61299Y289377D01*
X61351Y289435D01*
X61401Y289495D01*
X61447Y289557D01*
X61491Y289622D01*
X61532Y289689D01*
X61569Y289757D01*
X61603Y289827D01*
X61634Y289899D01*
X61661Y289972D01*
X61685Y290046D01*
X61705Y290121D01*
X61721Y290197D01*
X61734Y290274D01*
X61744Y290351D01*
X61749Y290429D01*
X61751Y290507D01*
X61751Y294599D01*
X61749Y294677D01*
X61744Y294755D01*
X61734Y294832D01*
X61721Y294909D01*
X61705Y294985D01*
X61685Y295060D01*
X61661Y295134D01*
X61634Y295207D01*
X61603Y295279D01*
X61569Y295349D01*
X61532Y295418D01*
X61491Y295484D01*
X61447Y295549D01*
X61401Y295611D01*
X61351Y295671D01*
X61299Y295729D01*
X61244Y295784D01*
X61186Y295836D01*
X61126Y295886D01*
X61064Y295932D01*
X60999Y295976D01*
X60933Y296017D01*
X60864Y296054D01*
X60794Y296088D01*
X60722Y296119D01*
X60649Y296146D01*
X60575Y296170D01*
X60500Y296190D01*
X60424Y296206D01*
X60347Y296219D01*
X60270Y296229D01*
X60192Y296234D01*
X60114Y296236D01*
X58477Y296236D01*
X55631Y294599D02*
X53585Y296236D01*
X53585Y288870D01*
X55631Y288870D02*
X51539Y288870D01*
D12*
X-9168Y313491D02*
X-9168Y320095D01*
D13*
X-2119Y307462D02*
X-2119Y305825D01*
X-2117Y305747D01*
X-2112Y305669D01*
X-2102Y305592D01*
X-2089Y305515D01*
X-2073Y305439D01*
X-2053Y305364D01*
X-2029Y305290D01*
X-2002Y305217D01*
X-1971Y305145D01*
X-1937Y305075D01*
X-1900Y305007D01*
X-1859Y304940D01*
X-1815Y304875D01*
X-1769Y304813D01*
X-1719Y304753D01*
X-1667Y304695D01*
X-1612Y304640D01*
X-1554Y304588D01*
X-1494Y304538D01*
X-1432Y304492D01*
X-1367Y304448D01*
X-1301Y304407D01*
X-1232Y304370D01*
X-1162Y304336D01*
X-1090Y304305D01*
X-1017Y304278D01*
X-943Y304254D01*
X-868Y304234D01*
X-792Y304218D01*
X-715Y304205D01*
X-638Y304195D01*
X-560Y304190D01*
X-482Y304188D01*
X3610Y304188D01*
X3688Y304190D01*
X3766Y304195D01*
X3843Y304205D01*
X3920Y304218D01*
X3996Y304234D01*
X4071Y304254D01*
X4145Y304278D01*
X4218Y304305D01*
X4290Y304336D01*
X4360Y304370D01*
X4429Y304407D01*
X4495Y304448D01*
X4560Y304492D01*
X4622Y304538D01*
X4682Y304588D01*
X4740Y304640D01*
X4795Y304695D01*
X4847Y304753D01*
X4897Y304813D01*
X4943Y304875D01*
X4987Y304940D01*
X5028Y305007D01*
X5065Y305075D01*
X5099Y305145D01*
X5130Y305217D01*
X5157Y305290D01*
X5181Y305364D01*
X5201Y305439D01*
X5217Y305515D01*
X5230Y305592D01*
X5240Y305669D01*
X5245Y305747D01*
X5247Y305825D01*
X5247Y307462D01*
X5247Y311944D02*
X-482Y310307D01*
X-482Y314399D01*
X1155Y313171D02*
X-2119Y313171D01*
D10*
X-32946Y298323D02*
X-53075Y298323D01*
D12*
X-42903Y315176D02*
X-42903Y321780D01*
D13*
X-42447Y338288D02*
X-40810Y338288D01*
X-40732Y338290D01*
X-40654Y338295D01*
X-40577Y338305D01*
X-40500Y338318D01*
X-40424Y338334D01*
X-40349Y338354D01*
X-40275Y338378D01*
X-40202Y338405D01*
X-40130Y338436D01*
X-40060Y338470D01*
X-39991Y338507D01*
X-39925Y338548D01*
X-39860Y338592D01*
X-39798Y338638D01*
X-39738Y338688D01*
X-39680Y338740D01*
X-39625Y338795D01*
X-39573Y338853D01*
X-39523Y338913D01*
X-39477Y338975D01*
X-39433Y339040D01*
X-39392Y339107D01*
X-39355Y339175D01*
X-39321Y339245D01*
X-39290Y339317D01*
X-39263Y339390D01*
X-39239Y339464D01*
X-39219Y339539D01*
X-39203Y339615D01*
X-39190Y339692D01*
X-39180Y339769D01*
X-39175Y339847D01*
X-39173Y339925D01*
X-39173Y344017D01*
X-39175Y344097D01*
X-39181Y344177D01*
X-39191Y344257D01*
X-39204Y344336D01*
X-39222Y344415D01*
X-39243Y344492D01*
X-39269Y344568D01*
X-39298Y344643D01*
X-39330Y344717D01*
X-39366Y344789D01*
X-39406Y344859D01*
X-39449Y344926D01*
X-39495Y344992D01*
X-39545Y345055D01*
X-39597Y345116D01*
X-39652Y345175D01*
X-39711Y345230D01*
X-39771Y345282D01*
X-39835Y345332D01*
X-39901Y345378D01*
X-39968Y345421D01*
X-40038Y345461D01*
X-40110Y345497D01*
X-40184Y345529D01*
X-40258Y345558D01*
X-40335Y345584D01*
X-40412Y345605D01*
X-40491Y345623D01*
X-40570Y345636D01*
X-40650Y345646D01*
X-40730Y345652D01*
X-40810Y345654D01*
X-42447Y345654D01*
X-45292Y338288D02*
X-47747Y338288D01*
X-47825Y338290D01*
X-47903Y338295D01*
X-47980Y338305D01*
X-48057Y338318D01*
X-48133Y338334D01*
X-48208Y338354D01*
X-48282Y338378D01*
X-48355Y338405D01*
X-48427Y338436D01*
X-48497Y338470D01*
X-48566Y338507D01*
X-48632Y338548D01*
X-48697Y338592D01*
X-48759Y338638D01*
X-48819Y338688D01*
X-48877Y338740D01*
X-48932Y338795D01*
X-48984Y338853D01*
X-49034Y338913D01*
X-49080Y338975D01*
X-49124Y339040D01*
X-49165Y339107D01*
X-49202Y339175D01*
X-49236Y339245D01*
X-49267Y339317D01*
X-49294Y339390D01*
X-49318Y339464D01*
X-49338Y339539D01*
X-49354Y339615D01*
X-49367Y339692D01*
X-49377Y339769D01*
X-49382Y339847D01*
X-49384Y339925D01*
X-49384Y340743D01*
X-49382Y340821D01*
X-49377Y340899D01*
X-49367Y340976D01*
X-49354Y341053D01*
X-49338Y341129D01*
X-49318Y341204D01*
X-49294Y341278D01*
X-49267Y341351D01*
X-49236Y341423D01*
X-49202Y341493D01*
X-49165Y341562D01*
X-49124Y341628D01*
X-49080Y341693D01*
X-49034Y341755D01*
X-48984Y341815D01*
X-48932Y341873D01*
X-48877Y341928D01*
X-48819Y341980D01*
X-48759Y342030D01*
X-48697Y342076D01*
X-48632Y342120D01*
X-48566Y342161D01*
X-48497Y342198D01*
X-48427Y342232D01*
X-48355Y342263D01*
X-48282Y342290D01*
X-48208Y342314D01*
X-48133Y342334D01*
X-48057Y342350D01*
X-47980Y342363D01*
X-47903Y342373D01*
X-47825Y342378D01*
X-47747Y342380D01*
X-45292Y342380D01*
X-45292Y345654D01*
X-49384Y345654D01*
D12*
X18828Y203200D02*
X25432Y203200D01*
D13*
X37941Y203706D02*
X37941Y205343D01*
X37941Y203706D02*
X37943Y203628D01*
X37948Y203550D01*
X37958Y203473D01*
X37971Y203396D01*
X37987Y203320D01*
X38007Y203245D01*
X38031Y203171D01*
X38058Y203098D01*
X38089Y203026D01*
X38123Y202956D01*
X38160Y202888D01*
X38201Y202821D01*
X38245Y202756D01*
X38291Y202694D01*
X38341Y202634D01*
X38393Y202576D01*
X38448Y202521D01*
X38506Y202469D01*
X38566Y202419D01*
X38628Y202373D01*
X38693Y202329D01*
X38760Y202288D01*
X38828Y202251D01*
X38898Y202217D01*
X38970Y202186D01*
X39043Y202159D01*
X39117Y202135D01*
X39192Y202115D01*
X39268Y202099D01*
X39345Y202086D01*
X39422Y202076D01*
X39500Y202071D01*
X39578Y202069D01*
X43670Y202069D01*
X43748Y202071D01*
X43826Y202076D01*
X43903Y202086D01*
X43980Y202099D01*
X44056Y202115D01*
X44131Y202135D01*
X44205Y202159D01*
X44278Y202186D01*
X44350Y202217D01*
X44420Y202251D01*
X44489Y202288D01*
X44555Y202329D01*
X44620Y202373D01*
X44682Y202419D01*
X44742Y202469D01*
X44800Y202521D01*
X44855Y202576D01*
X44907Y202634D01*
X44957Y202694D01*
X45003Y202756D01*
X45047Y202821D01*
X45088Y202888D01*
X45125Y202956D01*
X45159Y203026D01*
X45190Y203098D01*
X45217Y203171D01*
X45241Y203245D01*
X45261Y203320D01*
X45277Y203396D01*
X45290Y203473D01*
X45300Y203550D01*
X45305Y203628D01*
X45307Y203706D01*
X45307Y205343D01*
X42033Y208188D02*
X42033Y210644D01*
X42034Y210644D02*
X42032Y210722D01*
X42027Y210800D01*
X42017Y210877D01*
X42004Y210954D01*
X41988Y211030D01*
X41968Y211105D01*
X41944Y211179D01*
X41917Y211252D01*
X41886Y211324D01*
X41852Y211394D01*
X41815Y211463D01*
X41774Y211529D01*
X41730Y211594D01*
X41684Y211656D01*
X41634Y211716D01*
X41582Y211774D01*
X41527Y211829D01*
X41469Y211881D01*
X41409Y211931D01*
X41347Y211977D01*
X41282Y212021D01*
X41216Y212062D01*
X41147Y212099D01*
X41077Y212133D01*
X41005Y212164D01*
X40932Y212191D01*
X40858Y212215D01*
X40783Y212235D01*
X40707Y212251D01*
X40630Y212264D01*
X40553Y212274D01*
X40475Y212279D01*
X40397Y212281D01*
X39987Y212281D01*
X39987Y212280D02*
X39898Y212278D01*
X39809Y212272D01*
X39720Y212262D01*
X39632Y212249D01*
X39544Y212232D01*
X39457Y212210D01*
X39372Y212185D01*
X39287Y212157D01*
X39204Y212124D01*
X39122Y212088D01*
X39042Y212049D01*
X38964Y212006D01*
X38888Y211960D01*
X38813Y211910D01*
X38741Y211857D01*
X38672Y211801D01*
X38605Y211742D01*
X38540Y211681D01*
X38479Y211616D01*
X38420Y211549D01*
X38364Y211480D01*
X38311Y211408D01*
X38261Y211333D01*
X38215Y211257D01*
X38172Y211179D01*
X38133Y211099D01*
X38097Y211017D01*
X38064Y210934D01*
X38036Y210849D01*
X38011Y210764D01*
X37989Y210677D01*
X37972Y210589D01*
X37959Y210501D01*
X37949Y210412D01*
X37943Y210323D01*
X37941Y210234D01*
X37943Y210145D01*
X37949Y210056D01*
X37959Y209967D01*
X37972Y209879D01*
X37989Y209791D01*
X38011Y209704D01*
X38036Y209619D01*
X38064Y209534D01*
X38097Y209451D01*
X38133Y209369D01*
X38172Y209289D01*
X38215Y209211D01*
X38261Y209135D01*
X38311Y209060D01*
X38364Y208988D01*
X38420Y208919D01*
X38479Y208852D01*
X38540Y208787D01*
X38605Y208726D01*
X38672Y208667D01*
X38741Y208611D01*
X38813Y208558D01*
X38888Y208508D01*
X38964Y208462D01*
X39042Y208419D01*
X39122Y208380D01*
X39204Y208344D01*
X39287Y208311D01*
X39372Y208283D01*
X39457Y208258D01*
X39544Y208236D01*
X39632Y208219D01*
X39720Y208206D01*
X39809Y208196D01*
X39898Y208190D01*
X39987Y208188D01*
X42033Y208188D01*
X42147Y208190D01*
X42261Y208196D01*
X42375Y208206D01*
X42489Y208220D01*
X42602Y208238D01*
X42714Y208260D01*
X42825Y208285D01*
X42935Y208315D01*
X43045Y208348D01*
X43153Y208385D01*
X43259Y208426D01*
X43365Y208471D01*
X43468Y208519D01*
X43570Y208571D01*
X43670Y208627D01*
X43768Y208685D01*
X43864Y208748D01*
X43957Y208813D01*
X44049Y208882D01*
X44137Y208954D01*
X44224Y209029D01*
X44307Y209107D01*
X44388Y209188D01*
X44466Y209271D01*
X44541Y209358D01*
X44613Y209446D01*
X44682Y209538D01*
X44747Y209631D01*
X44809Y209727D01*
X44868Y209825D01*
X44924Y209925D01*
X44976Y210027D01*
X45024Y210130D01*
X45069Y210236D01*
X45110Y210342D01*
X45147Y210450D01*
X45180Y210560D01*
X45210Y210670D01*
X45235Y210781D01*
X45257Y210893D01*
X45275Y211006D01*
X45289Y211120D01*
X45299Y211234D01*
X45305Y211348D01*
X45307Y211462D01*
D10*
X7626Y195624D02*
X7626Y175495D01*
D12*
X24479Y185452D02*
X31083Y185452D01*
D13*
X52416Y182372D02*
X54053Y182372D01*
X54131Y182374D01*
X54209Y182379D01*
X54286Y182389D01*
X54363Y182402D01*
X54439Y182418D01*
X54514Y182438D01*
X54588Y182462D01*
X54661Y182489D01*
X54733Y182520D01*
X54803Y182554D01*
X54872Y182591D01*
X54938Y182632D01*
X55003Y182676D01*
X55065Y182722D01*
X55125Y182772D01*
X55183Y182824D01*
X55238Y182879D01*
X55290Y182937D01*
X55340Y182997D01*
X55386Y183059D01*
X55430Y183124D01*
X55471Y183191D01*
X55508Y183259D01*
X55542Y183329D01*
X55573Y183401D01*
X55600Y183474D01*
X55624Y183548D01*
X55644Y183623D01*
X55660Y183699D01*
X55673Y183776D01*
X55683Y183853D01*
X55688Y183931D01*
X55690Y184009D01*
X55690Y188101D01*
X55688Y188179D01*
X55683Y188257D01*
X55673Y188334D01*
X55660Y188411D01*
X55644Y188487D01*
X55624Y188562D01*
X55600Y188636D01*
X55573Y188709D01*
X55542Y188781D01*
X55508Y188851D01*
X55471Y188920D01*
X55430Y188986D01*
X55386Y189051D01*
X55340Y189113D01*
X55290Y189173D01*
X55238Y189231D01*
X55183Y189286D01*
X55125Y189338D01*
X55065Y189388D01*
X55003Y189434D01*
X54938Y189478D01*
X54872Y189519D01*
X54803Y189556D01*
X54733Y189590D01*
X54661Y189621D01*
X54588Y189648D01*
X54514Y189672D01*
X54439Y189692D01*
X54363Y189708D01*
X54286Y189721D01*
X54209Y189731D01*
X54131Y189736D01*
X54053Y189738D01*
X52416Y189738D01*
X49570Y189738D02*
X49570Y188920D01*
X49570Y189738D02*
X45478Y189738D01*
X47524Y182372D01*
X-78423Y338550D02*
X-85789Y338550D01*
X-78423Y338550D02*
X-78423Y341824D01*
X-81696Y341824D02*
X-81696Y338550D01*
X-81696Y344992D02*
X-81696Y347038D01*
X-81698Y347127D01*
X-81704Y347216D01*
X-81714Y347305D01*
X-81727Y347393D01*
X-81744Y347481D01*
X-81766Y347568D01*
X-81791Y347653D01*
X-81819Y347738D01*
X-81852Y347821D01*
X-81888Y347903D01*
X-81927Y347983D01*
X-81970Y348061D01*
X-82016Y348137D01*
X-82066Y348212D01*
X-82119Y348284D01*
X-82175Y348353D01*
X-82234Y348420D01*
X-82295Y348485D01*
X-82360Y348546D01*
X-82427Y348605D01*
X-82496Y348661D01*
X-82568Y348714D01*
X-82643Y348764D01*
X-82719Y348810D01*
X-82797Y348853D01*
X-82877Y348892D01*
X-82959Y348928D01*
X-83042Y348961D01*
X-83127Y348989D01*
X-83212Y349014D01*
X-83299Y349036D01*
X-83387Y349053D01*
X-83475Y349066D01*
X-83564Y349076D01*
X-83653Y349082D01*
X-83742Y349084D01*
X-83831Y349082D01*
X-83920Y349076D01*
X-84009Y349066D01*
X-84097Y349053D01*
X-84185Y349036D01*
X-84272Y349014D01*
X-84357Y348989D01*
X-84442Y348961D01*
X-84525Y348928D01*
X-84607Y348892D01*
X-84687Y348853D01*
X-84765Y348810D01*
X-84841Y348764D01*
X-84916Y348714D01*
X-84988Y348661D01*
X-85057Y348605D01*
X-85124Y348546D01*
X-85189Y348485D01*
X-85250Y348420D01*
X-85309Y348353D01*
X-85365Y348284D01*
X-85418Y348212D01*
X-85468Y348137D01*
X-85514Y348061D01*
X-85557Y347983D01*
X-85596Y347903D01*
X-85632Y347821D01*
X-85665Y347738D01*
X-85693Y347653D01*
X-85718Y347568D01*
X-85740Y347481D01*
X-85757Y347393D01*
X-85770Y347305D01*
X-85780Y347216D01*
X-85786Y347127D01*
X-85788Y347038D01*
X-85789Y347038D02*
X-85789Y344992D01*
X-78423Y344992D01*
X-78423Y347038D01*
X-78422Y347038D02*
X-78424Y347117D01*
X-78430Y347196D01*
X-78439Y347275D01*
X-78452Y347353D01*
X-78470Y347430D01*
X-78490Y347506D01*
X-78515Y347581D01*
X-78543Y347655D01*
X-78574Y347728D01*
X-78610Y347799D01*
X-78648Y347868D01*
X-78690Y347935D01*
X-78735Y348000D01*
X-78783Y348063D01*
X-78834Y348124D01*
X-78888Y348181D01*
X-78944Y348237D01*
X-79003Y348289D01*
X-79065Y348339D01*
X-79129Y348385D01*
X-79195Y348429D01*
X-79263Y348469D01*
X-79333Y348505D01*
X-79405Y348539D01*
X-79479Y348569D01*
X-79553Y348595D01*
X-79629Y348618D01*
X-79706Y348636D01*
X-79783Y348652D01*
X-79862Y348663D01*
X-79940Y348671D01*
X-80019Y348675D01*
X-80099Y348675D01*
X-80178Y348671D01*
X-80256Y348663D01*
X-80335Y348652D01*
X-80412Y348636D01*
X-80489Y348618D01*
X-80565Y348595D01*
X-80639Y348569D01*
X-80713Y348539D01*
X-80785Y348505D01*
X-80855Y348469D01*
X-80923Y348429D01*
X-80989Y348385D01*
X-81053Y348339D01*
X-81115Y348289D01*
X-81174Y348237D01*
X-81230Y348181D01*
X-81284Y348124D01*
X-81335Y348063D01*
X-81383Y348000D01*
X-81428Y347935D01*
X-81470Y347868D01*
X-81508Y347799D01*
X-81544Y347728D01*
X-81575Y347655D01*
X-81603Y347581D01*
X-81628Y347506D01*
X-81648Y347430D01*
X-81666Y347353D01*
X-81679Y347275D01*
X-81688Y347196D01*
X-81694Y347117D01*
X-81696Y347038D01*
X-80059Y351946D02*
X-78423Y353992D01*
X-85789Y353992D01*
X-85789Y351946D02*
X-85789Y356038D01*
D12*
X-1746Y197930D02*
X-1746Y191580D01*
D13*
X4086Y177641D02*
X4086Y170275D01*
X4086Y177641D02*
X2039Y177641D01*
X1950Y177639D01*
X1861Y177633D01*
X1772Y177623D01*
X1684Y177610D01*
X1596Y177593D01*
X1509Y177571D01*
X1424Y177546D01*
X1339Y177518D01*
X1256Y177485D01*
X1174Y177449D01*
X1094Y177410D01*
X1016Y177367D01*
X940Y177321D01*
X865Y177271D01*
X793Y177218D01*
X724Y177162D01*
X657Y177103D01*
X592Y177042D01*
X531Y176977D01*
X472Y176910D01*
X416Y176841D01*
X363Y176769D01*
X313Y176694D01*
X267Y176618D01*
X224Y176540D01*
X185Y176460D01*
X149Y176378D01*
X116Y176295D01*
X88Y176210D01*
X63Y176125D01*
X41Y176038D01*
X24Y175950D01*
X11Y175862D01*
X1Y175773D01*
X-5Y175684D01*
X-7Y175595D01*
X-5Y175506D01*
X1Y175417D01*
X11Y175328D01*
X24Y175240D01*
X41Y175152D01*
X63Y175065D01*
X88Y174980D01*
X116Y174895D01*
X149Y174812D01*
X185Y174730D01*
X224Y174650D01*
X267Y174572D01*
X313Y174496D01*
X363Y174421D01*
X416Y174349D01*
X472Y174280D01*
X531Y174213D01*
X592Y174148D01*
X657Y174087D01*
X724Y174028D01*
X793Y173972D01*
X865Y173919D01*
X940Y173869D01*
X1016Y173823D01*
X1094Y173780D01*
X1174Y173741D01*
X1256Y173705D01*
X1339Y173672D01*
X1424Y173644D01*
X1509Y173619D01*
X1596Y173597D01*
X1684Y173580D01*
X1772Y173567D01*
X1861Y173557D01*
X1950Y173551D01*
X2039Y173549D01*
X4086Y173549D01*
X1630Y173549D02*
X-7Y170275D01*
X-7271Y175800D02*
X-7269Y175885D01*
X-7263Y175970D01*
X-7253Y176054D01*
X-7240Y176138D01*
X-7222Y176222D01*
X-7201Y176304D01*
X-7176Y176385D01*
X-7147Y176465D01*
X-7114Y176544D01*
X-7078Y176621D01*
X-7038Y176696D01*
X-6995Y176770D01*
X-6949Y176841D01*
X-6899Y176910D01*
X-6846Y176977D01*
X-6790Y177041D01*
X-6731Y177102D01*
X-6670Y177161D01*
X-6606Y177217D01*
X-6539Y177270D01*
X-6470Y177320D01*
X-6399Y177366D01*
X-6325Y177409D01*
X-6250Y177449D01*
X-6173Y177485D01*
X-6094Y177518D01*
X-6014Y177547D01*
X-5933Y177572D01*
X-5851Y177593D01*
X-5767Y177611D01*
X-5683Y177624D01*
X-5599Y177634D01*
X-5514Y177640D01*
X-5429Y177642D01*
X-5429Y177641D02*
X-5333Y177639D01*
X-5237Y177633D01*
X-5142Y177623D01*
X-5047Y177610D01*
X-4952Y177592D01*
X-4859Y177571D01*
X-4766Y177546D01*
X-4675Y177517D01*
X-4584Y177485D01*
X-4495Y177449D01*
X-4408Y177409D01*
X-4322Y177366D01*
X-4238Y177320D01*
X-4156Y177270D01*
X-4076Y177216D01*
X-3999Y177160D01*
X-3924Y177100D01*
X-3851Y177038D01*
X-3781Y176972D01*
X-3713Y176904D01*
X-3648Y176833D01*
X-3587Y176760D01*
X-3528Y176684D01*
X-3472Y176605D01*
X-3420Y176525D01*
X-3371Y176442D01*
X-3325Y176358D01*
X-3283Y176272D01*
X-3245Y176184D01*
X-3210Y176095D01*
X-3178Y176004D01*
X-6657Y174368D02*
X-6717Y174427D01*
X-6774Y174489D01*
X-6829Y174553D01*
X-6880Y174620D01*
X-6929Y174689D01*
X-6975Y174759D01*
X-7018Y174832D01*
X-7058Y174906D01*
X-7094Y174982D01*
X-7127Y175060D01*
X-7157Y175139D01*
X-7184Y175219D01*
X-7207Y175300D01*
X-7226Y175382D01*
X-7242Y175464D01*
X-7255Y175548D01*
X-7264Y175632D01*
X-7269Y175716D01*
X-7271Y175800D01*
X-6657Y174367D02*
X-3179Y170275D01*
X-7271Y170275D01*
D12*
X-21050Y195358D02*
X-21050Y201708D01*
D13*
X-14679Y182213D02*
X-14679Y174847D01*
X-14679Y182213D02*
X-16725Y182213D01*
X-16814Y182211D01*
X-16903Y182205D01*
X-16992Y182195D01*
X-17080Y182182D01*
X-17168Y182165D01*
X-17255Y182143D01*
X-17340Y182118D01*
X-17425Y182090D01*
X-17508Y182057D01*
X-17590Y182021D01*
X-17670Y181982D01*
X-17748Y181939D01*
X-17824Y181893D01*
X-17899Y181843D01*
X-17971Y181790D01*
X-18040Y181734D01*
X-18107Y181675D01*
X-18172Y181614D01*
X-18233Y181549D01*
X-18292Y181482D01*
X-18348Y181413D01*
X-18401Y181341D01*
X-18451Y181266D01*
X-18497Y181190D01*
X-18540Y181112D01*
X-18579Y181032D01*
X-18615Y180950D01*
X-18648Y180867D01*
X-18676Y180782D01*
X-18701Y180697D01*
X-18723Y180610D01*
X-18740Y180522D01*
X-18753Y180434D01*
X-18763Y180345D01*
X-18769Y180256D01*
X-18771Y180167D01*
X-18769Y180078D01*
X-18763Y179989D01*
X-18753Y179900D01*
X-18740Y179812D01*
X-18723Y179724D01*
X-18701Y179637D01*
X-18676Y179552D01*
X-18648Y179467D01*
X-18615Y179384D01*
X-18579Y179302D01*
X-18540Y179222D01*
X-18497Y179144D01*
X-18451Y179068D01*
X-18401Y178993D01*
X-18348Y178921D01*
X-18292Y178852D01*
X-18233Y178785D01*
X-18172Y178720D01*
X-18107Y178659D01*
X-18040Y178600D01*
X-17971Y178544D01*
X-17899Y178491D01*
X-17824Y178441D01*
X-17748Y178395D01*
X-17670Y178352D01*
X-17590Y178313D01*
X-17508Y178277D01*
X-17425Y178244D01*
X-17340Y178216D01*
X-17255Y178191D01*
X-17168Y178169D01*
X-17080Y178152D01*
X-16992Y178139D01*
X-16903Y178129D01*
X-16814Y178123D01*
X-16725Y178121D01*
X-14679Y178121D01*
X-17134Y178121D02*
X-18771Y174847D01*
X-21943Y174847D02*
X-23989Y174847D01*
X-24078Y174849D01*
X-24167Y174855D01*
X-24256Y174865D01*
X-24344Y174878D01*
X-24432Y174895D01*
X-24519Y174917D01*
X-24604Y174942D01*
X-24689Y174970D01*
X-24772Y175003D01*
X-24854Y175039D01*
X-24934Y175078D01*
X-25012Y175121D01*
X-25088Y175167D01*
X-25163Y175217D01*
X-25235Y175270D01*
X-25304Y175326D01*
X-25371Y175385D01*
X-25436Y175446D01*
X-25497Y175511D01*
X-25556Y175578D01*
X-25612Y175647D01*
X-25665Y175719D01*
X-25715Y175794D01*
X-25761Y175870D01*
X-25804Y175948D01*
X-25843Y176028D01*
X-25879Y176110D01*
X-25912Y176193D01*
X-25940Y176278D01*
X-25965Y176363D01*
X-25987Y176450D01*
X-26004Y176538D01*
X-26017Y176626D01*
X-26027Y176715D01*
X-26033Y176804D01*
X-26035Y176893D01*
X-26033Y176982D01*
X-26027Y177071D01*
X-26017Y177160D01*
X-26004Y177248D01*
X-25987Y177336D01*
X-25965Y177423D01*
X-25940Y177508D01*
X-25912Y177593D01*
X-25879Y177676D01*
X-25843Y177758D01*
X-25804Y177838D01*
X-25761Y177916D01*
X-25715Y177992D01*
X-25665Y178067D01*
X-25612Y178139D01*
X-25556Y178208D01*
X-25497Y178275D01*
X-25436Y178340D01*
X-25371Y178401D01*
X-25304Y178460D01*
X-25235Y178516D01*
X-25163Y178569D01*
X-25088Y178619D01*
X-25012Y178665D01*
X-24934Y178708D01*
X-24854Y178747D01*
X-24772Y178783D01*
X-24689Y178816D01*
X-24604Y178844D01*
X-24519Y178869D01*
X-24432Y178891D01*
X-24344Y178908D01*
X-24256Y178921D01*
X-24167Y178931D01*
X-24078Y178937D01*
X-23989Y178939D01*
X-24398Y182213D02*
X-21943Y182213D01*
X-24398Y182213D02*
X-24477Y182211D01*
X-24556Y182205D01*
X-24635Y182196D01*
X-24713Y182183D01*
X-24790Y182165D01*
X-24866Y182145D01*
X-24941Y182120D01*
X-25015Y182092D01*
X-25088Y182061D01*
X-25159Y182025D01*
X-25228Y181987D01*
X-25295Y181945D01*
X-25360Y181900D01*
X-25423Y181852D01*
X-25484Y181801D01*
X-25541Y181747D01*
X-25597Y181691D01*
X-25649Y181632D01*
X-25699Y181570D01*
X-25745Y181506D01*
X-25789Y181440D01*
X-25829Y181372D01*
X-25865Y181302D01*
X-25899Y181230D01*
X-25929Y181156D01*
X-25955Y181082D01*
X-25978Y181006D01*
X-25996Y180929D01*
X-26012Y180852D01*
X-26023Y180773D01*
X-26031Y180695D01*
X-26035Y180616D01*
X-26035Y180536D01*
X-26031Y180457D01*
X-26023Y180379D01*
X-26012Y180300D01*
X-25996Y180223D01*
X-25978Y180146D01*
X-25955Y180070D01*
X-25929Y179996D01*
X-25899Y179922D01*
X-25865Y179850D01*
X-25829Y179780D01*
X-25789Y179712D01*
X-25745Y179646D01*
X-25699Y179582D01*
X-25649Y179520D01*
X-25597Y179461D01*
X-25541Y179405D01*
X-25484Y179351D01*
X-25423Y179300D01*
X-25360Y179252D01*
X-25295Y179207D01*
X-25228Y179165D01*
X-25159Y179127D01*
X-25088Y179091D01*
X-25015Y179060D01*
X-24941Y179032D01*
X-24866Y179007D01*
X-24790Y178987D01*
X-24713Y178969D01*
X-24635Y178956D01*
X-24556Y178947D01*
X-24477Y178941D01*
X-24398Y178939D01*
X-22761Y178939D01*
D12*
X38505Y162633D02*
X38505Y156283D01*
D13*
X46664Y146154D02*
X54030Y146154D01*
X54030Y148200D01*
X54028Y148289D01*
X54022Y148378D01*
X54012Y148467D01*
X53999Y148555D01*
X53982Y148643D01*
X53960Y148730D01*
X53935Y148815D01*
X53907Y148900D01*
X53874Y148983D01*
X53838Y149065D01*
X53799Y149145D01*
X53756Y149223D01*
X53710Y149299D01*
X53660Y149374D01*
X53607Y149446D01*
X53551Y149515D01*
X53492Y149582D01*
X53431Y149647D01*
X53366Y149708D01*
X53299Y149767D01*
X53230Y149823D01*
X53158Y149876D01*
X53083Y149926D01*
X53007Y149972D01*
X52929Y150015D01*
X52849Y150054D01*
X52767Y150090D01*
X52684Y150123D01*
X52599Y150151D01*
X52514Y150176D01*
X52427Y150198D01*
X52339Y150215D01*
X52251Y150228D01*
X52162Y150238D01*
X52073Y150244D01*
X51984Y150246D01*
X51895Y150244D01*
X51806Y150238D01*
X51717Y150228D01*
X51629Y150215D01*
X51541Y150198D01*
X51454Y150176D01*
X51369Y150151D01*
X51284Y150123D01*
X51201Y150090D01*
X51119Y150054D01*
X51039Y150015D01*
X50961Y149972D01*
X50885Y149926D01*
X50810Y149876D01*
X50738Y149823D01*
X50669Y149767D01*
X50602Y149708D01*
X50537Y149647D01*
X50476Y149582D01*
X50417Y149515D01*
X50361Y149446D01*
X50308Y149374D01*
X50258Y149299D01*
X50212Y149223D01*
X50169Y149145D01*
X50130Y149065D01*
X50094Y148983D01*
X50061Y148900D01*
X50033Y148815D01*
X50008Y148730D01*
X49986Y148643D01*
X49969Y148555D01*
X49956Y148467D01*
X49946Y148378D01*
X49940Y148289D01*
X49938Y148200D01*
X49938Y146154D01*
X49938Y148610D02*
X46664Y150246D01*
X52393Y153418D02*
X54030Y155464D01*
X46664Y155464D01*
X46664Y153418D02*
X46664Y157511D01*
D10*
X48260Y289025D02*
X48260Y294005D01*
X48260Y220345D02*
X43280Y220345D01*
X-25400Y220345D02*
X-25400Y225325D01*
X-25400Y294005D02*
X-20420Y294005D01*
X43280Y294005D02*
X48260Y294005D01*
X48260Y225325D02*
X48260Y220345D01*
X-20420Y220345D02*
X-25400Y220345D01*
X-25400Y289025D02*
X-25400Y294005D01*
D14*
X-35870Y290195D02*
X-35868Y290291D01*
X-35862Y290387D01*
X-35852Y290483D01*
X-35838Y290578D01*
X-35821Y290673D01*
X-35799Y290766D01*
X-35774Y290859D01*
X-35745Y290951D01*
X-35712Y291041D01*
X-35675Y291130D01*
X-35635Y291217D01*
X-35591Y291303D01*
X-35544Y291387D01*
X-35493Y291469D01*
X-35440Y291548D01*
X-35382Y291625D01*
X-35322Y291700D01*
X-35259Y291773D01*
X-35193Y291843D01*
X-35123Y291909D01*
X-35052Y291974D01*
X-34977Y292035D01*
X-34901Y292093D01*
X-34822Y292147D01*
X-34740Y292199D01*
X-34657Y292247D01*
X-34572Y292291D01*
X-34485Y292333D01*
X-34396Y292370D01*
X-34306Y292404D01*
X-34215Y292434D01*
X-34123Y292460D01*
X-34029Y292483D01*
X-33935Y292501D01*
X-33840Y292516D01*
X-33744Y292527D01*
X-33648Y292534D01*
X-33552Y292537D01*
X-33456Y292536D01*
X-33360Y292531D01*
X-33264Y292522D01*
X-33169Y292509D01*
X-33074Y292493D01*
X-32980Y292472D01*
X-32887Y292448D01*
X-32795Y292419D01*
X-32704Y292387D01*
X-32615Y292352D01*
X-32527Y292312D01*
X-32441Y292270D01*
X-32357Y292223D01*
X-32275Y292173D01*
X-32195Y292120D01*
X-32117Y292064D01*
X-32041Y292004D01*
X-31968Y291942D01*
X-31898Y291876D01*
X-31830Y291808D01*
X-31765Y291737D01*
X-31703Y291663D01*
X-31645Y291587D01*
X-31589Y291509D01*
X-31537Y291428D01*
X-31488Y291345D01*
X-31442Y291260D01*
X-31400Y291174D01*
X-31362Y291086D01*
X-31327Y290996D01*
X-31296Y290905D01*
X-31269Y290813D01*
X-31245Y290719D01*
X-31226Y290625D01*
X-31210Y290530D01*
X-31198Y290435D01*
X-31190Y290339D01*
X-31186Y290243D01*
X-31186Y290147D01*
X-31190Y290051D01*
X-31198Y289955D01*
X-31210Y289860D01*
X-31226Y289765D01*
X-31245Y289671D01*
X-31269Y289577D01*
X-31296Y289485D01*
X-31327Y289394D01*
X-31362Y289304D01*
X-31400Y289216D01*
X-31442Y289130D01*
X-31488Y289045D01*
X-31537Y288962D01*
X-31589Y288881D01*
X-31645Y288803D01*
X-31703Y288727D01*
X-31765Y288653D01*
X-31830Y288582D01*
X-31898Y288514D01*
X-31968Y288448D01*
X-32041Y288386D01*
X-32117Y288326D01*
X-32195Y288270D01*
X-32275Y288217D01*
X-32357Y288167D01*
X-32441Y288120D01*
X-32527Y288078D01*
X-32615Y288038D01*
X-32704Y288003D01*
X-32795Y287971D01*
X-32887Y287942D01*
X-32980Y287918D01*
X-33074Y287897D01*
X-33169Y287881D01*
X-33264Y287868D01*
X-33360Y287859D01*
X-33456Y287854D01*
X-33552Y287853D01*
X-33648Y287856D01*
X-33744Y287863D01*
X-33840Y287874D01*
X-33935Y287889D01*
X-34029Y287907D01*
X-34123Y287930D01*
X-34215Y287956D01*
X-34306Y287986D01*
X-34396Y288020D01*
X-34485Y288057D01*
X-34572Y288099D01*
X-34657Y288143D01*
X-34740Y288191D01*
X-34822Y288243D01*
X-34901Y288297D01*
X-34977Y288355D01*
X-35052Y288416D01*
X-35123Y288481D01*
X-35193Y288547D01*
X-35259Y288617D01*
X-35322Y288690D01*
X-35382Y288765D01*
X-35440Y288842D01*
X-35493Y288921D01*
X-35544Y289003D01*
X-35591Y289087D01*
X-35635Y289173D01*
X-35675Y289260D01*
X-35712Y289349D01*
X-35745Y289439D01*
X-35774Y289531D01*
X-35799Y289624D01*
X-35821Y289717D01*
X-35838Y289812D01*
X-35852Y289907D01*
X-35862Y290003D01*
X-35868Y290099D01*
X-35870Y290195D01*
D13*
X54592Y272850D02*
X59912Y272850D01*
X54592Y272850D02*
X54503Y272852D01*
X54414Y272858D01*
X54325Y272868D01*
X54237Y272881D01*
X54149Y272898D01*
X54062Y272920D01*
X53977Y272945D01*
X53892Y272973D01*
X53809Y273006D01*
X53727Y273042D01*
X53647Y273081D01*
X53569Y273124D01*
X53493Y273170D01*
X53418Y273220D01*
X53346Y273273D01*
X53277Y273329D01*
X53210Y273388D01*
X53145Y273449D01*
X53084Y273514D01*
X53025Y273581D01*
X52969Y273650D01*
X52916Y273722D01*
X52866Y273797D01*
X52820Y273873D01*
X52777Y273951D01*
X52738Y274031D01*
X52702Y274113D01*
X52669Y274196D01*
X52641Y274281D01*
X52616Y274366D01*
X52594Y274453D01*
X52577Y274541D01*
X52564Y274629D01*
X52554Y274718D01*
X52548Y274807D01*
X52546Y274896D01*
X52548Y274985D01*
X52554Y275074D01*
X52564Y275163D01*
X52577Y275251D01*
X52594Y275339D01*
X52616Y275426D01*
X52641Y275511D01*
X52669Y275596D01*
X52702Y275679D01*
X52738Y275761D01*
X52777Y275841D01*
X52820Y275919D01*
X52866Y275995D01*
X52916Y276070D01*
X52969Y276142D01*
X53025Y276211D01*
X53084Y276278D01*
X53145Y276343D01*
X53210Y276404D01*
X53277Y276463D01*
X53346Y276519D01*
X53418Y276572D01*
X53493Y276622D01*
X53569Y276668D01*
X53647Y276711D01*
X53727Y276750D01*
X53809Y276786D01*
X53892Y276819D01*
X53977Y276847D01*
X54062Y276872D01*
X54149Y276894D01*
X54237Y276911D01*
X54325Y276924D01*
X54414Y276934D01*
X54503Y276940D01*
X54592Y276942D01*
X59912Y276942D01*
X58275Y280409D02*
X59912Y282455D01*
X52546Y282455D01*
X52546Y280409D02*
X52546Y284501D01*
D12*
X43593Y307181D02*
X8033Y307181D01*
X43593Y307181D02*
X43593Y327501D01*
X8033Y327501D01*
X8033Y307181D01*
D13*
X43561Y331597D02*
X38650Y338963D01*
X43561Y338963D02*
X38650Y331597D01*
X35837Y337326D02*
X33791Y338963D01*
X33791Y331597D01*
X35837Y331597D02*
X31744Y331597D01*
D11*
X71039Y-21512D02*
X71039Y-23460D01*
X71039Y-21512D02*
X64548Y-21512D01*
X64548Y-25407D01*
X64550Y-25506D01*
X64556Y-25606D01*
X64565Y-25705D01*
X64578Y-25803D01*
X64595Y-25901D01*
X64616Y-25999D01*
X64641Y-26095D01*
X64669Y-26190D01*
X64701Y-26284D01*
X64736Y-26377D01*
X64775Y-26469D01*
X64818Y-26559D01*
X64863Y-26647D01*
X64913Y-26734D01*
X64965Y-26818D01*
X65021Y-26901D01*
X65079Y-26981D01*
X65141Y-27059D01*
X65206Y-27134D01*
X65274Y-27207D01*
X65344Y-27277D01*
X65417Y-27345D01*
X65492Y-27410D01*
X65570Y-27472D01*
X65650Y-27530D01*
X65733Y-27586D01*
X65817Y-27638D01*
X65904Y-27688D01*
X65992Y-27733D01*
X66082Y-27776D01*
X66174Y-27815D01*
X66267Y-27850D01*
X66361Y-27882D01*
X66456Y-27910D01*
X66552Y-27935D01*
X66650Y-27956D01*
X66748Y-27973D01*
X66846Y-27986D01*
X66945Y-27995D01*
X67045Y-28001D01*
X67144Y-28003D01*
X67144Y-28004D02*
X73635Y-28004D01*
X73635Y-28003D02*
X73734Y-28001D01*
X73834Y-27995D01*
X73933Y-27986D01*
X74031Y-27973D01*
X74129Y-27956D01*
X74227Y-27935D01*
X74323Y-27910D01*
X74418Y-27882D01*
X74512Y-27850D01*
X74605Y-27815D01*
X74697Y-27776D01*
X74787Y-27733D01*
X74875Y-27688D01*
X74962Y-27638D01*
X75046Y-27586D01*
X75129Y-27530D01*
X75209Y-27472D01*
X75287Y-27410D01*
X75362Y-27345D01*
X75435Y-27277D01*
X75505Y-27207D01*
X75573Y-27134D01*
X75638Y-27059D01*
X75700Y-26981D01*
X75758Y-26901D01*
X75814Y-26818D01*
X75866Y-26734D01*
X75916Y-26647D01*
X75961Y-26559D01*
X76004Y-26469D01*
X76043Y-26377D01*
X76078Y-26285D01*
X76110Y-26190D01*
X76138Y-26095D01*
X76163Y-25999D01*
X76184Y-25901D01*
X76201Y-25803D01*
X76214Y-25705D01*
X76223Y-25606D01*
X76229Y-25506D01*
X76231Y-25407D01*
X76232Y-25407D02*
X76232Y-21512D01*
X76232Y-15812D02*
X64548Y-15812D01*
X64548Y-9320D02*
X76232Y-15812D01*
X76232Y-9320D02*
X64548Y-9320D01*
X64548Y-3620D02*
X76232Y-3620D01*
X76232Y-374D01*
X76230Y-261D01*
X76224Y-148D01*
X76214Y-35D01*
X76200Y78D01*
X76183Y190D01*
X76161Y301D01*
X76136Y411D01*
X76106Y521D01*
X76073Y629D01*
X76036Y736D01*
X75996Y842D01*
X75951Y946D01*
X75903Y1049D01*
X75852Y1150D01*
X75797Y1249D01*
X75739Y1346D01*
X75677Y1441D01*
X75612Y1534D01*
X75544Y1624D01*
X75473Y1712D01*
X75398Y1798D01*
X75321Y1881D01*
X75241Y1961D01*
X75158Y2038D01*
X75072Y2113D01*
X74984Y2184D01*
X74894Y2252D01*
X74801Y2317D01*
X74706Y2379D01*
X74609Y2437D01*
X74510Y2492D01*
X74409Y2543D01*
X74306Y2591D01*
X74202Y2636D01*
X74096Y2676D01*
X73989Y2713D01*
X73881Y2746D01*
X73771Y2776D01*
X73661Y2801D01*
X73550Y2823D01*
X73438Y2840D01*
X73325Y2854D01*
X73212Y2864D01*
X73099Y2870D01*
X72986Y2872D01*
X67793Y2872D01*
X67680Y2870D01*
X67567Y2864D01*
X67454Y2854D01*
X67341Y2840D01*
X67229Y2823D01*
X67118Y2801D01*
X67008Y2776D01*
X66898Y2746D01*
X66790Y2713D01*
X66683Y2676D01*
X66577Y2636D01*
X66473Y2591D01*
X66370Y2543D01*
X66269Y2492D01*
X66170Y2437D01*
X66073Y2379D01*
X65978Y2317D01*
X65885Y2252D01*
X65795Y2184D01*
X65707Y2113D01*
X65621Y2038D01*
X65538Y1961D01*
X65458Y1881D01*
X65381Y1798D01*
X65306Y1712D01*
X65235Y1624D01*
X65167Y1534D01*
X65102Y1441D01*
X65040Y1346D01*
X64982Y1249D01*
X64927Y1150D01*
X64876Y1049D01*
X64828Y946D01*
X64783Y842D01*
X64743Y736D01*
X64706Y629D01*
X64673Y521D01*
X64643Y411D01*
X64618Y301D01*
X64596Y190D01*
X64579Y78D01*
X64565Y-35D01*
X64555Y-148D01*
X64549Y-261D01*
X64547Y-374D01*
X64548Y-374D02*
X64548Y-3620D01*
X119098Y-29549D02*
X119098Y-37338D01*
X122992Y-33443D02*
X115203Y-33443D01*
X123642Y-24497D02*
X126238Y-21251D01*
X114554Y-21251D01*
X114554Y-18006D02*
X114554Y-24497D01*
X114554Y-13575D02*
X115203Y-13575D01*
X115203Y-12926D01*
X114554Y-12926D01*
X114554Y-13575D01*
X117800Y-8495D02*
X117913Y-8493D01*
X118026Y-8487D01*
X118139Y-8477D01*
X118252Y-8463D01*
X118364Y-8446D01*
X118475Y-8424D01*
X118585Y-8399D01*
X118695Y-8369D01*
X118803Y-8336D01*
X118910Y-8299D01*
X119016Y-8259D01*
X119120Y-8214D01*
X119223Y-8166D01*
X119324Y-8115D01*
X119423Y-8060D01*
X119520Y-8002D01*
X119615Y-7940D01*
X119708Y-7875D01*
X119798Y-7807D01*
X119886Y-7736D01*
X119972Y-7661D01*
X120055Y-7584D01*
X120135Y-7504D01*
X120212Y-7421D01*
X120287Y-7335D01*
X120358Y-7247D01*
X120426Y-7157D01*
X120491Y-7064D01*
X120553Y-6969D01*
X120611Y-6872D01*
X120666Y-6773D01*
X120717Y-6672D01*
X120765Y-6569D01*
X120810Y-6465D01*
X120850Y-6359D01*
X120887Y-6252D01*
X120920Y-6144D01*
X120950Y-6034D01*
X120975Y-5924D01*
X120997Y-5813D01*
X121014Y-5701D01*
X121028Y-5588D01*
X121038Y-5475D01*
X121044Y-5362D01*
X121046Y-5249D01*
X121044Y-5136D01*
X121038Y-5023D01*
X121028Y-4910D01*
X121014Y-4797D01*
X120997Y-4685D01*
X120975Y-4574D01*
X120950Y-4464D01*
X120920Y-4354D01*
X120887Y-4246D01*
X120850Y-4139D01*
X120810Y-4033D01*
X120765Y-3929D01*
X120717Y-3826D01*
X120666Y-3725D01*
X120611Y-3626D01*
X120553Y-3529D01*
X120491Y-3434D01*
X120426Y-3341D01*
X120358Y-3251D01*
X120287Y-3163D01*
X120212Y-3077D01*
X120135Y-2994D01*
X120055Y-2914D01*
X119972Y-2837D01*
X119886Y-2762D01*
X119798Y-2691D01*
X119708Y-2623D01*
X119615Y-2558D01*
X119520Y-2496D01*
X119423Y-2438D01*
X119324Y-2383D01*
X119223Y-2332D01*
X119120Y-2284D01*
X119016Y-2239D01*
X118910Y-2199D01*
X118803Y-2162D01*
X118695Y-2129D01*
X118585Y-2099D01*
X118475Y-2074D01*
X118364Y-2052D01*
X118252Y-2035D01*
X118139Y-2021D01*
X118026Y-2011D01*
X117913Y-2005D01*
X117800Y-2003D01*
X117687Y-2005D01*
X117574Y-2011D01*
X117461Y-2021D01*
X117348Y-2035D01*
X117236Y-2052D01*
X117125Y-2074D01*
X117015Y-2099D01*
X116905Y-2129D01*
X116797Y-2162D01*
X116690Y-2199D01*
X116584Y-2239D01*
X116480Y-2284D01*
X116377Y-2332D01*
X116276Y-2383D01*
X116177Y-2438D01*
X116080Y-2496D01*
X115985Y-2558D01*
X115892Y-2623D01*
X115802Y-2691D01*
X115714Y-2762D01*
X115628Y-2837D01*
X115545Y-2914D01*
X115465Y-2994D01*
X115388Y-3077D01*
X115313Y-3163D01*
X115242Y-3251D01*
X115174Y-3341D01*
X115109Y-3434D01*
X115047Y-3529D01*
X114989Y-3626D01*
X114934Y-3725D01*
X114883Y-3826D01*
X114835Y-3929D01*
X114790Y-4033D01*
X114750Y-4139D01*
X114713Y-4246D01*
X114680Y-4354D01*
X114650Y-4464D01*
X114625Y-4574D01*
X114603Y-4685D01*
X114586Y-4797D01*
X114572Y-4910D01*
X114562Y-5023D01*
X114556Y-5136D01*
X114554Y-5249D01*
X114556Y-5362D01*
X114562Y-5475D01*
X114572Y-5588D01*
X114586Y-5701D01*
X114603Y-5813D01*
X114625Y-5924D01*
X114650Y-6034D01*
X114680Y-6144D01*
X114713Y-6252D01*
X114750Y-6359D01*
X114790Y-6465D01*
X114835Y-6569D01*
X114883Y-6672D01*
X114934Y-6773D01*
X114989Y-6872D01*
X115047Y-6969D01*
X115109Y-7064D01*
X115174Y-7157D01*
X115242Y-7247D01*
X115313Y-7335D01*
X115388Y-7421D01*
X115465Y-7504D01*
X115545Y-7584D01*
X115628Y-7661D01*
X115714Y-7736D01*
X115802Y-7807D01*
X115892Y-7875D01*
X115985Y-7940D01*
X116080Y-8002D01*
X116177Y-8060D01*
X116276Y-8115D01*
X116377Y-8166D01*
X116480Y-8214D01*
X116584Y-8259D01*
X116690Y-8299D01*
X116797Y-8336D01*
X116905Y-8369D01*
X117015Y-8399D01*
X117125Y-8424D01*
X117236Y-8446D01*
X117348Y-8463D01*
X117461Y-8477D01*
X117574Y-8487D01*
X117687Y-8493D01*
X117800Y-8495D01*
X123642Y-7845D02*
X123743Y-7843D01*
X123843Y-7837D01*
X123943Y-7827D01*
X124043Y-7814D01*
X124142Y-7796D01*
X124241Y-7775D01*
X124338Y-7750D01*
X124435Y-7721D01*
X124530Y-7688D01*
X124624Y-7652D01*
X124716Y-7612D01*
X124807Y-7569D01*
X124896Y-7522D01*
X124983Y-7472D01*
X125069Y-7418D01*
X125152Y-7361D01*
X125232Y-7301D01*
X125311Y-7238D01*
X125387Y-7171D01*
X125460Y-7102D01*
X125530Y-7030D01*
X125598Y-6956D01*
X125663Y-6879D01*
X125724Y-6799D01*
X125783Y-6717D01*
X125838Y-6633D01*
X125890Y-6547D01*
X125939Y-6459D01*
X125984Y-6369D01*
X126026Y-6277D01*
X126064Y-6184D01*
X126098Y-6089D01*
X126129Y-5994D01*
X126156Y-5897D01*
X126179Y-5799D01*
X126199Y-5700D01*
X126214Y-5600D01*
X126226Y-5500D01*
X126234Y-5400D01*
X126238Y-5299D01*
X126238Y-5199D01*
X126234Y-5098D01*
X126226Y-4998D01*
X126214Y-4898D01*
X126199Y-4798D01*
X126179Y-4699D01*
X126156Y-4601D01*
X126129Y-4504D01*
X126098Y-4409D01*
X126064Y-4314D01*
X126026Y-4221D01*
X125984Y-4129D01*
X125939Y-4039D01*
X125890Y-3951D01*
X125838Y-3865D01*
X125783Y-3781D01*
X125724Y-3699D01*
X125663Y-3619D01*
X125598Y-3542D01*
X125530Y-3468D01*
X125460Y-3396D01*
X125387Y-3327D01*
X125311Y-3260D01*
X125232Y-3197D01*
X125152Y-3137D01*
X125069Y-3080D01*
X124983Y-3026D01*
X124896Y-2976D01*
X124807Y-2929D01*
X124716Y-2886D01*
X124624Y-2846D01*
X124530Y-2810D01*
X124435Y-2777D01*
X124338Y-2748D01*
X124241Y-2723D01*
X124142Y-2702D01*
X124043Y-2684D01*
X123943Y-2671D01*
X123843Y-2661D01*
X123743Y-2655D01*
X123642Y-2653D01*
X123541Y-2655D01*
X123441Y-2661D01*
X123341Y-2671D01*
X123241Y-2684D01*
X123142Y-2702D01*
X123043Y-2723D01*
X122946Y-2748D01*
X122849Y-2777D01*
X122754Y-2810D01*
X122660Y-2846D01*
X122568Y-2886D01*
X122477Y-2929D01*
X122388Y-2976D01*
X122301Y-3026D01*
X122215Y-3080D01*
X122132Y-3137D01*
X122052Y-3197D01*
X121973Y-3260D01*
X121897Y-3327D01*
X121824Y-3396D01*
X121754Y-3468D01*
X121686Y-3542D01*
X121621Y-3619D01*
X121560Y-3699D01*
X121501Y-3781D01*
X121446Y-3865D01*
X121394Y-3951D01*
X121345Y-4039D01*
X121300Y-4129D01*
X121258Y-4221D01*
X121220Y-4314D01*
X121186Y-4409D01*
X121155Y-4504D01*
X121128Y-4601D01*
X121105Y-4699D01*
X121085Y-4798D01*
X121070Y-4898D01*
X121058Y-4998D01*
X121050Y-5098D01*
X121046Y-5199D01*
X121046Y-5299D01*
X121050Y-5400D01*
X121058Y-5500D01*
X121070Y-5600D01*
X121085Y-5700D01*
X121105Y-5799D01*
X121128Y-5897D01*
X121155Y-5994D01*
X121186Y-6089D01*
X121220Y-6184D01*
X121258Y-6277D01*
X121300Y-6369D01*
X121345Y-6459D01*
X121394Y-6547D01*
X121446Y-6633D01*
X121501Y-6717D01*
X121560Y-6799D01*
X121621Y-6879D01*
X121686Y-6956D01*
X121754Y-7030D01*
X121824Y-7102D01*
X121897Y-7171D01*
X121973Y-7238D01*
X122052Y-7301D01*
X122132Y-7361D01*
X122215Y-7418D01*
X122301Y-7472D01*
X122388Y-7522D01*
X122477Y-7569D01*
X122568Y-7612D01*
X122660Y-7652D01*
X122754Y-7688D01*
X122849Y-7721D01*
X122946Y-7750D01*
X123043Y-7775D01*
X123142Y-7796D01*
X123241Y-7814D01*
X123341Y-7827D01*
X123441Y-7837D01*
X123541Y-7843D01*
X123642Y-7845D01*
X126238Y2286D02*
X114554Y6181D01*
X126238Y10075D01*
D12*
X-57150Y249174D02*
X-63500Y249174D01*
D13*
X-44323Y241427D02*
X-36957Y241427D01*
X-36957Y243473D01*
X-36959Y243562D01*
X-36965Y243651D01*
X-36975Y243740D01*
X-36988Y243828D01*
X-37005Y243916D01*
X-37027Y244003D01*
X-37052Y244088D01*
X-37080Y244173D01*
X-37113Y244256D01*
X-37149Y244338D01*
X-37188Y244418D01*
X-37231Y244496D01*
X-37277Y244572D01*
X-37327Y244647D01*
X-37380Y244719D01*
X-37436Y244788D01*
X-37495Y244855D01*
X-37556Y244920D01*
X-37621Y244981D01*
X-37688Y245040D01*
X-37757Y245096D01*
X-37829Y245149D01*
X-37904Y245199D01*
X-37980Y245245D01*
X-38058Y245288D01*
X-38138Y245327D01*
X-38220Y245363D01*
X-38303Y245396D01*
X-38388Y245424D01*
X-38473Y245449D01*
X-38560Y245471D01*
X-38648Y245488D01*
X-38736Y245501D01*
X-38825Y245511D01*
X-38914Y245517D01*
X-39003Y245519D01*
X-39092Y245517D01*
X-39181Y245511D01*
X-39270Y245501D01*
X-39358Y245488D01*
X-39446Y245471D01*
X-39533Y245449D01*
X-39618Y245424D01*
X-39703Y245396D01*
X-39786Y245363D01*
X-39868Y245327D01*
X-39948Y245288D01*
X-40026Y245245D01*
X-40102Y245199D01*
X-40177Y245149D01*
X-40249Y245096D01*
X-40318Y245040D01*
X-40385Y244981D01*
X-40450Y244920D01*
X-40511Y244855D01*
X-40570Y244788D01*
X-40626Y244719D01*
X-40679Y244647D01*
X-40729Y244572D01*
X-40775Y244496D01*
X-40818Y244418D01*
X-40857Y244338D01*
X-40893Y244256D01*
X-40926Y244173D01*
X-40954Y244088D01*
X-40979Y244003D01*
X-41001Y243916D01*
X-41018Y243828D01*
X-41031Y243740D01*
X-41041Y243651D01*
X-41047Y243562D01*
X-41049Y243473D01*
X-41049Y241427D01*
X-41049Y243882D02*
X-44323Y245519D01*
X-38594Y248691D02*
X-36957Y250737D01*
X-44323Y250737D01*
X-44323Y248691D02*
X-44323Y252783D01*
X-40640Y256007D02*
X-40487Y256009D01*
X-40334Y256015D01*
X-40182Y256024D01*
X-40029Y256038D01*
X-39877Y256055D01*
X-39726Y256076D01*
X-39575Y256101D01*
X-39425Y256130D01*
X-39275Y256162D01*
X-39127Y256199D01*
X-38979Y256239D01*
X-38832Y256282D01*
X-38687Y256330D01*
X-38543Y256381D01*
X-38400Y256435D01*
X-38258Y256494D01*
X-38119Y256555D01*
X-37980Y256621D01*
X-37980Y256620D02*
X-37910Y256646D01*
X-37840Y256676D01*
X-37773Y256709D01*
X-37707Y256745D01*
X-37643Y256784D01*
X-37581Y256827D01*
X-37522Y256873D01*
X-37464Y256921D01*
X-37410Y256972D01*
X-37357Y257026D01*
X-37308Y257083D01*
X-37261Y257142D01*
X-37218Y257203D01*
X-37177Y257266D01*
X-37140Y257331D01*
X-37105Y257398D01*
X-37075Y257467D01*
X-37047Y257537D01*
X-37024Y257608D01*
X-37003Y257680D01*
X-36987Y257753D01*
X-36974Y257827D01*
X-36964Y257902D01*
X-36959Y257977D01*
X-36957Y258052D01*
X-36959Y258127D01*
X-36964Y258202D01*
X-36974Y258277D01*
X-36987Y258351D01*
X-37003Y258424D01*
X-37024Y258496D01*
X-37047Y258567D01*
X-37075Y258637D01*
X-37105Y258706D01*
X-37140Y258773D01*
X-37177Y258838D01*
X-37218Y258901D01*
X-37261Y258962D01*
X-37308Y259021D01*
X-37357Y259078D01*
X-37410Y259132D01*
X-37464Y259183D01*
X-37522Y259232D01*
X-37581Y259277D01*
X-37643Y259320D01*
X-37707Y259359D01*
X-37773Y259396D01*
X-37841Y259428D01*
X-37910Y259458D01*
X-37980Y259484D01*
X-38118Y259549D01*
X-38258Y259611D01*
X-38400Y259669D01*
X-38543Y259724D01*
X-38687Y259775D01*
X-38832Y259823D01*
X-38979Y259866D01*
X-39126Y259906D01*
X-39275Y259943D01*
X-39425Y259975D01*
X-39575Y260004D01*
X-39726Y260029D01*
X-39877Y260050D01*
X-40029Y260067D01*
X-40182Y260081D01*
X-40334Y260090D01*
X-40487Y260096D01*
X-40640Y260098D01*
X-40640Y256007D02*
X-40793Y256009D01*
X-40946Y256015D01*
X-41098Y256024D01*
X-41251Y256038D01*
X-41403Y256055D01*
X-41554Y256076D01*
X-41705Y256101D01*
X-41855Y256130D01*
X-42005Y256162D01*
X-42153Y256199D01*
X-42301Y256239D01*
X-42448Y256282D01*
X-42593Y256330D01*
X-42737Y256381D01*
X-42880Y256435D01*
X-43022Y256494D01*
X-43161Y256555D01*
X-43300Y256621D01*
X-43300Y256620D02*
X-43371Y256646D01*
X-43440Y256676D01*
X-43507Y256709D01*
X-43573Y256745D01*
X-43637Y256784D01*
X-43699Y256827D01*
X-43758Y256873D01*
X-43816Y256921D01*
X-43870Y256972D01*
X-43923Y257026D01*
X-43972Y257083D01*
X-44019Y257142D01*
X-44062Y257203D01*
X-44103Y257266D01*
X-44140Y257331D01*
X-44175Y257398D01*
X-44205Y257467D01*
X-44233Y257537D01*
X-44256Y257608D01*
X-44277Y257680D01*
X-44293Y257753D01*
X-44306Y257827D01*
X-44316Y257902D01*
X-44321Y257977D01*
X-44323Y258052D01*
X-43300Y259484D02*
X-43162Y259549D01*
X-43022Y259611D01*
X-42880Y259669D01*
X-42737Y259724D01*
X-42593Y259775D01*
X-42448Y259823D01*
X-42301Y259866D01*
X-42154Y259906D01*
X-42005Y259943D01*
X-41855Y259975D01*
X-41705Y260004D01*
X-41554Y260029D01*
X-41403Y260050D01*
X-41251Y260067D01*
X-41098Y260081D01*
X-40946Y260090D01*
X-40793Y260096D01*
X-40640Y260098D01*
X-43300Y259484D02*
X-43370Y259458D01*
X-43440Y259428D01*
X-43507Y259395D01*
X-43573Y259359D01*
X-43637Y259320D01*
X-43699Y259277D01*
X-43758Y259231D01*
X-43816Y259183D01*
X-43870Y259132D01*
X-43923Y259078D01*
X-43972Y259021D01*
X-44019Y258962D01*
X-44062Y258901D01*
X-44103Y258838D01*
X-44140Y258773D01*
X-44175Y258706D01*
X-44205Y258637D01*
X-44233Y258567D01*
X-44256Y258496D01*
X-44277Y258424D01*
X-44293Y258351D01*
X-44306Y258277D01*
X-44316Y258202D01*
X-44321Y258127D01*
X-44323Y258052D01*
X-42686Y256415D02*
X-38594Y259689D01*
D12*
X-57150Y265684D02*
X-63500Y265684D01*
D13*
X-76581Y255651D02*
X-83947Y255651D01*
X-76581Y255651D02*
X-76581Y257697D01*
X-76583Y257786D01*
X-76589Y257875D01*
X-76599Y257964D01*
X-76612Y258052D01*
X-76629Y258140D01*
X-76651Y258227D01*
X-76676Y258312D01*
X-76704Y258397D01*
X-76737Y258480D01*
X-76773Y258562D01*
X-76812Y258642D01*
X-76855Y258720D01*
X-76901Y258796D01*
X-76951Y258871D01*
X-77004Y258943D01*
X-77060Y259012D01*
X-77119Y259079D01*
X-77180Y259144D01*
X-77245Y259205D01*
X-77312Y259264D01*
X-77381Y259320D01*
X-77453Y259373D01*
X-77528Y259423D01*
X-77604Y259469D01*
X-77682Y259512D01*
X-77762Y259551D01*
X-77844Y259587D01*
X-77927Y259620D01*
X-78012Y259648D01*
X-78097Y259673D01*
X-78184Y259695D01*
X-78272Y259712D01*
X-78360Y259725D01*
X-78449Y259735D01*
X-78538Y259741D01*
X-78627Y259743D01*
X-78716Y259741D01*
X-78805Y259735D01*
X-78894Y259725D01*
X-78982Y259712D01*
X-79070Y259695D01*
X-79157Y259673D01*
X-79242Y259648D01*
X-79327Y259620D01*
X-79410Y259587D01*
X-79492Y259551D01*
X-79572Y259512D01*
X-79650Y259469D01*
X-79726Y259423D01*
X-79801Y259373D01*
X-79873Y259320D01*
X-79942Y259264D01*
X-80009Y259205D01*
X-80074Y259144D01*
X-80135Y259079D01*
X-80194Y259012D01*
X-80250Y258943D01*
X-80303Y258871D01*
X-80353Y258796D01*
X-80399Y258720D01*
X-80442Y258642D01*
X-80481Y258562D01*
X-80517Y258480D01*
X-80550Y258397D01*
X-80578Y258312D01*
X-80603Y258227D01*
X-80625Y258140D01*
X-80642Y258052D01*
X-80655Y257964D01*
X-80665Y257875D01*
X-80671Y257786D01*
X-80673Y257697D01*
X-80673Y255651D01*
X-80673Y258106D02*
X-83947Y259743D01*
X-78218Y262915D02*
X-76581Y264961D01*
X-83947Y264961D01*
X-83947Y262915D02*
X-83947Y267007D01*
X-78218Y270230D02*
X-76581Y272276D01*
X-83947Y272276D01*
X-83947Y270230D02*
X-83947Y274322D01*
D12*
X-63500Y282448D02*
X-57150Y282448D01*
D13*
X-76327Y278003D02*
X-83693Y278003D01*
X-76327Y278003D02*
X-76327Y280049D01*
X-76329Y280138D01*
X-76335Y280227D01*
X-76345Y280316D01*
X-76358Y280404D01*
X-76375Y280492D01*
X-76397Y280579D01*
X-76422Y280664D01*
X-76450Y280749D01*
X-76483Y280832D01*
X-76519Y280914D01*
X-76558Y280994D01*
X-76601Y281072D01*
X-76647Y281148D01*
X-76697Y281223D01*
X-76750Y281295D01*
X-76806Y281364D01*
X-76865Y281431D01*
X-76926Y281496D01*
X-76991Y281557D01*
X-77058Y281616D01*
X-77127Y281672D01*
X-77199Y281725D01*
X-77274Y281775D01*
X-77350Y281821D01*
X-77428Y281864D01*
X-77508Y281903D01*
X-77590Y281939D01*
X-77673Y281972D01*
X-77758Y282000D01*
X-77843Y282025D01*
X-77930Y282047D01*
X-78018Y282064D01*
X-78106Y282077D01*
X-78195Y282087D01*
X-78284Y282093D01*
X-78373Y282095D01*
X-78462Y282093D01*
X-78551Y282087D01*
X-78640Y282077D01*
X-78728Y282064D01*
X-78816Y282047D01*
X-78903Y282025D01*
X-78988Y282000D01*
X-79073Y281972D01*
X-79156Y281939D01*
X-79238Y281903D01*
X-79318Y281864D01*
X-79396Y281821D01*
X-79472Y281775D01*
X-79547Y281725D01*
X-79619Y281672D01*
X-79688Y281616D01*
X-79755Y281557D01*
X-79820Y281496D01*
X-79881Y281431D01*
X-79940Y281364D01*
X-79996Y281295D01*
X-80049Y281223D01*
X-80099Y281148D01*
X-80145Y281072D01*
X-80188Y280994D01*
X-80227Y280914D01*
X-80263Y280832D01*
X-80296Y280749D01*
X-80324Y280664D01*
X-80349Y280579D01*
X-80371Y280492D01*
X-80388Y280404D01*
X-80401Y280316D01*
X-80411Y280227D01*
X-80417Y280138D01*
X-80419Y280049D01*
X-80419Y278003D01*
X-80419Y280458D02*
X-83693Y282095D01*
X-77964Y285267D02*
X-76327Y287313D01*
X-83693Y287313D01*
X-83693Y285267D02*
X-83693Y289359D01*
X-78169Y296675D02*
X-78084Y296673D01*
X-77999Y296667D01*
X-77915Y296657D01*
X-77831Y296644D01*
X-77747Y296626D01*
X-77665Y296605D01*
X-77584Y296580D01*
X-77504Y296551D01*
X-77425Y296518D01*
X-77348Y296482D01*
X-77273Y296442D01*
X-77199Y296399D01*
X-77128Y296353D01*
X-77059Y296303D01*
X-76992Y296250D01*
X-76928Y296194D01*
X-76867Y296135D01*
X-76808Y296074D01*
X-76752Y296010D01*
X-76699Y295943D01*
X-76649Y295874D01*
X-76603Y295803D01*
X-76560Y295729D01*
X-76520Y295654D01*
X-76484Y295577D01*
X-76451Y295498D01*
X-76422Y295418D01*
X-76397Y295337D01*
X-76376Y295255D01*
X-76358Y295171D01*
X-76345Y295087D01*
X-76335Y295003D01*
X-76329Y294918D01*
X-76327Y294833D01*
X-76329Y294737D01*
X-76335Y294641D01*
X-76345Y294546D01*
X-76358Y294451D01*
X-76376Y294356D01*
X-76397Y294263D01*
X-76422Y294170D01*
X-76451Y294079D01*
X-76483Y293988D01*
X-76519Y293899D01*
X-76559Y293812D01*
X-76602Y293726D01*
X-76648Y293642D01*
X-76698Y293560D01*
X-76752Y293480D01*
X-76808Y293403D01*
X-76868Y293328D01*
X-76930Y293255D01*
X-76996Y293185D01*
X-77064Y293117D01*
X-77135Y293052D01*
X-77208Y292991D01*
X-77284Y292932D01*
X-77363Y292876D01*
X-77443Y292824D01*
X-77526Y292775D01*
X-77610Y292729D01*
X-77696Y292687D01*
X-77784Y292649D01*
X-77873Y292614D01*
X-77964Y292582D01*
X-79601Y296061D02*
X-79542Y296121D01*
X-79480Y296178D01*
X-79416Y296233D01*
X-79349Y296284D01*
X-79280Y296333D01*
X-79210Y296379D01*
X-79137Y296422D01*
X-79063Y296462D01*
X-78987Y296498D01*
X-78909Y296531D01*
X-78830Y296561D01*
X-78750Y296588D01*
X-78669Y296611D01*
X-78587Y296630D01*
X-78505Y296646D01*
X-78421Y296659D01*
X-78337Y296668D01*
X-78253Y296673D01*
X-78169Y296675D01*
X-79601Y296061D02*
X-83693Y292582D01*
X-83693Y296674D01*
D12*
X-63500Y232664D02*
X-57150Y232664D01*
D13*
X-76835Y226695D02*
X-84201Y226695D01*
X-76835Y226695D02*
X-76835Y228741D01*
X-76837Y228830D01*
X-76843Y228919D01*
X-76853Y229008D01*
X-76866Y229096D01*
X-76883Y229184D01*
X-76905Y229271D01*
X-76930Y229356D01*
X-76958Y229441D01*
X-76991Y229524D01*
X-77027Y229606D01*
X-77066Y229686D01*
X-77109Y229764D01*
X-77155Y229840D01*
X-77205Y229915D01*
X-77258Y229987D01*
X-77314Y230056D01*
X-77373Y230123D01*
X-77434Y230188D01*
X-77499Y230249D01*
X-77566Y230308D01*
X-77635Y230364D01*
X-77707Y230417D01*
X-77782Y230467D01*
X-77858Y230513D01*
X-77936Y230556D01*
X-78016Y230595D01*
X-78098Y230631D01*
X-78181Y230664D01*
X-78266Y230692D01*
X-78351Y230717D01*
X-78438Y230739D01*
X-78526Y230756D01*
X-78614Y230769D01*
X-78703Y230779D01*
X-78792Y230785D01*
X-78881Y230787D01*
X-78970Y230785D01*
X-79059Y230779D01*
X-79148Y230769D01*
X-79236Y230756D01*
X-79324Y230739D01*
X-79411Y230717D01*
X-79496Y230692D01*
X-79581Y230664D01*
X-79664Y230631D01*
X-79746Y230595D01*
X-79826Y230556D01*
X-79904Y230513D01*
X-79980Y230467D01*
X-80055Y230417D01*
X-80127Y230364D01*
X-80196Y230308D01*
X-80263Y230249D01*
X-80328Y230188D01*
X-80389Y230123D01*
X-80448Y230056D01*
X-80504Y229987D01*
X-80557Y229915D01*
X-80607Y229840D01*
X-80653Y229764D01*
X-80696Y229686D01*
X-80735Y229606D01*
X-80771Y229524D01*
X-80804Y229441D01*
X-80832Y229356D01*
X-80857Y229271D01*
X-80879Y229184D01*
X-80896Y229096D01*
X-80909Y229008D01*
X-80919Y228919D01*
X-80925Y228830D01*
X-80927Y228741D01*
X-80927Y226695D01*
X-80927Y229150D02*
X-84201Y230787D01*
X-78472Y233959D02*
X-76835Y236005D01*
X-84201Y236005D01*
X-84201Y233959D02*
X-84201Y238051D01*
X-84201Y241274D02*
X-84201Y243320D01*
X-84199Y243409D01*
X-84193Y243498D01*
X-84183Y243587D01*
X-84170Y243675D01*
X-84153Y243763D01*
X-84131Y243850D01*
X-84106Y243935D01*
X-84078Y244020D01*
X-84045Y244103D01*
X-84009Y244185D01*
X-83970Y244265D01*
X-83927Y244343D01*
X-83881Y244419D01*
X-83831Y244494D01*
X-83778Y244566D01*
X-83722Y244635D01*
X-83663Y244702D01*
X-83602Y244767D01*
X-83537Y244828D01*
X-83470Y244887D01*
X-83401Y244943D01*
X-83329Y244996D01*
X-83254Y245046D01*
X-83178Y245092D01*
X-83100Y245135D01*
X-83020Y245174D01*
X-82938Y245210D01*
X-82855Y245243D01*
X-82770Y245271D01*
X-82685Y245296D01*
X-82598Y245318D01*
X-82510Y245335D01*
X-82422Y245348D01*
X-82333Y245358D01*
X-82244Y245364D01*
X-82155Y245366D01*
X-82066Y245364D01*
X-81977Y245358D01*
X-81888Y245348D01*
X-81800Y245335D01*
X-81712Y245318D01*
X-81625Y245296D01*
X-81540Y245271D01*
X-81455Y245243D01*
X-81372Y245210D01*
X-81290Y245174D01*
X-81210Y245135D01*
X-81132Y245092D01*
X-81056Y245046D01*
X-80981Y244996D01*
X-80909Y244943D01*
X-80840Y244887D01*
X-80773Y244828D01*
X-80708Y244767D01*
X-80647Y244702D01*
X-80588Y244635D01*
X-80532Y244566D01*
X-80479Y244494D01*
X-80429Y244419D01*
X-80383Y244343D01*
X-80340Y244265D01*
X-80301Y244185D01*
X-80265Y244103D01*
X-80232Y244020D01*
X-80204Y243935D01*
X-80179Y243850D01*
X-80157Y243763D01*
X-80140Y243675D01*
X-80127Y243587D01*
X-80117Y243498D01*
X-80111Y243409D01*
X-80109Y243320D01*
X-76835Y243730D02*
X-76835Y241274D01*
X-76835Y243730D02*
X-76837Y243809D01*
X-76843Y243888D01*
X-76852Y243967D01*
X-76865Y244045D01*
X-76883Y244122D01*
X-76903Y244198D01*
X-76928Y244273D01*
X-76956Y244347D01*
X-76987Y244420D01*
X-77023Y244491D01*
X-77061Y244560D01*
X-77103Y244627D01*
X-77148Y244692D01*
X-77196Y244755D01*
X-77247Y244816D01*
X-77301Y244873D01*
X-77357Y244929D01*
X-77416Y244981D01*
X-77478Y245031D01*
X-77542Y245077D01*
X-77608Y245121D01*
X-77676Y245161D01*
X-77746Y245197D01*
X-77818Y245231D01*
X-77892Y245261D01*
X-77966Y245287D01*
X-78042Y245310D01*
X-78119Y245328D01*
X-78196Y245344D01*
X-78275Y245355D01*
X-78353Y245363D01*
X-78432Y245367D01*
X-78512Y245367D01*
X-78591Y245363D01*
X-78669Y245355D01*
X-78748Y245344D01*
X-78825Y245328D01*
X-78902Y245310D01*
X-78978Y245287D01*
X-79052Y245261D01*
X-79126Y245231D01*
X-79198Y245197D01*
X-79268Y245161D01*
X-79336Y245121D01*
X-79402Y245077D01*
X-79466Y245031D01*
X-79528Y244981D01*
X-79587Y244929D01*
X-79643Y244873D01*
X-79697Y244816D01*
X-79748Y244755D01*
X-79796Y244692D01*
X-79841Y244627D01*
X-79883Y244560D01*
X-79921Y244491D01*
X-79957Y244420D01*
X-79988Y244347D01*
X-80016Y244273D01*
X-80041Y244198D01*
X-80061Y244122D01*
X-80079Y244045D01*
X-80092Y243967D01*
X-80101Y243888D01*
X-80107Y243809D01*
X-80109Y243730D01*
X-80109Y242093D01*
D12*
X-63500Y216154D02*
X-57150Y216154D01*
D13*
X-44069Y210439D02*
X-36703Y210439D01*
X-36703Y212485D01*
X-36705Y212574D01*
X-36711Y212663D01*
X-36721Y212752D01*
X-36734Y212840D01*
X-36751Y212928D01*
X-36773Y213015D01*
X-36798Y213100D01*
X-36826Y213185D01*
X-36859Y213268D01*
X-36895Y213350D01*
X-36934Y213430D01*
X-36977Y213508D01*
X-37023Y213584D01*
X-37073Y213659D01*
X-37126Y213731D01*
X-37182Y213800D01*
X-37241Y213867D01*
X-37302Y213932D01*
X-37367Y213993D01*
X-37434Y214052D01*
X-37503Y214108D01*
X-37575Y214161D01*
X-37650Y214211D01*
X-37726Y214257D01*
X-37804Y214300D01*
X-37884Y214339D01*
X-37966Y214375D01*
X-38049Y214408D01*
X-38134Y214436D01*
X-38219Y214461D01*
X-38306Y214483D01*
X-38394Y214500D01*
X-38482Y214513D01*
X-38571Y214523D01*
X-38660Y214529D01*
X-38749Y214531D01*
X-38838Y214529D01*
X-38927Y214523D01*
X-39016Y214513D01*
X-39104Y214500D01*
X-39192Y214483D01*
X-39279Y214461D01*
X-39364Y214436D01*
X-39449Y214408D01*
X-39532Y214375D01*
X-39614Y214339D01*
X-39694Y214300D01*
X-39772Y214257D01*
X-39848Y214211D01*
X-39923Y214161D01*
X-39995Y214108D01*
X-40064Y214052D01*
X-40131Y213993D01*
X-40196Y213932D01*
X-40257Y213867D01*
X-40316Y213800D01*
X-40372Y213731D01*
X-40425Y213659D01*
X-40475Y213584D01*
X-40521Y213508D01*
X-40564Y213430D01*
X-40603Y213350D01*
X-40639Y213268D01*
X-40672Y213185D01*
X-40700Y213100D01*
X-40725Y213015D01*
X-40747Y212928D01*
X-40764Y212840D01*
X-40777Y212752D01*
X-40787Y212663D01*
X-40793Y212574D01*
X-40795Y212485D01*
X-40795Y210439D01*
X-40795Y212894D02*
X-44069Y214531D01*
X-38340Y217703D02*
X-36703Y219749D01*
X-44069Y219749D01*
X-44069Y217703D02*
X-44069Y221795D01*
X-42432Y225018D02*
X-36703Y226655D01*
X-42432Y225018D02*
X-42432Y229110D01*
X-40795Y227883D02*
X-44069Y227883D01*
D15*
X25042Y169532D02*
X25042Y152032D01*
X12042Y152032D02*
X12042Y169532D01*
D13*
X10007Y160503D02*
X10007Y153137D01*
X10007Y160503D02*
X7961Y160503D01*
X7872Y160501D01*
X7783Y160495D01*
X7694Y160485D01*
X7606Y160472D01*
X7518Y160455D01*
X7431Y160433D01*
X7346Y160408D01*
X7261Y160380D01*
X7178Y160347D01*
X7096Y160311D01*
X7016Y160272D01*
X6938Y160229D01*
X6862Y160183D01*
X6787Y160133D01*
X6715Y160080D01*
X6646Y160024D01*
X6579Y159965D01*
X6514Y159904D01*
X6453Y159839D01*
X6394Y159772D01*
X6338Y159703D01*
X6285Y159631D01*
X6235Y159556D01*
X6189Y159480D01*
X6146Y159402D01*
X6107Y159322D01*
X6071Y159240D01*
X6038Y159157D01*
X6010Y159072D01*
X5985Y158987D01*
X5963Y158900D01*
X5946Y158812D01*
X5933Y158724D01*
X5923Y158635D01*
X5917Y158546D01*
X5915Y158457D01*
X5915Y155183D01*
X5917Y155094D01*
X5923Y155005D01*
X5933Y154916D01*
X5946Y154828D01*
X5963Y154740D01*
X5985Y154653D01*
X6010Y154568D01*
X6038Y154483D01*
X6071Y154400D01*
X6107Y154318D01*
X6146Y154238D01*
X6189Y154160D01*
X6235Y154084D01*
X6285Y154009D01*
X6338Y153937D01*
X6394Y153868D01*
X6453Y153801D01*
X6514Y153736D01*
X6579Y153675D01*
X6646Y153616D01*
X6715Y153560D01*
X6787Y153507D01*
X6862Y153457D01*
X6938Y153411D01*
X7016Y153368D01*
X7096Y153329D01*
X7178Y153293D01*
X7261Y153260D01*
X7346Y153232D01*
X7431Y153207D01*
X7518Y153185D01*
X7606Y153168D01*
X7694Y153155D01*
X7783Y153145D01*
X7872Y153139D01*
X7961Y153137D01*
X10007Y153137D01*
X197Y160504D02*
X112Y160502D01*
X27Y160496D01*
X-57Y160486D01*
X-141Y160473D01*
X-225Y160455D01*
X-307Y160434D01*
X-388Y160409D01*
X-468Y160380D01*
X-547Y160347D01*
X-624Y160311D01*
X-699Y160271D01*
X-773Y160228D01*
X-844Y160182D01*
X-913Y160132D01*
X-980Y160079D01*
X-1044Y160023D01*
X-1105Y159964D01*
X-1164Y159903D01*
X-1220Y159839D01*
X-1273Y159772D01*
X-1323Y159703D01*
X-1369Y159632D01*
X-1412Y159558D01*
X-1452Y159483D01*
X-1488Y159406D01*
X-1521Y159327D01*
X-1550Y159247D01*
X-1575Y159166D01*
X-1596Y159084D01*
X-1614Y159000D01*
X-1627Y158916D01*
X-1637Y158832D01*
X-1643Y158747D01*
X-1645Y158662D01*
X197Y160503D02*
X293Y160501D01*
X389Y160495D01*
X484Y160485D01*
X579Y160472D01*
X674Y160454D01*
X767Y160433D01*
X860Y160408D01*
X951Y160379D01*
X1042Y160347D01*
X1131Y160311D01*
X1218Y160271D01*
X1304Y160228D01*
X1388Y160182D01*
X1470Y160132D01*
X1550Y160078D01*
X1627Y160022D01*
X1702Y159962D01*
X1775Y159900D01*
X1845Y159834D01*
X1913Y159766D01*
X1978Y159695D01*
X2039Y159622D01*
X2098Y159546D01*
X2154Y159467D01*
X2206Y159387D01*
X2255Y159304D01*
X2301Y159220D01*
X2343Y159134D01*
X2381Y159046D01*
X2416Y158957D01*
X2448Y158866D01*
X-1030Y157230D02*
X-1090Y157289D01*
X-1147Y157351D01*
X-1202Y157415D01*
X-1253Y157482D01*
X-1302Y157551D01*
X-1348Y157621D01*
X-1391Y157694D01*
X-1431Y157768D01*
X-1467Y157844D01*
X-1500Y157922D01*
X-1530Y158001D01*
X-1557Y158081D01*
X-1580Y158162D01*
X-1599Y158244D01*
X-1615Y158326D01*
X-1628Y158410D01*
X-1637Y158494D01*
X-1642Y158578D01*
X-1644Y158662D01*
X-1030Y157229D02*
X2448Y153137D01*
X-1644Y153137D01*
M02*
