G04 EAGLE Gerber RS-274X export*
G75*
%MOMM*%
%FSLAX34Y34*%
%LPD*%
%INSoldermask Bottom*%
%IPPOS*%
%AMOC8*
5,1,8,0,0,1.08239X$1,22.5*%
G01*
%ADD10R,1.101600X1.201600*%
%ADD11R,1.601600X1.401600*%
%ADD12R,1.201600X1.101600*%
%ADD13R,1.401600X1.601600*%
%ADD14C,1.625600*%
%ADD15P,1.759533X8X22.500000*%
%ADD16R,0.401600X0.651600*%
%ADD17R,0.651600X0.401600*%
%ADD18R,5.701600X5.701600*%
%ADD19R,0.501600X1.501597*%
%ADD20C,0.605878*%
%ADD21C,1.801600*%
%ADD22R,1.801600X1.801600*%
%ADD23R,1.801600X1.801600*%
%ADD24C,1.101600*%
%ADD25R,0.601600X0.901600*%

G36*
X87369Y130967D02*
X87369Y130967D01*
X87416Y130965D01*
X90454Y131330D01*
X90486Y131341D01*
X90532Y131346D01*
X93472Y132194D01*
X93502Y132210D01*
X93548Y132222D01*
X96314Y133531D01*
X96336Y133548D01*
X96363Y133558D01*
X96415Y133607D01*
X96473Y133650D01*
X96487Y133675D01*
X96508Y133694D01*
X96537Y133760D01*
X96573Y133822D01*
X96576Y133850D01*
X96588Y133876D01*
X96589Y133948D01*
X96598Y134019D01*
X96590Y134046D01*
X96591Y134075D01*
X96555Y134170D01*
X96544Y134210D01*
X96537Y134219D01*
X96533Y134231D01*
X87176Y150482D01*
X96533Y166733D01*
X96542Y166760D01*
X96558Y166784D01*
X96573Y166854D01*
X96596Y166922D01*
X96593Y166950D01*
X96599Y166978D01*
X96586Y167049D01*
X96580Y167120D01*
X96567Y167145D01*
X96561Y167173D01*
X96521Y167233D01*
X96488Y167296D01*
X96466Y167314D01*
X96450Y167338D01*
X96367Y167396D01*
X96335Y167423D01*
X96324Y167426D01*
X96314Y167433D01*
X93548Y168742D01*
X93515Y168750D01*
X93472Y168770D01*
X90532Y169618D01*
X90498Y169621D01*
X90454Y169634D01*
X87416Y169999D01*
X87382Y169996D01*
X87335Y170002D01*
X84278Y169875D01*
X84245Y169867D01*
X84198Y169866D01*
X81201Y169250D01*
X81170Y169237D01*
X81124Y169228D01*
X78264Y168139D01*
X78236Y168121D01*
X78192Y168105D01*
X75544Y166571D01*
X75518Y166549D01*
X75478Y166526D01*
X73110Y164588D01*
X73088Y164561D01*
X73052Y164532D01*
X71025Y162239D01*
X71009Y162210D01*
X70977Y162175D01*
X69345Y159587D01*
X69333Y159555D01*
X69308Y159516D01*
X68112Y156699D01*
X68105Y156666D01*
X68102Y156659D01*
X68098Y156653D01*
X68097Y156647D01*
X68086Y156623D01*
X67358Y153651D01*
X67356Y153617D01*
X67345Y153572D01*
X67102Y150522D01*
X67106Y150493D01*
X67101Y150465D01*
X67103Y150455D01*
X67102Y150442D01*
X67345Y147392D01*
X67354Y147360D01*
X67358Y147313D01*
X68086Y144341D01*
X68101Y144310D01*
X68112Y144265D01*
X69308Y141448D01*
X69327Y141420D01*
X69345Y141377D01*
X70977Y138789D01*
X71001Y138765D01*
X71025Y138725D01*
X73052Y136432D01*
X73079Y136412D01*
X73110Y136376D01*
X75478Y134438D01*
X75508Y134422D01*
X75544Y134393D01*
X78192Y132860D01*
X78224Y132849D01*
X78264Y132825D01*
X81124Y131737D01*
X81157Y131731D01*
X81201Y131714D01*
X84198Y131098D01*
X84232Y131098D01*
X84278Y131089D01*
X87335Y130962D01*
X87369Y130967D01*
G37*
G36*
X87115Y-169261D02*
X87115Y-169261D01*
X87162Y-169263D01*
X90200Y-168898D01*
X90232Y-168887D01*
X90278Y-168882D01*
X93218Y-168034D01*
X93248Y-168018D01*
X93294Y-168006D01*
X96060Y-166697D01*
X96082Y-166680D01*
X96109Y-166670D01*
X96161Y-166621D01*
X96219Y-166578D01*
X96233Y-166553D01*
X96254Y-166534D01*
X96283Y-166468D01*
X96319Y-166406D01*
X96322Y-166378D01*
X96334Y-166352D01*
X96335Y-166280D01*
X96344Y-166209D01*
X96336Y-166182D01*
X96337Y-166153D01*
X96301Y-166058D01*
X96290Y-166018D01*
X96283Y-166009D01*
X96279Y-165997D01*
X86922Y-149746D01*
X96279Y-133495D01*
X96288Y-133468D01*
X96304Y-133444D01*
X96319Y-133374D01*
X96342Y-133306D01*
X96339Y-133278D01*
X96345Y-133250D01*
X96332Y-133180D01*
X96326Y-133108D01*
X96313Y-133083D01*
X96307Y-133055D01*
X96267Y-132995D01*
X96234Y-132932D01*
X96212Y-132914D01*
X96196Y-132890D01*
X96113Y-132832D01*
X96081Y-132805D01*
X96070Y-132802D01*
X96060Y-132795D01*
X93294Y-131486D01*
X93261Y-131478D01*
X93218Y-131458D01*
X90278Y-130610D01*
X90244Y-130607D01*
X90200Y-130594D01*
X87162Y-130229D01*
X87128Y-130232D01*
X87081Y-130226D01*
X84024Y-130353D01*
X83991Y-130361D01*
X83944Y-130362D01*
X80947Y-130978D01*
X80916Y-130991D01*
X80870Y-131001D01*
X78010Y-132089D01*
X77982Y-132107D01*
X77938Y-132124D01*
X75290Y-133657D01*
X75264Y-133679D01*
X75224Y-133702D01*
X72856Y-135640D01*
X72834Y-135667D01*
X72798Y-135696D01*
X70771Y-137989D01*
X70755Y-138018D01*
X70723Y-138053D01*
X69091Y-140641D01*
X69079Y-140673D01*
X69054Y-140712D01*
X67858Y-143529D01*
X67851Y-143562D01*
X67848Y-143569D01*
X67844Y-143575D01*
X67843Y-143581D01*
X67832Y-143605D01*
X67104Y-146577D01*
X67102Y-146611D01*
X67091Y-146656D01*
X66848Y-149706D01*
X66852Y-149735D01*
X66847Y-149763D01*
X66849Y-149773D01*
X66848Y-149786D01*
X67091Y-152836D01*
X67100Y-152868D01*
X67104Y-152915D01*
X67832Y-155887D01*
X67847Y-155918D01*
X67858Y-155963D01*
X69054Y-158780D01*
X69073Y-158808D01*
X69091Y-158851D01*
X70723Y-161439D01*
X70747Y-161463D01*
X70771Y-161503D01*
X72798Y-163796D01*
X72825Y-163816D01*
X72856Y-163852D01*
X75224Y-165790D01*
X75254Y-165806D01*
X75290Y-165835D01*
X77938Y-167369D01*
X77970Y-167379D01*
X78010Y-167403D01*
X80870Y-168492D01*
X80903Y-168497D01*
X80947Y-168514D01*
X83944Y-169130D01*
X83978Y-169130D01*
X84024Y-169139D01*
X87081Y-169266D01*
X87115Y-169261D01*
G37*
G36*
X-84278Y131089D02*
X-84278Y131089D01*
X-84245Y131097D01*
X-84198Y131098D01*
X-81201Y131714D01*
X-81170Y131727D01*
X-81124Y131737D01*
X-78264Y132825D01*
X-78236Y132843D01*
X-78192Y132860D01*
X-75544Y134393D01*
X-75518Y134415D01*
X-75478Y134438D01*
X-73110Y136376D01*
X-73088Y136403D01*
X-73052Y136432D01*
X-71025Y138725D01*
X-71009Y138754D01*
X-70977Y138789D01*
X-69345Y141377D01*
X-69333Y141409D01*
X-69308Y141448D01*
X-68112Y144265D01*
X-68105Y144298D01*
X-68086Y144341D01*
X-67358Y147313D01*
X-67356Y147347D01*
X-67345Y147392D01*
X-67102Y150442D01*
X-67106Y150471D01*
X-67101Y150499D01*
X-67103Y150509D01*
X-67102Y150522D01*
X-67345Y153572D01*
X-67354Y153604D01*
X-67358Y153651D01*
X-68086Y156623D01*
X-68101Y156654D01*
X-68112Y156699D01*
X-69308Y159516D01*
X-69327Y159544D01*
X-69345Y159587D01*
X-70977Y162175D01*
X-71001Y162199D01*
X-71025Y162239D01*
X-73052Y164532D01*
X-73079Y164552D01*
X-73110Y164588D01*
X-75478Y166526D01*
X-75508Y166542D01*
X-75544Y166571D01*
X-78192Y168105D01*
X-78224Y168115D01*
X-78264Y168139D01*
X-81124Y169228D01*
X-81157Y169233D01*
X-81201Y169250D01*
X-84198Y169866D01*
X-84232Y169866D01*
X-84278Y169875D01*
X-87335Y170002D01*
X-87369Y169997D01*
X-87416Y169999D01*
X-90454Y169634D01*
X-90486Y169623D01*
X-90532Y169618D01*
X-93472Y168770D01*
X-93502Y168754D01*
X-93548Y168742D01*
X-96314Y167433D01*
X-96336Y167416D01*
X-96363Y167406D01*
X-96415Y167357D01*
X-96473Y167314D01*
X-96487Y167289D01*
X-96508Y167270D01*
X-96537Y167204D01*
X-96573Y167142D01*
X-96576Y167114D01*
X-96588Y167088D01*
X-96589Y167016D01*
X-96598Y166945D01*
X-96590Y166918D01*
X-96591Y166889D01*
X-96555Y166794D01*
X-96544Y166754D01*
X-96537Y166745D01*
X-96533Y166733D01*
X-87176Y150482D01*
X-96533Y134231D01*
X-96542Y134204D01*
X-96558Y134180D01*
X-96573Y134110D01*
X-96596Y134042D01*
X-96593Y134014D01*
X-96599Y133986D01*
X-96586Y133916D01*
X-96580Y133844D01*
X-96567Y133819D01*
X-96561Y133791D01*
X-96521Y133731D01*
X-96488Y133668D01*
X-96466Y133650D01*
X-96450Y133626D01*
X-96367Y133568D01*
X-96335Y133541D01*
X-96324Y133538D01*
X-96314Y133531D01*
X-93548Y132222D01*
X-93515Y132214D01*
X-93472Y132194D01*
X-90532Y131346D01*
X-90498Y131343D01*
X-90454Y131330D01*
X-87416Y130965D01*
X-87382Y130968D01*
X-87335Y130962D01*
X-84278Y131089D01*
G37*
G36*
X-84532Y-169139D02*
X-84532Y-169139D01*
X-84499Y-169131D01*
X-84452Y-169130D01*
X-81455Y-168514D01*
X-81424Y-168501D01*
X-81378Y-168492D01*
X-78518Y-167403D01*
X-78490Y-167385D01*
X-78446Y-167369D01*
X-75798Y-165835D01*
X-75772Y-165813D01*
X-75732Y-165790D01*
X-73364Y-163852D01*
X-73342Y-163825D01*
X-73306Y-163796D01*
X-71279Y-161503D01*
X-71263Y-161474D01*
X-71231Y-161439D01*
X-69599Y-158851D01*
X-69587Y-158819D01*
X-69562Y-158780D01*
X-68366Y-155963D01*
X-68359Y-155930D01*
X-68340Y-155887D01*
X-67612Y-152915D01*
X-67610Y-152881D01*
X-67599Y-152836D01*
X-67356Y-149786D01*
X-67360Y-149757D01*
X-67355Y-149729D01*
X-67357Y-149719D01*
X-67356Y-149706D01*
X-67599Y-146656D01*
X-67608Y-146624D01*
X-67612Y-146577D01*
X-68340Y-143605D01*
X-68355Y-143574D01*
X-68366Y-143529D01*
X-69562Y-140712D01*
X-69581Y-140684D01*
X-69599Y-140641D01*
X-71231Y-138053D01*
X-71255Y-138029D01*
X-71279Y-137989D01*
X-73306Y-135696D01*
X-73333Y-135676D01*
X-73364Y-135640D01*
X-75732Y-133702D01*
X-75762Y-133686D01*
X-75798Y-133657D01*
X-78446Y-132124D01*
X-78478Y-132113D01*
X-78518Y-132089D01*
X-81378Y-131001D01*
X-81411Y-130995D01*
X-81455Y-130978D01*
X-84452Y-130362D01*
X-84486Y-130362D01*
X-84532Y-130353D01*
X-87589Y-130226D01*
X-87623Y-130231D01*
X-87670Y-130229D01*
X-90708Y-130594D01*
X-90740Y-130605D01*
X-90786Y-130610D01*
X-93726Y-131458D01*
X-93756Y-131474D01*
X-93802Y-131486D01*
X-96568Y-132795D01*
X-96590Y-132812D01*
X-96617Y-132822D01*
X-96669Y-132871D01*
X-96727Y-132914D01*
X-96741Y-132939D01*
X-96762Y-132958D01*
X-96791Y-133024D01*
X-96827Y-133086D01*
X-96830Y-133114D01*
X-96842Y-133140D01*
X-96843Y-133212D01*
X-96852Y-133283D01*
X-96844Y-133310D01*
X-96845Y-133339D01*
X-96809Y-133434D01*
X-96798Y-133474D01*
X-96791Y-133483D01*
X-96787Y-133495D01*
X-87430Y-149746D01*
X-96787Y-165997D01*
X-96796Y-166024D01*
X-96812Y-166048D01*
X-96827Y-166118D01*
X-96850Y-166186D01*
X-96847Y-166214D01*
X-96853Y-166242D01*
X-96840Y-166313D01*
X-96834Y-166384D01*
X-96821Y-166409D01*
X-96815Y-166437D01*
X-96775Y-166497D01*
X-96742Y-166560D01*
X-96720Y-166578D01*
X-96704Y-166602D01*
X-96621Y-166660D01*
X-96589Y-166687D01*
X-96578Y-166690D01*
X-96568Y-166697D01*
X-93802Y-168006D01*
X-93769Y-168014D01*
X-93726Y-168034D01*
X-90786Y-168882D01*
X-90752Y-168885D01*
X-90708Y-168898D01*
X-87670Y-169263D01*
X-87636Y-169260D01*
X-87589Y-169266D01*
X-84532Y-169139D01*
G37*
G36*
X-121393Y210292D02*
X-121393Y210292D01*
X-121322Y210289D01*
X-121295Y210299D01*
X-121266Y210301D01*
X-121176Y210343D01*
X-121136Y210358D01*
X-121128Y210366D01*
X-121115Y210372D01*
X-118812Y211971D01*
X-118788Y211997D01*
X-118748Y212024D01*
X-116739Y213981D01*
X-116720Y214010D01*
X-116685Y214043D01*
X-115026Y216304D01*
X-115011Y216335D01*
X-114982Y216374D01*
X-113718Y218877D01*
X-113709Y218911D01*
X-113687Y218954D01*
X-112851Y221631D01*
X-112848Y221665D01*
X-112833Y221711D01*
X-112450Y224490D01*
X-112452Y224524D01*
X-112446Y224572D01*
X-112525Y227375D01*
X-112533Y227409D01*
X-112534Y227457D01*
X-113073Y230209D01*
X-113087Y230241D01*
X-113096Y230289D01*
X-114081Y232914D01*
X-114096Y232939D01*
X-114101Y232959D01*
X-114109Y232970D01*
X-114116Y232989D01*
X-115520Y235417D01*
X-115543Y235443D01*
X-115567Y235485D01*
X-117351Y237648D01*
X-117378Y237670D01*
X-117409Y237707D01*
X-119525Y239548D01*
X-119555Y239565D01*
X-119591Y239597D01*
X-121982Y241064D01*
X-122014Y241075D01*
X-122055Y241101D01*
X-124654Y242154D01*
X-124688Y242161D01*
X-124733Y242179D01*
X-127470Y242790D01*
X-127505Y242791D01*
X-127552Y242802D01*
X-130352Y242954D01*
X-130386Y242949D01*
X-130434Y242952D01*
X-133222Y242642D01*
X-133255Y242631D01*
X-133303Y242626D01*
X-136001Y241861D01*
X-136031Y241845D01*
X-136078Y241832D01*
X-138613Y240633D01*
X-138637Y240616D01*
X-138664Y240606D01*
X-138716Y240557D01*
X-138773Y240514D01*
X-138787Y240489D01*
X-138809Y240469D01*
X-138837Y240404D01*
X-138873Y240343D01*
X-138876Y240314D01*
X-138888Y240287D01*
X-138889Y240216D01*
X-138898Y240145D01*
X-138890Y240117D01*
X-138890Y240088D01*
X-138856Y239995D01*
X-138844Y239954D01*
X-138837Y239945D01*
X-138832Y239932D01*
X-121832Y210532D01*
X-121813Y210510D01*
X-121800Y210484D01*
X-121747Y210436D01*
X-121700Y210383D01*
X-121674Y210371D01*
X-121652Y210351D01*
X-121585Y210328D01*
X-121521Y210298D01*
X-121492Y210296D01*
X-121464Y210287D01*
X-121393Y210292D01*
G37*
G36*
X130386Y358015D02*
X130386Y358015D01*
X130434Y358012D01*
X133222Y358322D01*
X133255Y358333D01*
X133303Y358338D01*
X136001Y359103D01*
X136031Y359119D01*
X136078Y359132D01*
X138613Y360331D01*
X138637Y360348D01*
X138664Y360358D01*
X138716Y360407D01*
X138773Y360450D01*
X138787Y360475D01*
X138809Y360495D01*
X138837Y360560D01*
X138873Y360622D01*
X138876Y360650D01*
X138888Y360677D01*
X138889Y360748D01*
X138898Y360819D01*
X138890Y360847D01*
X138890Y360876D01*
X138856Y360969D01*
X138844Y361010D01*
X138837Y361019D01*
X138832Y361032D01*
X121832Y390432D01*
X121813Y390454D01*
X121800Y390480D01*
X121747Y390528D01*
X121700Y390581D01*
X121674Y390593D01*
X121652Y390613D01*
X121585Y390636D01*
X121521Y390666D01*
X121492Y390668D01*
X121464Y390677D01*
X121393Y390672D01*
X121322Y390675D01*
X121295Y390665D01*
X121266Y390663D01*
X121176Y390621D01*
X121136Y390606D01*
X121128Y390598D01*
X121115Y390592D01*
X118812Y388993D01*
X118788Y388968D01*
X118748Y388940D01*
X116739Y386983D01*
X116720Y386954D01*
X116685Y386921D01*
X115026Y384660D01*
X115011Y384629D01*
X114982Y384590D01*
X113718Y382087D01*
X113709Y382053D01*
X113687Y382010D01*
X112851Y379333D01*
X112848Y379299D01*
X112833Y379253D01*
X112450Y376474D01*
X112452Y376440D01*
X112446Y376392D01*
X112525Y373589D01*
X112533Y373555D01*
X112534Y373507D01*
X113073Y370755D01*
X113087Y370723D01*
X113096Y370675D01*
X114081Y368050D01*
X114099Y368020D01*
X114116Y367975D01*
X115520Y365547D01*
X115543Y365521D01*
X115567Y365480D01*
X117351Y363316D01*
X117378Y363294D01*
X117409Y363257D01*
X119525Y361416D01*
X119555Y361399D01*
X119591Y361368D01*
X121982Y359900D01*
X122014Y359889D01*
X122055Y359863D01*
X124654Y358810D01*
X124688Y358803D01*
X124733Y358785D01*
X127470Y358174D01*
X127505Y358173D01*
X127552Y358162D01*
X130352Y358010D01*
X130386Y358015D01*
G37*
G36*
X130386Y58015D02*
X130386Y58015D01*
X130434Y58012D01*
X133222Y58322D01*
X133255Y58333D01*
X133303Y58338D01*
X136001Y59103D01*
X136031Y59119D01*
X136078Y59132D01*
X138613Y60331D01*
X138637Y60348D01*
X138664Y60358D01*
X138716Y60407D01*
X138773Y60450D01*
X138787Y60475D01*
X138809Y60495D01*
X138837Y60560D01*
X138873Y60622D01*
X138876Y60650D01*
X138888Y60677D01*
X138889Y60748D01*
X138898Y60819D01*
X138890Y60847D01*
X138890Y60876D01*
X138856Y60969D01*
X138844Y61010D01*
X138837Y61019D01*
X138832Y61032D01*
X121832Y90432D01*
X121813Y90454D01*
X121800Y90480D01*
X121747Y90528D01*
X121700Y90581D01*
X121674Y90593D01*
X121652Y90613D01*
X121585Y90636D01*
X121521Y90666D01*
X121492Y90668D01*
X121464Y90677D01*
X121393Y90672D01*
X121322Y90675D01*
X121295Y90665D01*
X121266Y90663D01*
X121176Y90621D01*
X121136Y90606D01*
X121128Y90598D01*
X121115Y90592D01*
X118812Y88993D01*
X118788Y88968D01*
X118748Y88940D01*
X116739Y86983D01*
X116720Y86954D01*
X116685Y86921D01*
X115026Y84660D01*
X115011Y84629D01*
X114982Y84590D01*
X113718Y82087D01*
X113709Y82053D01*
X113687Y82010D01*
X112851Y79333D01*
X112848Y79299D01*
X112833Y79253D01*
X112450Y76474D01*
X112452Y76440D01*
X112446Y76392D01*
X112525Y73589D01*
X112533Y73555D01*
X112534Y73507D01*
X113073Y70755D01*
X113087Y70723D01*
X113096Y70675D01*
X114081Y68050D01*
X114099Y68020D01*
X114116Y67975D01*
X115520Y65547D01*
X115543Y65521D01*
X115567Y65480D01*
X117351Y63316D01*
X117378Y63294D01*
X117409Y63257D01*
X119525Y61416D01*
X119555Y61399D01*
X119591Y61368D01*
X121982Y59900D01*
X122014Y59889D01*
X122055Y59863D01*
X124654Y58810D01*
X124688Y58803D01*
X124733Y58785D01*
X127470Y58174D01*
X127505Y58173D01*
X127552Y58162D01*
X130352Y58010D01*
X130386Y58015D01*
G37*
G36*
X130132Y-241933D02*
X130132Y-241933D01*
X130180Y-241936D01*
X132968Y-241626D01*
X133001Y-241615D01*
X133049Y-241610D01*
X135747Y-240845D01*
X135777Y-240829D01*
X135824Y-240816D01*
X138359Y-239617D01*
X138383Y-239600D01*
X138410Y-239590D01*
X138462Y-239541D01*
X138519Y-239498D01*
X138533Y-239473D01*
X138555Y-239453D01*
X138583Y-239388D01*
X138619Y-239327D01*
X138622Y-239298D01*
X138634Y-239271D01*
X138635Y-239200D01*
X138644Y-239129D01*
X138636Y-239101D01*
X138636Y-239072D01*
X138602Y-238979D01*
X138590Y-238938D01*
X138583Y-238929D01*
X138578Y-238916D01*
X121578Y-209516D01*
X121559Y-209494D01*
X121546Y-209468D01*
X121493Y-209420D01*
X121446Y-209367D01*
X121420Y-209355D01*
X121398Y-209335D01*
X121331Y-209312D01*
X121267Y-209282D01*
X121238Y-209280D01*
X121210Y-209271D01*
X121139Y-209276D01*
X121068Y-209273D01*
X121041Y-209283D01*
X121012Y-209285D01*
X120922Y-209327D01*
X120882Y-209342D01*
X120874Y-209350D01*
X120861Y-209356D01*
X118558Y-210955D01*
X118534Y-210981D01*
X118494Y-211008D01*
X116485Y-212965D01*
X116466Y-212994D01*
X116431Y-213027D01*
X114772Y-215288D01*
X114757Y-215319D01*
X114728Y-215358D01*
X113464Y-217861D01*
X113455Y-217895D01*
X113433Y-217938D01*
X112597Y-220615D01*
X112594Y-220649D01*
X112579Y-220695D01*
X112196Y-223474D01*
X112198Y-223508D01*
X112192Y-223556D01*
X112271Y-226359D01*
X112279Y-226393D01*
X112280Y-226441D01*
X112819Y-229193D01*
X112833Y-229225D01*
X112842Y-229273D01*
X113827Y-231898D01*
X113845Y-231928D01*
X113862Y-231973D01*
X115266Y-234401D01*
X115289Y-234427D01*
X115313Y-234469D01*
X117097Y-236632D01*
X117124Y-236654D01*
X117155Y-236691D01*
X119271Y-238532D01*
X119301Y-238549D01*
X119337Y-238581D01*
X121728Y-240048D01*
X121760Y-240059D01*
X121801Y-240085D01*
X124400Y-241138D01*
X124434Y-241145D01*
X124479Y-241163D01*
X127216Y-241774D01*
X127251Y-241775D01*
X127298Y-241786D01*
X130098Y-241938D01*
X130132Y-241933D01*
G37*
G36*
X121426Y210293D02*
X121426Y210293D01*
X121497Y210292D01*
X121524Y210303D01*
X121553Y210307D01*
X121615Y210341D01*
X121680Y210369D01*
X121701Y210390D01*
X121726Y210404D01*
X121789Y210480D01*
X121819Y210511D01*
X121823Y210521D01*
X121832Y210532D01*
X138832Y239932D01*
X138841Y239960D01*
X138858Y239984D01*
X138873Y240053D01*
X138895Y240121D01*
X138893Y240150D01*
X138899Y240178D01*
X138886Y240248D01*
X138880Y240319D01*
X138867Y240345D01*
X138861Y240373D01*
X138821Y240432D01*
X138789Y240495D01*
X138766Y240514D01*
X138750Y240538D01*
X138668Y240595D01*
X138635Y240622D01*
X138625Y240625D01*
X138613Y240633D01*
X136078Y241832D01*
X136044Y241840D01*
X136001Y241861D01*
X133303Y242626D01*
X133268Y242628D01*
X133222Y242642D01*
X130434Y242952D01*
X130400Y242949D01*
X130352Y242954D01*
X127552Y242802D01*
X127518Y242793D01*
X127470Y242790D01*
X124733Y242179D01*
X124701Y242165D01*
X124654Y242154D01*
X122055Y241101D01*
X122026Y241082D01*
X121982Y241064D01*
X119591Y239597D01*
X119566Y239573D01*
X119525Y239548D01*
X117409Y237707D01*
X117388Y237680D01*
X117351Y237648D01*
X115567Y235485D01*
X115551Y235454D01*
X115520Y235417D01*
X114116Y232989D01*
X114105Y232956D01*
X114098Y232943D01*
X114088Y232929D01*
X114088Y232926D01*
X114081Y232914D01*
X113096Y230289D01*
X113090Y230254D01*
X113073Y230209D01*
X112534Y227457D01*
X112534Y227423D01*
X112525Y227375D01*
X112446Y224572D01*
X112452Y224538D01*
X112450Y224490D01*
X112833Y221711D01*
X112845Y221679D01*
X112851Y221631D01*
X113687Y218954D01*
X113704Y218923D01*
X113718Y218877D01*
X114982Y216374D01*
X115004Y216347D01*
X115026Y216304D01*
X116685Y214043D01*
X116711Y214020D01*
X116739Y213981D01*
X118748Y212024D01*
X118777Y212005D01*
X118812Y211971D01*
X121115Y210372D01*
X121142Y210360D01*
X121165Y210342D01*
X121233Y210321D01*
X121298Y210293D01*
X121327Y210293D01*
X121355Y210285D01*
X121426Y210293D01*
G37*
G36*
X-127552Y358162D02*
X-127552Y358162D01*
X-127518Y358171D01*
X-127470Y358174D01*
X-124733Y358785D01*
X-124701Y358799D01*
X-124654Y358810D01*
X-122055Y359863D01*
X-122026Y359882D01*
X-121982Y359900D01*
X-119591Y361368D01*
X-119566Y361391D01*
X-119525Y361416D01*
X-117409Y363257D01*
X-117388Y363284D01*
X-117351Y363316D01*
X-115567Y365480D01*
X-115551Y365510D01*
X-115520Y365547D01*
X-114116Y367975D01*
X-114105Y368008D01*
X-114081Y368050D01*
X-113096Y370675D01*
X-113090Y370710D01*
X-113073Y370755D01*
X-112534Y373507D01*
X-112534Y373542D01*
X-112525Y373589D01*
X-112446Y376392D01*
X-112452Y376426D01*
X-112450Y376474D01*
X-112833Y379253D01*
X-112845Y379285D01*
X-112851Y379333D01*
X-113687Y382010D01*
X-113704Y382041D01*
X-113718Y382087D01*
X-114982Y384590D01*
X-115004Y384617D01*
X-115026Y384660D01*
X-116685Y386921D01*
X-116711Y386944D01*
X-116739Y386983D01*
X-118748Y388940D01*
X-118777Y388959D01*
X-118812Y388993D01*
X-121115Y390592D01*
X-121142Y390604D01*
X-121165Y390622D01*
X-121233Y390643D01*
X-121298Y390671D01*
X-121327Y390671D01*
X-121355Y390679D01*
X-121426Y390671D01*
X-121497Y390672D01*
X-121524Y390661D01*
X-121553Y390657D01*
X-121615Y390623D01*
X-121680Y390595D01*
X-121701Y390574D01*
X-121726Y390560D01*
X-121789Y390484D01*
X-121819Y390453D01*
X-121823Y390443D01*
X-121832Y390432D01*
X-138832Y361032D01*
X-138841Y361004D01*
X-138858Y360980D01*
X-138873Y360911D01*
X-138895Y360843D01*
X-138893Y360814D01*
X-138899Y360786D01*
X-138886Y360716D01*
X-138880Y360645D01*
X-138867Y360619D01*
X-138861Y360591D01*
X-138821Y360532D01*
X-138789Y360469D01*
X-138766Y360450D01*
X-138750Y360426D01*
X-138668Y360369D01*
X-138635Y360342D01*
X-138625Y360339D01*
X-138613Y360331D01*
X-136078Y359132D01*
X-136044Y359124D01*
X-136001Y359103D01*
X-133303Y358338D01*
X-133268Y358336D01*
X-133222Y358322D01*
X-130434Y358012D01*
X-130400Y358015D01*
X-130352Y358010D01*
X-127552Y358162D01*
G37*
G36*
X-127552Y58162D02*
X-127552Y58162D01*
X-127518Y58171D01*
X-127470Y58174D01*
X-124733Y58785D01*
X-124701Y58799D01*
X-124654Y58810D01*
X-122055Y59863D01*
X-122026Y59882D01*
X-121982Y59900D01*
X-119591Y61368D01*
X-119566Y61391D01*
X-119525Y61416D01*
X-117409Y63257D01*
X-117388Y63284D01*
X-117351Y63316D01*
X-115567Y65480D01*
X-115551Y65510D01*
X-115520Y65547D01*
X-114116Y67975D01*
X-114105Y68008D01*
X-114081Y68050D01*
X-113096Y70675D01*
X-113090Y70710D01*
X-113073Y70755D01*
X-112534Y73507D01*
X-112534Y73542D01*
X-112525Y73589D01*
X-112446Y76392D01*
X-112452Y76426D01*
X-112450Y76474D01*
X-112833Y79253D01*
X-112845Y79285D01*
X-112851Y79333D01*
X-113687Y82010D01*
X-113704Y82041D01*
X-113718Y82087D01*
X-114982Y84590D01*
X-115004Y84617D01*
X-115026Y84660D01*
X-116685Y86921D01*
X-116711Y86944D01*
X-116739Y86983D01*
X-118748Y88940D01*
X-118777Y88959D01*
X-118812Y88993D01*
X-121115Y90592D01*
X-121142Y90604D01*
X-121165Y90622D01*
X-121233Y90643D01*
X-121298Y90671D01*
X-121327Y90671D01*
X-121355Y90679D01*
X-121426Y90671D01*
X-121497Y90672D01*
X-121524Y90661D01*
X-121553Y90657D01*
X-121615Y90623D01*
X-121680Y90595D01*
X-121701Y90574D01*
X-121726Y90560D01*
X-121789Y90484D01*
X-121819Y90453D01*
X-121823Y90443D01*
X-121832Y90432D01*
X-138832Y61032D01*
X-138841Y61004D01*
X-138858Y60980D01*
X-138873Y60911D01*
X-138895Y60843D01*
X-138893Y60814D01*
X-138899Y60786D01*
X-138886Y60716D01*
X-138880Y60645D01*
X-138867Y60619D01*
X-138861Y60591D01*
X-138821Y60532D01*
X-138789Y60469D01*
X-138766Y60450D01*
X-138750Y60426D01*
X-138668Y60369D01*
X-138635Y60342D01*
X-138625Y60339D01*
X-138613Y60331D01*
X-136078Y59132D01*
X-136044Y59124D01*
X-136001Y59103D01*
X-133303Y58338D01*
X-133268Y58336D01*
X-133222Y58322D01*
X-130434Y58012D01*
X-130400Y58015D01*
X-130352Y58010D01*
X-127552Y58162D01*
G37*
G36*
X-127806Y-241786D02*
X-127806Y-241786D01*
X-127772Y-241777D01*
X-127724Y-241774D01*
X-124987Y-241163D01*
X-124955Y-241149D01*
X-124908Y-241138D01*
X-122309Y-240085D01*
X-122280Y-240066D01*
X-122236Y-240048D01*
X-119845Y-238581D01*
X-119820Y-238557D01*
X-119779Y-238532D01*
X-117663Y-236691D01*
X-117642Y-236664D01*
X-117605Y-236632D01*
X-115821Y-234469D01*
X-115805Y-234438D01*
X-115774Y-234401D01*
X-114370Y-231973D01*
X-114359Y-231940D01*
X-114335Y-231898D01*
X-113350Y-229273D01*
X-113344Y-229238D01*
X-113327Y-229193D01*
X-112788Y-226441D01*
X-112788Y-226407D01*
X-112779Y-226359D01*
X-112700Y-223556D01*
X-112706Y-223522D01*
X-112704Y-223474D01*
X-113087Y-220695D01*
X-113099Y-220663D01*
X-113105Y-220615D01*
X-113941Y-217938D01*
X-113958Y-217907D01*
X-113972Y-217861D01*
X-115236Y-215358D01*
X-115258Y-215331D01*
X-115280Y-215288D01*
X-116939Y-213027D01*
X-116965Y-213004D01*
X-116993Y-212965D01*
X-119002Y-211008D01*
X-119031Y-210989D01*
X-119066Y-210955D01*
X-121369Y-209356D01*
X-121396Y-209344D01*
X-121419Y-209326D01*
X-121487Y-209305D01*
X-121552Y-209277D01*
X-121581Y-209277D01*
X-121609Y-209269D01*
X-121680Y-209277D01*
X-121751Y-209276D01*
X-121778Y-209287D01*
X-121807Y-209291D01*
X-121869Y-209325D01*
X-121934Y-209353D01*
X-121955Y-209374D01*
X-121980Y-209388D01*
X-122043Y-209464D01*
X-122073Y-209495D01*
X-122077Y-209505D01*
X-122086Y-209516D01*
X-139086Y-238916D01*
X-139095Y-238944D01*
X-139112Y-238968D01*
X-139127Y-239037D01*
X-139149Y-239105D01*
X-139147Y-239134D01*
X-139153Y-239162D01*
X-139140Y-239232D01*
X-139134Y-239303D01*
X-139121Y-239329D01*
X-139115Y-239357D01*
X-139075Y-239416D01*
X-139043Y-239479D01*
X-139020Y-239498D01*
X-139004Y-239522D01*
X-138922Y-239579D01*
X-138889Y-239606D01*
X-138879Y-239609D01*
X-138867Y-239617D01*
X-136332Y-240816D01*
X-136298Y-240824D01*
X-136255Y-240845D01*
X-133557Y-241610D01*
X-133522Y-241612D01*
X-133476Y-241626D01*
X-130688Y-241936D01*
X-130654Y-241933D01*
X-130606Y-241938D01*
X-127806Y-241786D01*
G37*
G36*
X163727Y283493D02*
X163727Y283493D01*
X163798Y283493D01*
X163825Y283504D01*
X163854Y283507D01*
X163916Y283542D01*
X163981Y283570D01*
X164002Y283590D01*
X164027Y283605D01*
X164090Y283682D01*
X164120Y283712D01*
X164124Y283722D01*
X164133Y283733D01*
X173633Y300233D01*
X173643Y300265D01*
X173652Y300278D01*
X173656Y300302D01*
X173657Y300306D01*
X173688Y300376D01*
X173688Y300400D01*
X173696Y300422D01*
X173690Y300498D01*
X173691Y300575D01*
X173681Y300599D01*
X173680Y300620D01*
X173659Y300659D01*
X173633Y300731D01*
X164133Y317231D01*
X164114Y317253D01*
X164101Y317279D01*
X164048Y317327D01*
X164001Y317380D01*
X163975Y317393D01*
X163954Y317412D01*
X163886Y317435D01*
X163822Y317466D01*
X163793Y317468D01*
X163766Y317477D01*
X163694Y317472D01*
X163623Y317475D01*
X163596Y317465D01*
X163567Y317463D01*
X163477Y317421D01*
X163437Y317406D01*
X163429Y317399D01*
X163416Y317393D01*
X160893Y315651D01*
X160869Y315627D01*
X160831Y315600D01*
X158619Y313476D01*
X158600Y313448D01*
X158566Y313416D01*
X156724Y310965D01*
X156710Y310934D01*
X156681Y310897D01*
X155256Y308182D01*
X155247Y308151D01*
X155231Y308126D01*
X155230Y308118D01*
X155225Y308108D01*
X154254Y305200D01*
X154250Y305166D01*
X154235Y305122D01*
X153743Y302095D01*
X153744Y302061D01*
X153736Y302015D01*
X153736Y298949D01*
X153737Y298945D01*
X153737Y298943D01*
X153743Y298916D01*
X153743Y298869D01*
X154235Y295842D01*
X154247Y295811D01*
X154254Y295764D01*
X155225Y292856D01*
X155242Y292827D01*
X155256Y292782D01*
X156681Y290067D01*
X156703Y290041D01*
X156724Y289999D01*
X158566Y287548D01*
X158591Y287525D01*
X158619Y287488D01*
X160831Y285364D01*
X160859Y285346D01*
X160893Y285313D01*
X163416Y283571D01*
X163443Y283560D01*
X163465Y283541D01*
X163534Y283521D01*
X163599Y283493D01*
X163628Y283493D01*
X163656Y283485D01*
X163727Y283493D01*
G37*
G36*
X163727Y-16507D02*
X163727Y-16507D01*
X163798Y-16508D01*
X163825Y-16496D01*
X163854Y-16493D01*
X163916Y-16458D01*
X163981Y-16430D01*
X164002Y-16410D01*
X164027Y-16395D01*
X164090Y-16318D01*
X164120Y-16288D01*
X164124Y-16278D01*
X164133Y-16267D01*
X173633Y233D01*
X173643Y265D01*
X173652Y278D01*
X173656Y302D01*
X173657Y306D01*
X173688Y376D01*
X173688Y400D01*
X173696Y422D01*
X173690Y498D01*
X173691Y575D01*
X173681Y599D01*
X173680Y620D01*
X173659Y659D01*
X173633Y731D01*
X164133Y17231D01*
X164114Y17253D01*
X164101Y17279D01*
X164048Y17327D01*
X164001Y17380D01*
X163975Y17393D01*
X163954Y17412D01*
X163886Y17435D01*
X163822Y17466D01*
X163793Y17468D01*
X163766Y17477D01*
X163694Y17472D01*
X163623Y17475D01*
X163596Y17465D01*
X163567Y17463D01*
X163477Y17421D01*
X163437Y17406D01*
X163429Y17399D01*
X163416Y17393D01*
X160893Y15651D01*
X160869Y15627D01*
X160831Y15600D01*
X158619Y13476D01*
X158600Y13448D01*
X158566Y13416D01*
X156724Y10965D01*
X156710Y10934D01*
X156681Y10897D01*
X155256Y8182D01*
X155247Y8151D01*
X155231Y8126D01*
X155230Y8118D01*
X155225Y8108D01*
X154254Y5200D01*
X154250Y5166D01*
X154235Y5122D01*
X153743Y2095D01*
X153744Y2061D01*
X153736Y2015D01*
X153736Y-1051D01*
X153737Y-1055D01*
X153737Y-1057D01*
X153743Y-1084D01*
X153743Y-1131D01*
X154235Y-4158D01*
X154247Y-4189D01*
X154254Y-4236D01*
X155225Y-7144D01*
X155242Y-7174D01*
X155256Y-7218D01*
X156681Y-9933D01*
X156703Y-9959D01*
X156724Y-10001D01*
X158566Y-12452D01*
X158591Y-12475D01*
X158619Y-12512D01*
X160831Y-14636D01*
X160859Y-14654D01*
X160893Y-14687D01*
X163416Y-16429D01*
X163443Y-16440D01*
X163465Y-16459D01*
X163534Y-16479D01*
X163599Y-16507D01*
X163628Y-16507D01*
X163656Y-16515D01*
X163727Y-16507D01*
G37*
G36*
X-163694Y283492D02*
X-163694Y283492D01*
X-163623Y283489D01*
X-163596Y283499D01*
X-163567Y283501D01*
X-163477Y283543D01*
X-163437Y283558D01*
X-163429Y283565D01*
X-163416Y283571D01*
X-160893Y285313D01*
X-160869Y285337D01*
X-160831Y285364D01*
X-158619Y287488D01*
X-158600Y287516D01*
X-158566Y287548D01*
X-156724Y289999D01*
X-156710Y290030D01*
X-156681Y290067D01*
X-155256Y292782D01*
X-155247Y292815D01*
X-155225Y292856D01*
X-154254Y295764D01*
X-154250Y295798D01*
X-154235Y295842D01*
X-153743Y298869D01*
X-153744Y298903D01*
X-153736Y298949D01*
X-153736Y302015D01*
X-153743Y302048D01*
X-153743Y302095D01*
X-154235Y305122D01*
X-154247Y305153D01*
X-154254Y305200D01*
X-155225Y308108D01*
X-155238Y308131D01*
X-155244Y308156D01*
X-155251Y308165D01*
X-155256Y308182D01*
X-156681Y310897D01*
X-156703Y310923D01*
X-156724Y310965D01*
X-158566Y313416D01*
X-158591Y313439D01*
X-158619Y313476D01*
X-160831Y315600D01*
X-160859Y315618D01*
X-160893Y315651D01*
X-163416Y317393D01*
X-163443Y317404D01*
X-163465Y317423D01*
X-163534Y317443D01*
X-163599Y317471D01*
X-163628Y317471D01*
X-163656Y317479D01*
X-163727Y317471D01*
X-163798Y317472D01*
X-163825Y317460D01*
X-163854Y317457D01*
X-163916Y317422D01*
X-163981Y317394D01*
X-164002Y317374D01*
X-164027Y317359D01*
X-164090Y317282D01*
X-164120Y317252D01*
X-164124Y317242D01*
X-164133Y317231D01*
X-173633Y300731D01*
X-173657Y300658D01*
X-173688Y300588D01*
X-173688Y300564D01*
X-173696Y300542D01*
X-173690Y300466D01*
X-173691Y300389D01*
X-173681Y300365D01*
X-173680Y300344D01*
X-173659Y300305D01*
X-173640Y300253D01*
X-173639Y300247D01*
X-173637Y300245D01*
X-173633Y300233D01*
X-164133Y283733D01*
X-164114Y283711D01*
X-164101Y283685D01*
X-164048Y283637D01*
X-164001Y283584D01*
X-163975Y283571D01*
X-163954Y283552D01*
X-163886Y283529D01*
X-163822Y283498D01*
X-163793Y283497D01*
X-163766Y283487D01*
X-163694Y283492D01*
G37*
G36*
X-163694Y-16508D02*
X-163694Y-16508D01*
X-163623Y-16511D01*
X-163596Y-16501D01*
X-163567Y-16499D01*
X-163477Y-16457D01*
X-163437Y-16442D01*
X-163429Y-16435D01*
X-163416Y-16429D01*
X-160893Y-14687D01*
X-160869Y-14663D01*
X-160831Y-14636D01*
X-158619Y-12512D01*
X-158600Y-12484D01*
X-158566Y-12452D01*
X-156724Y-10001D01*
X-156710Y-9970D01*
X-156681Y-9933D01*
X-155256Y-7218D01*
X-155247Y-7185D01*
X-155225Y-7144D01*
X-154254Y-4236D01*
X-154250Y-4202D01*
X-154235Y-4158D01*
X-153743Y-1131D01*
X-153744Y-1097D01*
X-153736Y-1051D01*
X-153736Y2015D01*
X-153743Y2048D01*
X-153743Y2095D01*
X-154235Y5122D01*
X-154247Y5153D01*
X-154254Y5200D01*
X-155225Y8108D01*
X-155238Y8131D01*
X-155244Y8156D01*
X-155251Y8165D01*
X-155256Y8182D01*
X-156681Y10897D01*
X-156703Y10923D01*
X-156724Y10965D01*
X-158566Y13416D01*
X-158591Y13439D01*
X-158619Y13476D01*
X-160831Y15600D01*
X-160859Y15618D01*
X-160893Y15651D01*
X-163416Y17393D01*
X-163443Y17404D01*
X-163465Y17423D01*
X-163534Y17443D01*
X-163599Y17471D01*
X-163628Y17471D01*
X-163656Y17479D01*
X-163727Y17471D01*
X-163798Y17472D01*
X-163825Y17460D01*
X-163854Y17457D01*
X-163916Y17422D01*
X-163981Y17394D01*
X-164002Y17374D01*
X-164027Y17359D01*
X-164090Y17282D01*
X-164120Y17252D01*
X-164124Y17242D01*
X-164133Y17231D01*
X-173633Y731D01*
X-173657Y658D01*
X-173688Y588D01*
X-173688Y564D01*
X-173696Y542D01*
X-173690Y466D01*
X-173691Y389D01*
X-173681Y365D01*
X-173680Y344D01*
X-173659Y305D01*
X-173640Y253D01*
X-173639Y247D01*
X-173637Y245D01*
X-173633Y233D01*
X-164133Y-16267D01*
X-164114Y-16289D01*
X-164101Y-16315D01*
X-164048Y-16363D01*
X-164001Y-16416D01*
X-163975Y-16429D01*
X-163954Y-16448D01*
X-163886Y-16471D01*
X-163822Y-16502D01*
X-163793Y-16504D01*
X-163766Y-16513D01*
X-163694Y-16508D01*
G37*
G36*
X87115Y430993D02*
X87115Y430993D01*
X87162Y430991D01*
X90200Y431356D01*
X90232Y431367D01*
X90278Y431372D01*
X93218Y432220D01*
X93248Y432236D01*
X93294Y432248D01*
X96060Y433557D01*
X96082Y433574D01*
X96109Y433584D01*
X96161Y433633D01*
X96219Y433676D01*
X96233Y433701D01*
X96254Y433720D01*
X96283Y433786D01*
X96319Y433848D01*
X96322Y433876D01*
X96334Y433902D01*
X96335Y433974D01*
X96344Y434045D01*
X96336Y434072D01*
X96337Y434101D01*
X96301Y434196D01*
X96290Y434236D01*
X96283Y434245D01*
X96279Y434257D01*
X86779Y450757D01*
X86727Y450816D01*
X86681Y450878D01*
X86662Y450889D01*
X86647Y450906D01*
X86577Y450940D01*
X86510Y450980D01*
X86486Y450984D01*
X86468Y450992D01*
X86423Y450994D01*
X86346Y451007D01*
X67346Y451007D01*
X67318Y451002D01*
X67290Y451004D01*
X67222Y450982D01*
X67151Y450968D01*
X67128Y450952D01*
X67101Y450943D01*
X67046Y450896D01*
X66987Y450855D01*
X66972Y450831D01*
X66951Y450813D01*
X66919Y450748D01*
X66880Y450688D01*
X66875Y450660D01*
X66863Y450634D01*
X66854Y450533D01*
X66847Y450491D01*
X66849Y450481D01*
X66848Y450468D01*
X67091Y447418D01*
X67100Y447386D01*
X67104Y447339D01*
X67832Y444367D01*
X67847Y444336D01*
X67858Y444291D01*
X69054Y441474D01*
X69073Y441446D01*
X69091Y441403D01*
X70723Y438815D01*
X70747Y438791D01*
X70771Y438751D01*
X72798Y436458D01*
X72825Y436438D01*
X72856Y436402D01*
X75224Y434464D01*
X75254Y434448D01*
X75290Y434419D01*
X77938Y432886D01*
X77970Y432875D01*
X78010Y432851D01*
X80870Y431763D01*
X80903Y431757D01*
X80947Y431740D01*
X83944Y431124D01*
X83978Y431124D01*
X84024Y431115D01*
X87081Y430988D01*
X87115Y430993D01*
G37*
G36*
X-84532Y431115D02*
X-84532Y431115D01*
X-84499Y431123D01*
X-84452Y431124D01*
X-81455Y431740D01*
X-81424Y431753D01*
X-81378Y431763D01*
X-78518Y432851D01*
X-78490Y432869D01*
X-78446Y432886D01*
X-75798Y434419D01*
X-75772Y434441D01*
X-75732Y434464D01*
X-73364Y436402D01*
X-73342Y436429D01*
X-73306Y436458D01*
X-71279Y438751D01*
X-71263Y438780D01*
X-71231Y438815D01*
X-69599Y441403D01*
X-69587Y441435D01*
X-69562Y441474D01*
X-68366Y444291D01*
X-68359Y444324D01*
X-68340Y444367D01*
X-67612Y447339D01*
X-67610Y447373D01*
X-67599Y447418D01*
X-67356Y450468D01*
X-67360Y450497D01*
X-67355Y450525D01*
X-67372Y450594D01*
X-67380Y450666D01*
X-67395Y450690D01*
X-67401Y450718D01*
X-67444Y450776D01*
X-67480Y450838D01*
X-67502Y450855D01*
X-67519Y450878D01*
X-67581Y450915D01*
X-67638Y450958D01*
X-67666Y450965D01*
X-67690Y450980D01*
X-67790Y450996D01*
X-67831Y451007D01*
X-67841Y451005D01*
X-67854Y451007D01*
X-86854Y451007D01*
X-86930Y450992D01*
X-87008Y450983D01*
X-87027Y450972D01*
X-87049Y450968D01*
X-87113Y450924D01*
X-87181Y450885D01*
X-87197Y450866D01*
X-87213Y450855D01*
X-87237Y450817D01*
X-87287Y450757D01*
X-96787Y434257D01*
X-96796Y434230D01*
X-96812Y434206D01*
X-96827Y434136D01*
X-96850Y434068D01*
X-96847Y434040D01*
X-96853Y434012D01*
X-96840Y433942D01*
X-96834Y433870D01*
X-96821Y433845D01*
X-96815Y433817D01*
X-96775Y433757D01*
X-96742Y433694D01*
X-96720Y433676D01*
X-96704Y433652D01*
X-96621Y433594D01*
X-96589Y433567D01*
X-96578Y433564D01*
X-96568Y433557D01*
X-93802Y432248D01*
X-93769Y432240D01*
X-93726Y432220D01*
X-90786Y431372D01*
X-90752Y431369D01*
X-90708Y431356D01*
X-87670Y430991D01*
X-87636Y430994D01*
X-87589Y430988D01*
X-84532Y431115D01*
G37*
D10*
X-24488Y325438D03*
X-24488Y308438D03*
D11*
X-63223Y308978D03*
X-63223Y327978D03*
D10*
X54841Y321737D03*
X54841Y304737D03*
X-9168Y325293D03*
X-9168Y308293D03*
D11*
X-42903Y308978D03*
X-42903Y327978D03*
D12*
X30630Y203200D03*
X13630Y203200D03*
D13*
X18281Y185452D03*
X37281Y185452D03*
D12*
X-82169Y324413D03*
X-82169Y307413D03*
D14*
X-108712Y324834D03*
X-108712Y299434D03*
X-108712Y274034D03*
D15*
X81153Y288512D03*
D12*
X-1746Y186128D03*
X-1746Y203128D03*
X-21050Y189906D03*
X-21050Y206906D03*
X38505Y168085D03*
X38505Y151085D03*
D16*
X-16077Y290975D03*
X-11076Y290975D03*
X-6074Y290975D03*
X-1073Y290975D03*
X3928Y290975D03*
X8929Y290975D03*
X13931Y290975D03*
X18932Y290975D03*
X23933Y290975D03*
X28934Y290975D03*
X33936Y290975D03*
X38937Y290975D03*
D17*
X45230Y284682D03*
X45230Y279681D03*
X45230Y274679D03*
X45230Y269678D03*
X45230Y264677D03*
X45230Y259676D03*
X45230Y254674D03*
X45230Y249673D03*
X45230Y244672D03*
X45230Y239671D03*
X45230Y234669D03*
X45230Y229668D03*
D16*
X38937Y223375D03*
X33936Y223375D03*
X28934Y223375D03*
X23933Y223375D03*
X18932Y223375D03*
X13931Y223375D03*
X8929Y223375D03*
X3928Y223375D03*
X-1073Y223375D03*
X-6074Y223375D03*
X-11076Y223375D03*
X-16077Y223375D03*
D17*
X-22370Y229668D03*
X-22370Y234669D03*
X-22370Y239671D03*
X-22370Y244672D03*
X-22370Y249673D03*
X-22370Y254674D03*
X-22370Y259676D03*
X-22370Y264677D03*
X-22370Y269678D03*
X-22370Y274679D03*
X-22370Y279681D03*
X-22370Y284682D03*
D18*
X11430Y257175D03*
D19*
X13813Y317341D03*
X25813Y317341D03*
X37813Y317341D03*
D20*
X81944Y-9825D02*
X81944Y-20783D01*
X81944Y-9825D02*
X86902Y-9825D01*
X86902Y-20783D01*
X81944Y-20783D01*
X81944Y-15027D02*
X86902Y-15027D01*
X107635Y-9761D02*
X107635Y-20719D01*
X102677Y-20719D01*
X102677Y-9761D01*
X107635Y-9761D01*
X107635Y-14963D02*
X102677Y-14963D01*
D21*
X0Y415798D03*
X0Y345798D03*
D10*
X-68952Y249174D03*
X-51952Y249174D03*
X-68952Y265684D03*
X-51952Y265684D03*
X-68952Y282448D03*
X-51952Y282448D03*
X-68952Y232664D03*
X-51952Y232664D03*
X-68952Y216154D03*
X-51952Y216154D03*
D22*
X-17500Y-411726D03*
D21*
X17500Y-411726D03*
D23*
G36*
X103810Y-363390D02*
X94802Y-378992D01*
X79200Y-369984D01*
X88208Y-354382D01*
X103810Y-363390D01*
G37*
D21*
X109005Y-336377D03*
D23*
G36*
X-111540Y-349952D02*
X-120548Y-334350D01*
X-104946Y-325342D01*
X-95938Y-340944D01*
X-111540Y-349952D01*
G37*
D21*
X-90743Y-367957D03*
D24*
X165200Y300482D03*
X77520Y149762D03*
X-77520Y149762D03*
X-165200Y300482D03*
X123900Y371982D03*
X123900Y228982D03*
X-123900Y228982D03*
X-123900Y371982D03*
X165200Y482D03*
X-165200Y482D03*
X123900Y71982D03*
X-123900Y71982D03*
X77266Y-150466D03*
X-77774Y-150466D03*
X-82854Y443608D03*
X82346Y443608D03*
X-124154Y-227966D03*
X123646Y-227966D03*
D25*
X18542Y149782D03*
X18542Y171782D03*
M02*
